<svg width="14" height="16" viewBox="0 0 14 16" fill="none" xmlns="http://www.w3.org/2000/svg">
<path d="M13.5471 3.45286C13.5471 3.24242 13.463 3.03199 13.3114 2.88047L12.1667 1.73569C12.0152 1.58418 11.8047 1.5 11.5943 1.5C11.3838 1.5 11.1734 1.58418 11.0219 1.73569L5.5 7.26599L3.02525 4.78283C2.87374 4.63131 2.6633 4.54714 2.45286 4.54714C2.24242 4.54714 2.03199 4.63131 1.88047 4.78283L0.73569 5.92761C0.584175 6.07912 0.5 6.28956 0.5 6.5C0.5 6.71044 0.584175 6.92088 0.73569 7.07239L4.92761 11.2643C5.07912 11.4158 5.28956 11.5 5.5 11.5C5.71044 11.5 5.92088 11.4158 6.07239 11.2643L13.3114 4.02525C13.463 3.87374 13.5471 3.6633 13.5471 3.45286Z" fill="#63C1A0"/>
</svg>
