<svg width="114" height="32" viewBox="0 0 114 32" fill="none" xmlns="http://www.w3.org/2000/svg">
<path d="M20.8072 28.4173C20.565 28.4338 20.3298 28.4487 20.0868 28.4487C19.8124 28.4487 19.5466 28.4252 19.2723 28.4173L20.0711 26.4911L20.8072 28.4173ZM21.6923 30.6022C21.8334 30.5943 22.053 30.5559 22.2717 30.5559C22.4912 30.5559 22.7656 30.5943 22.8832 30.6022C22.5304 29.8426 22.013 28.6595 21.7159 27.9783C21.4336 27.3213 20.964 26.2246 20.5885 25.1514C20.5023 25.1749 20.4231 25.1913 20.3376 25.1913C20.2436 25.1913 20.1652 25.1749 20.079 25.1514C19.8916 25.7934 19.4361 26.8118 18.6459 28.5827L17.7373 30.6022C17.8463 30.5865 17.9568 30.5559 18.0893 30.5559C18.2147 30.5559 18.3645 30.5865 18.4656 30.6022C18.5903 30.1561 18.8411 29.5054 19.0912 28.9034C19.4048 28.8869 19.7183 28.872 20.0311 28.872C20.3682 28.872 20.6975 28.8869 21.0354 28.9034L21.363 29.7336L21.6923 30.6022ZM23.5697 27.039C23.5697 28.378 23.5697 29.6708 23.4835 30.6021C23.6567 30.5951 23.8755 30.5559 24.0472 30.5559C24.2275 30.5559 24.4156 30.5951 24.5959 30.6021C24.5332 29.9679 24.5175 29.122 24.5175 27.9555C24.5175 27.1637 24.5175 25.8098 24.6038 25.2297C24.4156 25.2532 24.2204 25.2775 24.0472 25.2775C23.9304 25.2775 23.6395 25.2462 23.4914 25.2297C23.5697 25.9886 23.5697 26.5452 23.5697 27.039ZM28.2276 27.9397C28.941 27.8065 29.5909 27.3596 29.5909 26.491C29.5909 26.1617 29.4654 25.8403 29.231 25.6129C28.8947 25.2923 28.5098 25.2296 28.001 25.2296C27.8207 25.2296 26.9121 25.2688 26.7091 25.2688C26.3093 25.2688 26.1055 25.2461 25.9259 25.2296C25.98 26.2402 25.98 26.3499 25.98 27.3761C25.98 28.8867 25.9722 29.0592 25.9102 30.6021C26.0827 30.5793 26.2709 30.5558 26.4496 30.5558C26.6464 30.5558 26.8181 30.5864 26.9748 30.6021C26.9748 30.399 26.9435 29.3885 26.9435 29.1611V28.0495H27.1316C27.555 28.6445 28.0394 29.3336 28.4393 29.9529C28.5568 30.1325 28.7293 30.4225 28.8469 30.6021C29.0821 30.5707 29.1762 30.5558 29.4819 30.5558C29.7634 30.5558 29.9593 30.5793 30.1781 30.6021C29.685 29.9843 29.4725 29.7099 28.8548 28.8405C28.7372 28.6759 28.5647 28.4172 28.4471 28.2533L28.2276 27.9397ZM26.9435 25.653C27.0611 25.6443 27.3512 25.6129 27.5001 25.6129C27.758 25.6129 28.0175 25.653 28.2276 25.8098C28.502 26.0128 28.5568 26.295 28.5568 26.6243C28.5568 27.1322 28.2676 27.7053 27.4844 27.7053C27.2806 27.7053 27.0925 27.6889 26.9435 27.681V25.653ZM32.307 28.7702C31.9401 27.6813 31.4305 26.1541 31.1875 25.2299C30.9915 25.2612 30.8198 25.2769 30.6395 25.2769C30.4514 25.2769 30.1848 25.2463 30.028 25.2299C30.3047 25.958 30.5738 26.6889 30.8355 27.4226C31.1961 28.4409 31.4305 29.1465 31.7127 30.0065L31.908 30.6023C32.0177 30.5795 32.1424 30.556 32.2293 30.556C32.3156 30.556 32.394 30.5709 32.5265 30.6023C32.6519 30.1954 32.8009 29.6945 32.9114 29.373C33.2156 28.4801 33.2556 28.3547 33.6554 27.243L33.8898 26.5931C33.976 26.8432 34.125 27.243 34.2104 27.4931C34.2967 27.7362 34.6965 28.9348 34.7905 29.2014C34.916 29.5534 34.9465 29.6545 35.2366 30.6023C35.3072 30.5944 35.4553 30.556 35.5737 30.556C35.6834 30.556 35.7689 30.5795 35.8865 30.6023C36.1844 29.671 36.2158 29.5769 36.654 28.3233C37.0852 27.1011 37.3509 26.405 37.8205 25.2299C37.7029 25.2612 37.5869 25.2769 37.4685 25.2769C37.3196 25.2769 37.1949 25.2534 37.1087 25.2299C36.8265 26.2482 36.6861 26.7421 36.4588 27.4147C36.0903 28.5107 36.0433 28.6361 35.8167 29.2319C35.5659 28.5585 35.3228 27.8765 35.0955 27.1882C34.9708 26.8119 34.4919 25.2463 34.4848 25.2299C34.3758 25.2534 34.2967 25.2769 34.1399 25.2769C34.0003 25.2769 33.8968 25.2463 33.7957 25.2299C33.5605 26.1855 32.7303 28.4879 32.6519 28.6996L32.4559 29.2084L32.307 28.7702ZM40.21 28.4173C39.967 28.4338 39.7326 28.4487 39.4888 28.4487C39.2152 28.4487 38.9486 28.4252 38.675 28.4173L39.4731 26.4911L40.21 28.4173ZM41.0943 30.6022C41.2362 30.5943 41.4557 30.5559 41.6744 30.5559C41.8939 30.5559 42.1683 30.5943 42.2851 30.6022C41.9331 29.8426 41.4157 28.6595 41.1178 27.9783C40.8356 27.3213 40.366 26.2246 39.9905 25.1514C39.9043 25.1749 39.8259 25.1913 39.7396 25.1913C39.6463 25.1913 39.5672 25.1749 39.4809 25.1514C39.2935 25.7934 38.8389 26.8118 38.0478 28.5827L37.1393 30.6022C37.2498 30.5865 37.3588 30.5559 37.492 30.5559C37.6175 30.5559 37.7656 30.5865 37.8683 30.6022C37.993 30.1561 38.2446 29.5054 38.4947 28.9034C38.8075 28.8869 39.1211 28.872 39.4339 28.872C39.771 28.872 40.0995 28.8869 40.4365 28.9034L40.7658 29.7336L41.0943 30.6022ZM44.3821 28.5035C44.3821 28.4337 44.4292 28.3475 44.484 28.2526C44.8133 27.689 45.1182 27.101 45.471 26.5373C45.5878 26.3492 46.1601 25.4414 46.2785 25.2297C46.1915 25.2611 46.1053 25.2775 45.9492 25.2775C45.776 25.2775 45.6192 25.2532 45.4937 25.2297C44.9301 26.4675 44.8047 26.7333 44.1399 27.8771C43.4743 26.7106 43.1764 26.092 42.7687 25.2297C42.5422 25.2689 42.3141 25.2775 42.1267 25.2775C41.9542 25.2775 41.7739 25.261 41.4846 25.2297C41.8915 25.9109 42.5579 26.992 42.9569 27.6811L43.4186 28.48C43.4186 28.966 43.3951 29.9914 43.3724 30.6021C43.5206 30.5864 43.74 30.5559 43.8961 30.5559C44.0764 30.5559 44.2575 30.5864 44.4378 30.6021C44.4057 29.8738 44.3821 29.4513 44.3821 28.7928V28.5035ZM46.7297 29.4281C46.6913 29.8037 46.6826 29.9056 46.5494 30.3125C46.8316 30.4536 47.3411 30.7122 48.0138 30.7122C49.4476 30.7122 50.0034 29.7966 50.0034 28.997C50.0034 28.7775 49.9486 28.3149 49.6201 27.9629C49.3928 27.7121 49.1576 27.6266 48.5547 27.3914C47.8664 27.1249 47.4658 26.9681 47.4658 26.3966C47.4658 25.9348 47.7716 25.5507 48.3901 25.5507C48.8832 25.5507 49.2995 25.7859 49.4163 26.232H49.526C49.5966 25.9348 49.6123 25.8721 49.7691 25.488C49.3849 25.3163 49.04 25.1674 48.4684 25.1674C47.0503 25.1674 46.6434 26.0446 46.6434 26.7329C46.6434 27.3836 46.8715 27.7834 47.6304 28.1197C47.8491 28.2138 48.2184 28.3542 48.4371 28.449C48.5861 28.5109 49.08 28.7296 49.08 29.349C49.08 29.9134 48.6715 30.3289 48.0538 30.3289C47.5912 30.3289 47.1993 30.2113 46.8394 29.4281H46.7297Z" fill="#66747B" fill-opacity="0.6"/>
<path d="M3.2189 14.9538C3.2189 9.0334 6.39077 7.43493 8.7881 7.43493C12.6412 7.43493 14.3095 10.6311 14.3095 14.0382C14.3095 15.9878 14.0743 17.8207 13.1108 19.3016C12.1473 20.7809 10.5504 21.6746 8.81085 21.6746C4.4646 21.6746 3.2189 17.5385 3.2189 14.9538ZM14.9202 27.0557C15.625 26.5618 16.7295 25.9512 17.5284 25.5984L12.2187 22.3081C15.4838 21.1573 17.5284 18.2433 17.5284 14.2726C17.5284 8.6344 13.2284 6.23707 8.83437 6.23707C4.08912 6.23703 0 8.86878 0 14.837C0 16.1046 0.28222 18.502 2.25542 20.4995C4.29998 22.5676 6.72006 22.8725 8.76458 22.8725C9.02252 22.8725 9.28045 22.8725 9.53996 22.8498L14.9202 27.0557ZM28.4898 15.9881C27.7607 16.0359 27.0567 16.083 26.3269 16.083C25.5053 16.083 24.7064 16.0116 23.8849 15.9881L26.2814 10.208L28.4898 15.9881ZM31.1451 22.5435C31.5676 22.52 32.2262 22.4024 32.8831 22.4024C33.5424 22.4024 34.3632 22.52 34.7168 22.5435C33.6592 20.2646 32.1086 16.7164 31.2148 14.6718C30.369 12.6986 28.9594 9.40839 27.8321 6.18949C27.5734 6.26081 27.3382 6.30785 27.0803 6.30785C26.7981 6.30785 26.5629 6.26081 26.3049 6.18945C25.7405 8.11719 24.378 11.1715 22.005 16.4812L19.2783 22.5435C19.6076 22.4972 19.9369 22.4024 20.3359 22.4024C20.7114 22.4024 21.159 22.4972 21.464 22.5435C21.8395 21.2037 22.5929 19.254 23.3439 17.4447C24.2831 17.3984 25.2231 17.3514 26.163 17.3514C27.1735 17.3514 28.1605 17.3984 29.1718 17.4447L30.1572 19.9361L31.1451 22.5435ZM41.5714 10.6312C41.5714 9.73826 41.5942 8.84533 41.6177 7.99868C43.2389 7.99868 44.908 8.02296 46.294 8.16327C46.2234 7.78778 46.1764 7.57688 46.1764 7.31818C46.1764 7.13003 46.2234 6.82353 46.294 6.42529C44.0386 6.54207 41.9705 6.56559 40.02 6.56559C38.2107 6.56559 35.6024 6.54207 33.746 6.42529C33.8174 6.70751 33.8636 7.01244 33.8636 7.29466C33.8636 7.57688 33.8174 7.88185 33.746 8.16327C34.9455 8.04648 37.2009 7.99868 37.4118 7.99868H38.587C38.6105 8.91589 38.634 9.73826 38.634 10.6077L38.6575 17.1623C38.6575 18.9489 38.5172 20.7583 38.4223 22.5433C39.2682 22.45 39.621 22.403 40.02 22.403C40.3022 22.403 41.054 22.4736 41.7361 22.5433C41.6647 21.8864 41.5714 21.1103 41.5714 19.3252V10.6312ZM54.6497 15.9881C53.9214 16.0359 53.2166 16.083 52.4883 16.083C51.6651 16.083 50.8671 16.0116 50.0439 15.9881L52.4413 10.208L54.6497 15.9881ZM57.3049 22.5435C57.7274 22.52 58.386 22.4024 59.0437 22.4024C59.7014 22.4024 60.5238 22.52 60.8766 22.5435C59.819 20.2646 58.2684 16.7164 57.3755 14.6718C56.5296 12.6986 55.1193 9.40839 53.9919 6.18949C53.7332 6.26081 53.498 6.30785 53.2401 6.30785C52.9579 6.30785 52.7227 6.26081 52.464 6.18945C51.9011 8.11719 50.5378 11.1715 48.164 16.4812L45.439 22.5435C45.7675 22.4972 46.0975 22.4024 46.4965 22.4024C46.8721 22.4024 47.3181 22.4972 47.6247 22.5435C48.001 21.2037 48.752 19.254 49.5038 17.4447C50.443 17.3984 51.3829 17.3514 52.3237 17.3514C53.3342 17.3514 54.3212 17.3984 55.3309 17.4447L56.3179 19.9361L57.3049 22.5435ZM70.3397 14.5557C72.4775 14.1559 74.428 12.8169 74.428 10.2079C74.428 9.22094 74.0517 8.25741 73.3461 7.577C72.3364 6.61351 71.1848 6.42537 69.6576 6.42537C69.1167 6.42537 66.3917 6.54215 65.7802 6.54215C64.5816 6.54215 63.9709 6.4716 63.4315 6.42537C63.5953 9.45612 63.5953 9.78457 63.5953 12.8624C63.5953 17.3983 63.5718 17.9142 63.3845 22.5434C63.9011 22.4736 64.4647 22.4023 65.0049 22.4023C65.5921 22.4023 66.1094 22.4972 66.579 22.5434C66.579 21.932 66.4858 18.902 66.4858 18.2199V14.8834H67.0502C68.3187 16.6692 69.776 18.7373 70.9739 20.5937C71.3259 21.1346 71.8425 22.004 72.1945 22.5434C72.9001 22.4501 73.1823 22.4023 74.098 22.4023C74.9438 22.4023 75.5318 22.4736 76.1896 22.5434C74.7094 20.6877 74.076 19.8654 72.2188 17.2572C71.8661 16.7633 71.3494 15.988 70.9966 15.4949L70.3397 14.5557ZM66.4858 7.69378C66.8378 7.67107 67.7072 7.577 68.154 7.577C68.9293 7.577 69.7039 7.69378 70.3397 8.16338C71.1613 8.77486 71.3259 9.61994 71.3259 10.6078C71.3259 12.1349 70.4565 13.8502 68.107 13.8502C67.4955 13.8502 66.9319 13.8023 66.4858 13.7804V7.69378Z" fill="#66747B" fill-opacity="0.6"/>
<path d="M105.463 14.6006C105.463 14.7519 103.336 14.8938 100.3 15.0129C99.764 14.7088 99.3571 14.403 99.0592 14.1396C102.741 14.2698 105.463 14.4304 105.463 14.6006ZM103.282 9.47455C103.282 9.60077 101.5 9.71913 98.9509 9.82103C99.3162 9.60783 99.6925 9.39302 100.088 9.17744C102.013 9.26599 103.282 9.3687 103.282 9.47455ZM84.2921 20.5024C83.1123 20.5165 82.0774 20.522 81.2692 20.522C80.1058 20.522 79.1635 20.1637 79.1635 19.7192C79.1635 19.2771 80.1058 18.9188 81.2692 18.9188C82.2993 18.9188 83.6948 18.9298 85.2956 18.9502C84.6763 19.8439 84.3823 20.3809 84.3548 20.4146C84.3368 20.4405 84.3141 20.471 84.2921 20.5024ZM84.9277 21.576C85.3165 22.0456 85.6897 22.4407 86.189 22.8727C86.189 22.8727 86.3772 23.1416 86.9487 22.9111C87.5304 22.6743 88.0235 22.3521 88.5793 21.6066C90.2021 21.6341 91.9229 21.6701 93.617 21.7085C93.7565 21.9116 94.0396 22.3318 94.3884 22.8499C89.6659 22.9723 84.5404 23.0452 81.9149 23.0452C80.8213 23.0452 79.9339 22.7057 79.9339 22.2902C79.9339 21.8723 80.8213 21.5353 81.9149 21.5353C82.7146 21.5353 83.7447 21.5407 84.9237 21.5541C84.9235 21.5616 84.9249 21.5691 84.9277 21.576ZM83.1009 25.5144C82.1303 25.5144 81.344 25.2157 81.344 24.8472C81.344 24.478 82.1303 24.1785 83.1008 24.1785C85.6683 24.1785 90.9317 24.2569 95.4395 24.3847C95.6566 24.6959 95.8738 25.0056 96.0799 25.2901C91.439 25.4266 85.7898 25.5144 83.1009 25.5144ZM98.0721 27.656C94.2864 27.8222 87.7773 27.9335 85.0726 27.9335C84.3114 27.9335 83.6929 27.6959 83.6929 27.4083C83.6929 27.1182 84.3114 26.8822 85.0726 26.8822C87.6596 26.8822 93.7353 26.9841 97.5696 27.137C97.7429 27.3228 97.9122 27.4977 98.0721 27.656ZM88.1957 29.0759C90.4291 29.0759 97.2283 29.2444 97.2283 29.4482C97.2283 29.6552 90.4284 29.8222 88.1957 29.8222C87.7606 29.8222 87.4086 29.6552 87.4086 29.4482C87.4086 29.2444 87.7605 29.0759 88.1957 29.0759ZM88.2204 15.328C85.4091 15.3758 82.8903 15.4025 81.269 15.4025C80.1064 15.4025 79.1634 15.0442 79.1634 14.6005C79.1634 14.1576 80.1064 13.7977 81.269 13.7977C83.1521 13.7977 86.2464 13.8338 89.6009 13.8973C89.1295 14.3632 88.6692 14.8403 88.2204 15.328ZM102.009 11.7424C103.656 11.8318 104.693 11.9298 104.693 12.0317C104.693 12.1438 103.438 12.2512 101.497 12.3469C101.912 12.0349 102.003 11.7628 102.009 11.7424ZM81.9153 12.7854C80.8209 12.7854 79.9335 12.4483 79.9335 12.0313C79.9335 11.615 80.8209 11.2763 81.9153 11.2763C84.1597 11.2763 88.2308 11.3312 92.3144 11.4213C91.8314 11.8286 91.3565 12.2455 90.89 12.6717C87.3058 12.7439 83.8987 12.7854 81.9153 12.7854ZM94.1198 9.97189C89.9445 10.0777 85.4211 10.1428 83.1006 10.1428C82.13 10.1428 81.3445 9.84409 81.3445 9.47485C81.3445 9.10562 82.13 8.80537 83.1006 8.80537C85.6618 8.80537 90.9127 8.88532 95.4141 9.01231C95.1899 9.17537 94.9641 9.33843 94.7352 9.50935C94.5267 9.66457 94.3212 9.81742 94.1198 9.97189ZM85.0723 7.43816C84.3111 7.43816 83.6925 7.20374 83.6925 6.91293C83.6925 6.62285 84.3111 6.38686 85.0723 6.38686C87.9439 6.38686 95.1061 6.51385 98.7436 6.69494C98.5116 6.84706 98.2796 7.00463 98.0452 7.163C94.2539 7.32682 87.7714 7.43816 85.0723 7.43816ZM81.0521 17.9765C79.8684 17.9765 78.9072 17.612 78.9072 17.1596C78.9072 16.7104 79.8684 16.3444 81.0521 16.3444C82.5361 16.3444 84.7571 16.3663 87.2689 16.4047C86.8442 16.9037 86.433 17.414 86.0357 17.935C84.0358 17.9616 82.2876 17.9765 81.0521 17.9765ZM87.4089 4.87217C87.4089 4.66599 87.7609 4.49902 88.196 4.49902C90.4287 4.49902 97.2287 4.66599 97.2287 4.87217C97.2287 5.07681 90.4295 5.24455 88.196 5.24455C87.7609 5.24455 87.4089 5.07681 87.4089 4.87217Z" fill="#66747B" fill-opacity="0.6"/>
<path d="M105.686 16.5556C105.702 16.9577 105.7 17.3603 105.679 17.7621C101.723 17.9189 97.9723 18.1573 97.9723 18.4254C97.9723 18.6888 101.64 18.9247 105.55 19.0808C105.482 19.5276 105.393 19.971 105.284 20.4096C101.43 20.5671 97.8523 20.7992 97.8523 21.0603C97.8523 21.3119 101.192 21.5385 104.89 21.696C104.721 22.168 104.528 22.6266 104.313 23.0656C101.137 23.2185 98.5124 23.4223 98.5124 23.6449C98.5124 23.8527 100.805 24.0447 103.696 24.1929C103.534 24.4571 103.364 24.7158 103.187 24.9604C102.999 25.227 102.794 25.4911 102.578 25.7506C100.771 25.8878 99.5308 26.0438 99.5308 26.2108C99.5308 26.3543 100.419 26.4883 101.788 26.6083C101.041 27.3476 100.158 28.0382 99.1176 28.6411C99.1176 28.6411 97.8923 27.5858 96.881 26.3535C95.9795 25.2544 94.0666 22.3569 93.6166 21.7086C93.1658 21.0602 92.8695 20.8705 92.3427 21.0587C91.6364 21.3088 90.8156 21.4342 90.5631 21.4342C90.3107 21.4342 90.1719 21.3362 90.5953 21.1684C91.017 20.9983 92.6845 20.2112 93.5053 18.5845C94.4273 16.7524 93.6166 14.2226 93.6166 14.2226C93.307 15.5749 92.603 16.0798 92.603 16.0798C92.8303 14.8239 92.5826 13.6856 91.9625 12.8867L91.6168 14.4766C91.6168 14.4766 91.4004 14.4656 90.8649 14.9156C90.3303 15.3664 90.1829 16.0234 90.1829 16.0234C90.6039 16.1927 91.1103 15.7701 91.1103 15.7701C90.4636 18.1902 89.5362 20.1603 88.8596 21.2021C88.1838 22.244 87.6264 22.6368 86.9491 22.912C86.3776 23.1408 86.1894 22.8719 86.1894 22.8719C85.6901 22.4408 85.3169 22.0457 84.9281 21.5761C84.9281 21.5761 84.8967 21.5212 85.0018 21.5228C85.2801 21.5267 85.7755 21.0509 85.8837 20.8533C86.0076 20.6267 85.9942 20.4535 85.9323 20.4417C85.8712 20.4315 85.7653 20.611 85.2283 20.9497C84.6944 21.2876 84.4491 21.0532 84.2711 20.865C84.1331 20.7153 84.2688 20.5303 84.355 20.4143C84.4365 20.3108 87.2611 15.0434 94.7353 9.50951C104.53 2.25712 110.785 0.298771 111.143 0.157661C111.38 0.0643939 111.767 -0.0587224 111.855 0.0314376C111.952 0.133376 112 0.214903 111.986 0.333262C111.974 0.450854 111.911 0.511242 111.458 0.711167C107.698 2.36765 103.309 5.12873 100.815 6.73581C97.7481 8.23004 94.82 10.364 94.7134 10.4149C94.4774 10.5615 94.6515 10.7748 94.7942 10.6854C99.9729 7.2407 106.045 4.89432 112.755 2.97207C113.075 2.88114 113.251 2.88114 113.304 2.9517C113.364 3.03008 113.39 3.11943 113.4 3.21823C113.408 3.3413 113.306 3.40637 113.031 3.51376C105.823 6.19174 100.51 8.67923 97.0927 10.9786C97.0927 10.9786 96.7392 11.1918 96.7344 11.4387C96.7329 11.5328 96.9242 11.5438 96.9242 11.5438C98.6347 11.5744 100.922 11.6747 102.01 11.7382C102.01 11.7382 101.854 12.2894 100.813 12.7331C100.008 13.0764 99.2635 13.0216 98.5265 13.0278C98.3627 13.0247 98.224 13.1901 98.3549 13.3665C98.4207 13.4543 99.9886 15.9787 105.686 16.5556ZM53.4508 29.7563H52.4849C52.4849 29.7563 52.3548 29.1621 52.7044 28.9347C53.0556 28.7043 53.4507 28.5271 53.4507 28.5271L53.4508 29.7563ZM58.0337 27.5314C58.0337 27.5314 57.4465 27.8686 57.075 28.1994C56.7057 28.5271 57.151 28.6517 57.151 28.6517V29.7563H54.3484V25.8907C54.3484 25.8907 53.3269 26.8299 53.2312 26.9545C53.1324 27.0878 53.4742 27.2085 53.4742 27.2085L53.4162 27.5746C53.4162 27.5746 53.0094 27.7855 52.5155 28.1195C52.0247 28.4495 51.661 28.8705 51.661 29.1621C51.661 29.4545 51.5371 30.6023 51.5371 30.6023H58.0337V27.5314ZM52.2316 26.118C52.5515 26.118 52.7773 25.9918 52.7773 25.737C52.7773 25.4814 52.6276 25.3035 52.2317 25.3035C51.8797 25.3035 51.7856 25.4571 51.7856 25.737C51.7856 26.0192 51.9079 26.118 52.2316 26.118ZM53.4264 26.118C53.7494 26.118 53.9681 25.9917 53.9681 25.737C53.9681 25.4814 53.82 25.3035 53.4264 25.3035C53.0729 25.3035 52.9804 25.4571 52.9804 25.737C52.9804 26.0192 53.1018 26.118 53.4264 26.118ZM55.2365 30.9346C54.8869 30.9346 54.7905 31.0843 54.7905 31.3658C54.7905 31.6448 54.9144 31.7467 55.2366 31.7467C55.5564 31.7467 55.783 31.6198 55.783 31.3658C55.783 31.1094 55.6356 30.9346 55.2365 30.9346ZM56.4784 30.9346C56.1287 30.9346 56.0331 31.0843 56.0331 31.3658C56.0331 31.6448 56.1601 31.7467 56.4784 31.7467C56.8029 31.7467 57.0255 31.6198 57.0255 31.3658C57.0255 31.1094 56.879 30.9346 56.4784 30.9346ZM70.4774 26.042C70.7996 26.042 71.0254 25.9189 71.0254 25.6641C71.0254 25.4108 70.8764 25.2298 70.4774 25.2298C70.1285 25.2298 70.0337 25.3834 70.0337 25.6641C70.0337 25.9447 70.1584 26.042 70.4774 26.042ZM71.7184 26.042C72.0382 26.042 72.2624 25.9189 72.2624 25.6641C72.2624 25.4108 72.1135 25.2298 71.7184 25.2298C71.3672 25.2298 71.2739 25.3834 71.2739 25.6641C71.2739 25.9447 71.3939 26.042 71.7184 26.042ZM75.1443 26.147C74.9694 26.2983 75.0204 26.4794 75.2423 26.4543V30.6077H76.1626V25.4375C76.1626 25.4375 75.316 25.9965 75.1443 26.147ZM71.4456 28.4761H70.8497C70.8497 28.1492 71.4456 27.9681 71.4456 27.9681V28.4761ZM67.5235 29.1621C67.5235 29.3126 67.5164 29.558 67.5093 29.7563H62.3094V28.8422C62.445 28.4902 62.6739 28.4495 63.0283 28.4495H66.8297C67.6505 28.4495 67.5235 28.8815 67.5235 29.1621ZM73.6046 26.4496V29.7563H72.3667V26.7538C72.3667 26.7538 72.1135 26.851 71.7662 27.0046C71.4221 27.1606 70.1772 27.6663 70.1772 28.3499V29.1401H71.4456V29.7563H68.4368C68.4391 29.6113 68.4422 29.3981 68.4422 29.0853C68.4422 28.0998 67.6026 27.5636 66.8556 27.5636H63.3771C62.768 27.5636 62.474 27.711 62.3094 27.8795V25.334C62.3094 25.334 61.7661 25.7158 61.3671 26.0192C60.9688 26.3226 61.3671 26.5264 61.3671 26.5264V29.7563H60.2272L60.2029 26.9843C60.2029 26.9843 59.4096 27.5636 59.1822 27.74C58.9603 27.9156 59.0834 28.0724 59.332 28.0724C59.332 28.0724 59.2865 30.1193 59.2865 30.6022C59.2865 31.0882 58.8843 31.6433 58.04 31.3909C58.04 31.3909 57.7719 31.4426 57.9945 31.6448C58.2164 31.8463 58.4845 32 58.7847 32C59.0834 32 60.1778 31.7938 60.1778 30.6022H74.5218V25.4344C74.5218 25.4344 73.6775 25.9917 73.5034 26.1431C73.3287 26.2943 73.3796 26.4763 73.6046 26.4496Z" fill="#66747B" fill-opacity="0.6"/>
</svg>
