<svg width="142" height="17" viewBox="0 0 142 17" fill="none" xmlns="http://www.w3.org/2000/svg">
<path opacity="0.6" d="M6.592 14V11.488H0.944L0.576 10.08L6.8 2.72H8.48V9.872H10.08V11.488H8.48V14H6.592ZM2.912 9.872H6.592V5.44L2.912 9.872ZM11.9943 14V11.792H14.1223V14H11.9943ZM20.0351 12.4C22.0031 12.4 22.7071 10.352 22.7551 8.88C22.1311 9.632 21.2671 10.064 20.1151 10.064C17.7471 10.064 16.1471 8.688 16.1471 6.512V6.48C16.1471 4.288 17.8431 2.608 20.3231 2.608C21.7311 2.608 22.6271 2.992 23.4431 3.808C24.2591 4.624 24.7871 5.872 24.7871 8.064V8.096C24.7871 11.696 22.9951 14.192 19.9871 14.192C18.4351 14.192 17.3631 13.632 16.4031 12.848L17.4751 11.344C18.3231 12.048 19.0751 12.4 20.0351 12.4ZM20.4031 8.416C21.8271 8.416 22.6751 7.488 22.6751 6.4V6.368C22.6751 5.2 21.7631 4.32 20.3391 4.32C18.9311 4.32 18.1151 5.232 18.1151 6.4V6.432C18.1151 7.584 18.9951 8.416 20.4031 8.416Z" fill="#181818"/>
<path d="M45.875 0.5625L47.9062 4.71875L52.375 5.375C52.75 5.4375 53.0625 5.6875 53.1875 6.0625C53.3125 6.40625 53.2188 6.8125 52.9375 7.0625L49.6875 10.2812L50.4688 14.8438C50.5312 15.2188 50.375 15.5938 50.0625 15.8125C49.75 16.0625 49.3438 16.0625 49 15.9062L45 13.75L40.9688 15.9062C40.6562 16.0625 40.25 16.0625 39.9375 15.8125C39.625 15.5938 39.4688 15.2188 39.5312 14.8438L40.2812 10.2812L37.0312 7.0625C36.7812 6.8125 36.6875 6.40625 36.7812 6.0625C36.9062 5.6875 37.2188 5.4375 37.5938 5.375L42.0938 4.71875L44.0938 0.5625C44.25 0.21875 44.5938 0 45 0C45.375 0 45.7188 0.21875 45.875 0.5625Z" fill="url(#paint0_linear_30898_2197)"/>
<path d="M67.875 0.5625L69.9062 4.71875L74.375 5.375C74.75 5.4375 75.0625 5.6875 75.1875 6.0625C75.3125 6.40625 75.2188 6.8125 74.9375 7.0625L71.6875 10.2812L72.4688 14.8438C72.5312 15.2188 72.375 15.5938 72.0625 15.8125C71.75 16.0625 71.3438 16.0625 71 15.9062L67 13.75L62.9688 15.9062C62.6562 16.0625 62.25 16.0625 61.9375 15.8125C61.625 15.5938 61.4688 15.2188 61.5312 14.8438L62.2812 10.2812L59.0312 7.0625C58.7812 6.8125 58.6875 6.40625 58.7812 6.0625C58.9062 5.6875 59.2188 5.4375 59.5938 5.375L64.0938 4.71875L66.0938 0.5625C66.25 0.21875 66.5938 0 67 0C67.375 0 67.7188 0.21875 67.875 0.5625Z" fill="url(#paint1_linear_30898_2197)"/>
<path d="M89.875 0.5625L91.9062 4.71875L96.375 5.375C96.75 5.4375 97.0625 5.6875 97.1875 6.0625C97.3125 6.40625 97.2188 6.8125 96.9375 7.0625L93.6875 10.2812L94.4688 14.8438C94.5312 15.2188 94.375 15.5938 94.0625 15.8125C93.75 16.0625 93.3438 16.0625 93 15.9062L89 13.75L84.9688 15.9062C84.6562 16.0625 84.25 16.0625 83.9375 15.8125C83.625 15.5938 83.4688 15.2188 83.5312 14.8438L84.2812 10.2812L81.0312 7.0625C80.7812 6.8125 80.6875 6.40625 80.7812 6.0625C80.9062 5.6875 81.2188 5.4375 81.5938 5.375L86.0938 4.71875L88.0938 0.5625C88.25 0.21875 88.5938 0 89 0C89.375 0 89.7188 0.21875 89.875 0.5625Z" fill="url(#paint2_linear_30898_2197)"/>
<path d="M111.875 0.5625L113.906 4.71875L118.375 5.375C118.75 5.4375 119.062 5.6875 119.188 6.0625C119.312 6.40625 119.219 6.8125 118.938 7.0625L115.688 10.2812L116.469 14.8438C116.531 15.2188 116.375 15.5938 116.062 15.8125C115.75 16.0625 115.344 16.0625 115 15.9062L111 13.75L106.969 15.9062C106.656 16.0625 106.25 16.0625 105.938 15.8125C105.625 15.5938 105.469 15.2188 105.531 14.8438L106.281 10.2812L103.031 7.0625C102.781 6.8125 102.688 6.40625 102.781 6.0625C102.906 5.6875 103.219 5.4375 103.594 5.375L108.094 4.71875L110.094 0.5625C110.25 0.21875 110.594 0 111 0C111.375 0 111.719 0.21875 111.875 0.5625Z" fill="url(#paint3_linear_30898_2197)"/>
<path d="M133.875 0.5625L135.906 4.71875L140.375 5.375C140.75 5.4375 141.062 5.6875 141.188 6.0625C141.312 6.40625 141.219 6.8125 140.938 7.0625L137.688 10.2812L138.469 14.8438C138.531 15.2188 138.375 15.5938 138.062 15.8125C137.75 16.0625 137.344 16.0625 137 15.9062L133 13.75L128.969 15.9062C128.656 16.0625 128.25 16.0625 127.938 15.8125C127.625 15.5938 127.469 15.2188 127.531 14.8438L128.281 10.2812L125.031 7.0625C124.781 6.8125 124.688 6.40625 124.781 6.0625C124.906 5.6875 125.219 5.4375 125.594 5.375L130.094 4.71875L132.094 0.5625C132.25 0.21875 132.594 0 133 0C133.375 0 133.719 0.21875 133.875 0.5625Z" fill="url(#paint4_linear_30898_2197)"/>
<defs>
<linearGradient id="paint0_linear_30898_2197" x1="45" y1="0" x2="45" y2="17.5" gradientUnits="userSpaceOnUse">
<stop offset="0.591346" stop-color="#FDA509"/>
<stop offset="1" stop-color="#E88000"/>
</linearGradient>
<linearGradient id="paint1_linear_30898_2197" x1="67" y1="0" x2="67" y2="17.5" gradientUnits="userSpaceOnUse">
<stop offset="0.591346" stop-color="#FDA509"/>
<stop offset="1" stop-color="#E88000"/>
</linearGradient>
<linearGradient id="paint2_linear_30898_2197" x1="89" y1="0" x2="89" y2="17.5" gradientUnits="userSpaceOnUse">
<stop offset="0.591346" stop-color="#FDA509"/>
<stop offset="1" stop-color="#E88000"/>
</linearGradient>
<linearGradient id="paint3_linear_30898_2197" x1="111" y1="0" x2="111" y2="17.5" gradientUnits="userSpaceOnUse">
<stop offset="0.591346" stop-color="#FDA509"/>
<stop offset="1" stop-color="#E88000"/>
</linearGradient>
<linearGradient id="paint4_linear_30898_2197" x1="133" y1="0" x2="133" y2="17.5" gradientUnits="userSpaceOnUse">
<stop offset="0.591346" stop-color="#FDA509"/>
<stop offset="1" stop-color="#E88000"/>
</linearGradient>
</defs>
</svg>
