<svg width="16" height="14" viewBox="0 0 16 14" fill="none" xmlns="http://www.w3.org/2000/svg">
<path d="M7.75 1.65723L1.5625 11.8135C1.5 11.9072 1.5 11.9697 1.5 12.0635C1.5 12.3135 1.6875 12.501 1.9375 12.501H14.0312C14.2812 12.501 14.5 12.3135 14.5 12.0635C14.5 11.9697 14.4688 11.9072 14.4062 11.8135L8.21875 1.65723C8.1875 1.56348 8.09375 1.50098 8 1.50098C7.875 1.50098 7.8125 1.56348 7.75 1.65723ZM6.46875 0.875977C6.78125 0.344727 7.375 0.000976562 8 0.000976562C8.59375 0.000976562 9.1875 0.344727 9.5 0.875977L15.6875 11.0322C15.875 11.3447 16 11.6885 16 12.0635C16 13.126 15.125 14.001 14.0312 14.001H1.9375C0.875 14.001 0 13.126 0 12.0635C0 11.6885 0.09375 11.3447 0.28125 11.0322L6.46875 0.875977ZM9 10.501C9 11.0635 8.53125 11.501 8 11.501C7.4375 11.501 7 11.0635 7 10.501C7 9.96973 7.4375 9.50098 8 9.50098C8.53125 9.50098 9 9.96973 9 10.501ZM8.75 4.75098V7.75098C8.75 8.18848 8.40625 8.50098 8 8.50098C7.5625 8.50098 7.25 8.18848 7.25 7.75098V4.75098C7.25 4.34473 7.5625 4.00098 8 4.00098C8.40625 4.00098 8.75 4.34473 8.75 4.75098Z" fill="#D62027"/>
</svg>
