<svg width="40" height="40" viewBox="0 0 40 40" fill="none" xmlns="http://www.w3.org/2000/svg">
<rect x="1" y="1" width="38" height="38" rx="19" fill="white"/>
<rect x="1" y="1" width="38" height="38" rx="19" stroke="#2A95D5" stroke-width="2"/>
<path d="M16.8125 19.4844L21.2656 23.9375L19.9766 25.2266C19.7812 25.4219 19.5469 25.5 19.3125 25.5H17.75V27.0625C17.75 27.6094 17.3203 28 16.8125 28H15.25V29.5625C15.25 30.1094 14.8203 30.5 14.3125 30.5H11.1875C10.6406 30.5 10.25 30.1094 10.25 29.5625V26.4375C10.25 26.2031 10.3281 25.9688 10.5234 25.7734L16.8125 19.4844Z" fill="#B1D4F5"/>
<path d="M16.8125 19.4844C16.5781 18.8203 16.5 18.1172 16.5 17.375C16.5 13.5859 19.5469 10.5 23.375 10.5C27.1641 10.5 30.25 13.5859 30.25 17.375C30.25 21.2031 27.1641 24.25 23.375 24.25C22.6328 24.25 21.9297 24.1719 21.2656 23.9375L16.8125 19.4844ZM23.375 15.8125C23.375 16.3984 23.6484 16.9062 24.1562 17.1797C24.625 17.4531 25.2109 17.4531 25.7188 17.1797C26.1875 16.9062 26.5 16.3984 26.5 15.8125C26.5 15.2656 26.1875 14.7578 25.7188 14.4844C25.2109 14.2109 24.625 14.2109 24.1562 14.4844C23.6484 14.7578 23.375 15.2656 23.375 15.8125Z" fill="#2A95D5"/>
</svg>
