<svg width="31" height="47" viewBox="0 0 31 47" fill="none" xmlns="http://www.w3.org/2000/svg">
<path fill-rule="evenodd" clip-rule="evenodd" d="M29.94 12.6082C29.94 12.3137 30.1366 12.2648 30.2345 12.6572C32.0987 18.8877 28.8604 30.2202 26.26 31.8879C23.7091 33.5557 20.128 34.0466 21.2561 29.3859C22.9729 21.2915 16.8901 23.2539 19.3918 31.5444C19.4445 31.755 19.5717 31.9973 19.7056 32.2523C20.1956 33.1854 20.7749 34.2887 18.1166 34.6354C12.6407 35.0462 10.9 31.127 8.86745 26.5506C8.71485 26.2071 8.56065 25.8599 8.40305 25.5105C8.30515 25.1673 8.10875 25.216 8.10875 25.4126C8.04215 26.361 8.31985 27.2473 8.55705 28.0046C9.01925 29.4802 9.32795 30.4658 6.63695 30.4658C4.38035 30.3181 2.81055 29.828 0.946348 24.1372C0.510248 22.6113 0.543448 21.8117 0.575048 21.0494C0.600348 20.4392 0.624645 19.8528 0.406545 18.9368C-0.623655 14.6196 -0.0351534 8.242 6.19555 4.9549C6.78435 4.6115 6.83325 4.8078 6.68615 4.9549C-0.525453 9.9099 1.97645 18.9368 6.58795 21.8805C6.73515 21.9784 6.98015 21.9784 6.88225 21.6839C6.20005 19.5134 6.28215 18.8323 6.41015 17.7703C6.48475 17.152 6.57485 16.4046 6.53885 15.1592C6.44085 11.9213 7.22575 8.242 11.6404 5.2495C10.0709 3.336 10.905 1.7171 12.1804 0.686899C12.5676 0.375099 13.0118 0.1418 13.4883 0H15.1547C15.7778 0.2158 16.3626 0.720498 16.7919 1.6681C17.7244 3.6795 17.1354 4.1211 16.1052 4.5136C15.6638 4.6607 14.83 5.1513 14.3884 5.5929C13.4561 6.476 13.1129 6.378 12.2788 5.8382C7.91245 11.3328 9.48244 18.152 14.4373 19.3785C14.928 19.5256 15.3206 19.8199 15.6149 20.5068C16.2863 21.8774 16.8939 21.7329 17.6013 21.5646C18.1347 21.4377 18.7248 21.2973 19.4418 21.7823C20.8843 22.4134 21.2959 21.9033 21.6914 21.4132C21.9416 21.1031 22.1854 20.8011 22.6796 20.8011C27.6836 20.7521 30.0382 16.5328 29.94 12.6082ZM16.743 22.0276C16.8411 23.4994 19.7356 23.99 20.3243 22.5179C20.3243 22.4463 20.2981 22.4533 20.2646 22.4622C20.2524 22.4654 20.2392 22.469 20.2259 22.469C19.3918 22.469 18.1656 22.3218 16.8411 22.0276C16.8411 21.9786 16.743 21.9786 16.743 22.0276Z" fill="#66747B" fill-opacity="0.6"/>
<path d="M10.1699 38.2162C10.2681 37.9713 10.5134 37.8237 10.8076 37.8237C11.1509 37.8237 11.4454 38.118 11.4451 38.4609C11.4451 38.5591 11.4451 38.6573 11.3962 38.7552L8.64885 45.8195C8.55065 46.0645 8.30545 46.2609 8.01085 46.2609C7.71665 46.2609 7.42215 46.0645 7.37315 45.7708L5.99955 41.6986L5.90135 41.3062L5.75415 41.6986L4.13525 45.8195C4.03715 46.0645 3.79185 46.2609 3.49755 46.2609C3.20305 46.2609 2.95775 46.0645 2.85955 45.7708L0.553955 38.8039L0.553253 38.8025C0.504753 38.7053 0.456055 38.6076 0.456055 38.5102C0.456055 38.1173 0.750254 37.8722 1.09375 37.8232H2.66345C2.95795 37.8232 3.20325 38.0195 3.25225 38.2649H3.30116V38.3138L4.23345 41.4043L4.33165 41.748L4.47875 41.4043L5.21465 39.4914L5.01855 38.8044C5.01855 38.7556 5.00635 38.7067 4.99405 38.6577C4.98185 38.6087 4.96955 38.5596 4.96955 38.5106C4.96955 38.118 5.21485 37.8727 5.55835 37.8237H7.12835C7.42255 37.8237 7.66785 38.0201 7.76605 38.2653V38.3143L8.74725 41.4051L8.84515 41.7485L8.94335 41.4051L10.1699 38.2162Z" fill="#66747B" fill-opacity="0.6"/>
<path d="M21.7969 38.2162C21.8946 37.9713 22.1404 37.8237 22.4346 37.8237C22.7779 37.8237 23.0723 38.118 23.0726 38.4609C23.0726 38.5591 23.0726 38.6573 23.0237 38.7552L20.2766 45.8195C20.1787 46.0645 19.9329 46.2609 19.6387 46.2609C19.3446 46.2609 19.0498 46.0645 19.0012 45.7708L17.627 41.6986L17.5291 41.3062L17.382 41.6986L15.7626 45.8195C15.6646 46.0645 15.419 46.2609 15.125 46.2609C14.8305 46.2609 14.585 46.0645 14.4871 45.7708L12.1812 38.8039C12.1322 38.7063 12.083 38.6081 12.083 38.5102C12.083 38.1173 12.3773 37.8722 12.7208 37.8232H14.2907C14.585 37.8232 14.8303 38.0195 14.8793 38.2649L14.9282 38.3138L15.8605 41.4043L15.9584 41.748L16.1058 41.4043L16.8419 39.4914L16.6456 38.8044C16.5966 38.7067 16.5966 38.6086 16.5966 38.5106C16.5966 38.118 16.8419 37.8727 17.1854 37.8237H18.7556C19.0496 37.8237 19.2952 38.0201 19.3931 38.2653V38.3143L20.3745 41.4051L20.4724 41.7485L20.5704 41.4051L21.7969 38.2162Z" fill="#66747B" fill-opacity="0.6"/>
<path d="M24.5434 37.8242H29.9892C30.3329 37.8242 30.6269 38.1187 30.6267 38.4625C30.6267 38.8062 30.3327 39.1001 29.989 39.1001H26.7019V41.0131H28.9588C29.2533 41.0131 29.5473 41.3076 29.5473 41.6511C29.5473 41.9456 29.2526 42.2399 28.9588 42.2399H26.7019V45.6246C26.7019 45.9683 26.4566 46.2134 26.1131 46.2134H24.5925C24.2491 46.2134 24.0038 45.9683 23.9551 45.6246V38.413C23.9551 38.0695 24.1999 37.8242 24.5434 37.8242Z" fill="#66747B" fill-opacity="0.6"/>
<path d="M22.2745 16.1356C22.054 15.6011 21.8411 15.0852 21.5512 14.7663C21.453 14.6681 21.453 14.5699 21.5017 14.4228C22.0905 12.8531 22.9732 11.5774 24.5926 12.5096C26.6038 13.7361 26.6038 17.0721 25.1322 17.857C23.3695 18.7903 22.8002 17.4101 22.2745 16.1356Z" fill="#66747B" fill-opacity="0.6"/>
<path d="M16.7663 15.2721C17.0633 14.869 17.3518 14.4773 17.6756 14.227C17.7248 14.1778 17.7738 14.0796 17.7741 14.0306C17.7741 12.2157 16.8418 10.4985 14.9776 11.3816C12.2795 12.8042 12.4266 15.8459 13.9963 16.6308C15.3354 17.2146 16.0738 16.2122 16.7663 15.2721Z" fill="#66747B" fill-opacity="0.6"/>
<path d="M20.2266 18.9857C21.0115 19.182 21.2568 20.1632 20.2266 20.2611C19.4193 20.3368 19.079 20.646 18.8855 20.8218C18.7026 20.9879 18.6508 21.035 18.4601 20.6535C18.0546 20.113 17.7323 20.0275 17.2646 19.9032C17.2228 19.8921 17.1799 19.8808 17.1356 19.8687C16.4492 19.6723 16.3999 18.6422 17.7246 18.6422C18.5095 18.5932 19.5397 18.7403 20.2266 18.9857Z" fill="#66747B" fill-opacity="0.6"/>
<path d="M29.7438 2.5023C28.6152 1.4229 26.3586 1.0305 25.0831 3.189C24.2983 4.5134 24.4451 5.2496 25.28 5.642C25.8685 5.8383 26.8502 6.6235 27.3403 7.3102C28.4197 8.782 30.0873 7.2609 30.7253 5.9855C31.2157 5.0532 30.9706 3.6796 29.7438 2.5023Z" fill="#66747B" fill-opacity="0.6"/>
<path d="M6.68603 33.2609C6.63673 33.5062 6.44063 33.6536 6.24433 33.6536C5.90093 33.6536 5.65553 33.3594 5.65553 33.0156C5.65553 32.6722 5.85193 32.3782 6.19533 32.3782C6.44063 32.3782 6.63673 32.5253 6.68603 32.7216H6.93133C6.88213 32.3292 6.58783 32.1328 6.19533 32.1328C5.70483 32.1328 5.36133 32.5253 5.36133 33.0156C5.36133 33.5062 5.70483 33.8987 6.24433 33.8987C6.58783 33.8987 6.83313 33.6536 6.93133 33.2609H6.68603Z" fill="#66747B" fill-opacity="0.6"/>
<path fill-rule="evenodd" clip-rule="evenodd" d="M6.19579 31.2998C5.21459 31.2998 4.42969 32.036 4.42969 33.0167C4.42969 33.9492 5.21459 34.7336 6.19579 34.7336C7.12809 34.7336 7.91269 33.9487 7.91269 33.0167C7.91269 32.0357 7.12779 31.2998 6.19579 31.2998ZM7.61839 33.0169C7.61809 33.3942 7.46809 33.7558 7.20139 34.0226C6.93469 34.2893 6.57299 34.4394 6.19579 34.4398C5.36179 34.4398 4.72399 33.8018 4.72399 33.0169C4.72399 32.2318 5.36179 31.5454 6.19579 31.5454C6.98069 31.5452 7.61839 32.2318 7.61839 33.0169Z" fill="#66747B" fill-opacity="0.6"/>
<path fill-rule="evenodd" clip-rule="evenodd" d="M28.8607 35.3715H28.6156L28.6151 36.1077H28.3701V34.4395H28.9588C29.3513 34.4395 29.5474 34.5864 29.5474 34.9299C29.5474 35.2241 29.3513 35.3223 29.106 35.3715L29.5963 36.1077H29.3025L28.8607 35.3715ZM28.6156 34.6848V35.1754H28.9099C29.106 35.1754 29.3025 35.1754 29.3025 34.8814C29.3025 34.6848 29.106 34.6848 28.9099 34.6848H28.6156Z" fill="#66747B" fill-opacity="0.6"/>
<path fill-rule="evenodd" clip-rule="evenodd" d="M28.9099 33.5557C27.9284 33.5557 27.1436 34.2918 27.1436 35.2728C27.1436 36.2051 27.9284 36.9896 28.9099 36.9896C29.8421 36.9896 30.6268 36.2045 30.6268 35.2728C30.6268 34.2916 29.8419 33.5557 28.9099 33.5557ZM30.3327 35.2728C30.3325 35.6501 30.1825 36.0118 29.9157 36.2786C29.6489 36.5454 29.2872 36.6954 28.9099 36.6956C28.0758 36.6956 27.4383 36.0579 27.4383 35.2728C27.4383 34.4874 28.0758 33.8007 28.9099 33.8007C29.6945 33.8007 30.3327 34.4877 30.3327 35.2728Z" fill="#66747B" fill-opacity="0.6"/>
</svg>
