<svg width="25" height="21" viewBox="0 0 25 21" fill="none" xmlns="http://www.w3.org/2000/svg">
<path d="M2.8125 2.375C2.26562 2.375 1.875 2.80469 1.875 3.3125V10.1875C1.875 10.7344 2.26562 11.125 2.8125 11.125H4.6875C5.19531 11.125 5.625 11.5547 5.625 12.0625V12.8438L7.89062 11.2812C8.04688 11.2031 8.24219 11.125 8.4375 11.125H13.4375C13.9453 11.125 14.375 10.7344 14.375 10.1875V3.3125C14.375 2.80469 13.9453 2.375 13.4375 2.375H2.8125ZM0 3.3125C0 1.78906 1.25 0.5 2.8125 0.5H13.4375C14.9609 0.5 16.25 1.78906 16.25 3.3125V10.1875C16.25 11.75 14.9609 13 13.4375 13H8.71094L5.19531 15.3438C4.88281 15.5391 4.53125 15.5781 4.21875 15.4219C3.90625 15.2266 3.75 14.9141 3.75 14.5625V13H2.8125C1.25 13 0 11.75 0 10.1875V3.3125ZM10 14.25H11.875V15.1875C11.875 15.7344 12.2656 16.125 12.8125 16.125H16.5625C16.7188 16.125 16.9141 16.2031 17.0703 16.2812L19.375 17.8438V17.0625C19.375 16.5547 19.7656 16.125 20.3125 16.125H22.1875C22.6953 16.125 23.125 15.7344 23.125 15.1875V8.3125C23.125 7.80469 22.6953 7.375 22.1875 7.375H17.5V5.5H22.1875C23.7109 5.5 25 6.78906 25 8.3125V15.1875C25 16.75 23.7109 18 22.1875 18H21.25V19.5625C21.25 19.9141 21.0547 20.2266 20.7422 20.4219C20.4297 20.5781 20.0781 20.5391 19.7656 20.3438L16.25 18H12.8125C11.25 18 10 16.75 10 15.1875V14.25ZM5.74219 4.28906C5.97656 3.66406 6.5625 3.27344 7.1875 3.27344H8.78906C9.72656 3.27344 10.5078 4.01562 10.5078 4.99219C10.5078 5.57812 10.1562 6.16406 9.64844 6.4375L8.75 6.98438C8.75 7.33594 8.4375 7.60938 8.125 7.60938C7.77344 7.60938 7.5 7.33594 7.5 6.98438V6.63281C7.5 6.39844 7.61719 6.20312 7.8125 6.08594L9.02344 5.38281C9.17969 5.30469 9.25781 5.14844 9.25781 4.99219C9.25781 4.71875 9.0625 4.52344 8.78906 4.52344H7.1875C7.07031 4.52344 6.99219 4.60156 6.95312 4.67969L6.91406 4.71875C6.79688 5.03125 6.44531 5.22656 6.13281 5.10938C5.82031 4.99219 5.625 4.64062 5.74219 4.28906ZM7.22656 9.40625C7.1875 9.09375 7.34375 8.78125 7.65625 8.625C7.92969 8.42969 8.28125 8.42969 8.55469 8.625C8.82812 8.78125 9.02344 9.09375 8.98438 9.40625C9.02344 9.75781 8.82812 10.0703 8.55469 10.2266C8.28125 10.4219 7.92969 10.4219 7.65625 10.2266C7.34375 10.0703 7.1875 9.75781 7.22656 9.40625Z" fill="#63C1A0"/>
</svg>
