<svg width="40" height="40" viewBox="0 0 40 40" fill="none" xmlns="http://www.w3.org/2000/svg">
<rect x="1" y="1" width="38" height="38" rx="19" fill="white"/>
<rect x="1" y="1" width="38" height="38" rx="19" stroke="#2A95D5" stroke-width="2"/>
<path d="M29 18V28.625C29 29.6797 28.1406 30.5 27.125 30.5H13.375C12.3203 30.5 11.5 29.6797 11.5 28.625V18H29ZM24.3516 22.4141H24.3125C24.7031 22.0625 24.7031 21.4766 24.3125 21.125C23.9609 20.7344 23.375 20.7344 23.0234 21.125L19.3125 24.8359L17.4766 23C17.0859 22.6094 16.5 22.6094 16.1484 23C15.7578 23.3516 15.7578 23.9375 16.1484 24.2891L18.6484 26.7891C19 27.1797 19.5859 27.1797 19.9766 26.7891L24.3516 22.4141Z" fill="#B1D4F5"/>
<path d="M16.5 10.5C17.1641 10.5 17.75 11.0859 17.75 11.75V13H22.75V11.75C22.75 11.0859 23.2969 10.5 24 10.5C24.6641 10.5 25.25 11.0859 25.25 11.75V13H27.125C28.1406 13 29 13.8594 29 14.875V18H11.5V14.875C11.5 13.8594 12.3203 13 13.375 13H15.25V11.75C15.25 11.0859 15.7969 10.5 16.5 10.5ZM24.3516 22.4141L19.9766 26.7891C19.5859 27.1797 19 27.1797 18.6484 26.7891L16.1484 24.2891C15.7578 23.9375 15.7578 23.3516 16.1484 23C16.5 22.6094 17.0859 22.6094 17.4766 23L19.3125 24.8359L23.0234 21.125C23.375 20.7344 23.9609 20.7344 24.3516 21.125C24.7031 21.4766 24.7031 22.0625 24.3516 22.4141Z" fill="#2A95D5"/>
</svg>
