<svg width="303" height="50" viewBox="0 0 303 50" fill="none" xmlns="http://www.w3.org/2000/svg">
<path d="M59.4444 11.3889L57.1428 19.9206H36.746L39.0476 11.3889H59.4444Z" fill="#FDA509"/>
<path d="M22.6587 30.0398L20.3968 38.4922H0L2.30159 30.0001L22.6587 30.0398Z" fill="#63C1A0"/>
<path d="M45.5952 19.9206H36.746L42.1031 0H50.9126L45.5952 19.9206Z" fill="#89D3DF"/>
<path d="M17.3413 49.9999H8.53174L13.8492 30.0396H22.6587L17.3413 49.9999Z" fill="#E01A59"/>
<path d="M27.6587 11.3889L25.3571 19.9206H5L7.2619 11.3889H27.6587Z" fill="#FDA509"/>
<path d="M25.3571 19.9206H16.5476L21.9047 0H30.754L25.3571 19.9206Z" fill="#E01A59"/>
<path d="M37.5 49.9999H28.6904L34.0079 30.0396H42.8571L37.5 49.9999Z" fill="#89D3DF"/>
<path d="M54.4444 30.0398L52.1825 38.4922H31.7856L34.0079 30.0001L54.4444 30.0398Z" fill="#63C1A0"/>
<path d="M40.5555 38.492H11.5873L18.8492 11.3889H47.8571L40.5555 38.492Z" fill="#331433"/>
<path d="M66.2302 13.9682H70.9524V35.3174H66.2302V13.8888V13.9682ZM76.2699 13.9682H86.0715C88.7699 13.9682 90.8334 14.6825 92.3016 16.111C92.9192 16.7677 93.399 17.5414 93.7125 18.3866C94.026 19.2317 94.167 20.1311 94.127 21.0317V21.0714C94.127 22.8174 93.7302 24.246 92.8572 25.3174C92.0008 26.4005 90.8606 27.2248 89.5636 27.6983L94.762 35.3571H89.2858L84.6826 28.492H81.0318V35.3571H76.3493V13.8888L76.2699 13.9682ZM85.7937 24.3253C86.9445 24.3253 87.8175 24.0872 88.4524 23.5317C88.7612 23.2532 89.0035 22.9089 89.1615 22.5243C89.3194 22.1397 89.389 21.7245 89.3651 21.3094V21.2698C89.3651 20.238 89.0477 19.4841 88.4128 18.9682C87.7382 18.4523 86.8255 18.1745 85.6747 18.1745H80.9921V24.3253H85.754H85.7937ZM108.81 35.7142C105.77 35.7486 102.837 34.5954 100.635 32.4999C99.5997 31.4913 98.7835 30.28 98.2373 28.9418C97.6911 27.6036 97.4266 26.1671 97.4604 24.7221V24.6031C97.4334 22.4124 98.0713 20.265 99.2898 18.4443C100.508 16.6235 102.25 15.2151 104.286 14.4047C105.675 13.8491 107.183 13.5317 108.849 13.5317C111.881 13.5183 114.798 14.6853 116.984 16.7856C118.019 17.7943 118.836 19.0055 119.382 20.3438C119.928 21.682 120.193 23.1184 120.159 24.5634V24.6031C120.186 26.7938 119.548 28.9412 118.329 30.7619C117.111 32.5827 115.369 33.9911 113.333 34.8015C111.9 35.4009 110.363 35.7111 108.81 35.7142ZM108.81 31.3491C109.675 31.361 110.535 31.1945 111.333 30.8599C112.132 30.5254 112.853 30.0301 113.452 29.4047C114.627 28.131 115.266 26.4544 115.238 24.7221V24.6031C115.276 22.8381 114.621 21.1285 113.413 19.8412C112.814 19.2124 112.094 18.7122 111.296 18.371C110.497 18.0299 109.638 17.855 108.77 17.8571C107.908 17.8581 107.056 18.0345 106.264 18.3756C105.473 18.7168 104.759 19.2154 104.167 19.8412C102.968 21.1186 102.314 22.8121 102.341 24.5634V24.6031C102.339 26.3616 102.99 28.0584 104.167 29.365C104.762 29.9602 105.437 30.4364 106.23 30.7936C107.024 31.1904 107.897 31.3491 108.849 31.3491H108.81ZM124.365 13.9682H128.73L138.73 27.1428V13.9682H143.333V35.3174H139.365L128.968 21.7063V35.3174H124.325V13.8888L124.365 13.9682Z" fill="#181818"/>
<path d="M25.5992 23.8279V23.8069C25.5992 23.429 25.5327 23.0861 25.3997 22.7783C25.2738 22.4634 25.0884 22.194 24.8435 21.9701C24.6056 21.7462 24.3117 21.5747 23.9618 21.4558C23.6189 21.3298 23.2271 21.2668 22.7863 21.2668H19.7844V28.614H21.4008V26.4099H22.6288C23.0417 26.4099 23.4265 26.3574 23.7834 26.2524C24.1472 26.1405 24.4621 25.976 24.728 25.7591C25.0009 25.5422 25.2143 25.2728 25.3683 24.9509C25.5222 24.629 25.5992 24.2547 25.5992 23.8279ZM23.9618 23.8593C23.9618 24.1742 23.8498 24.4401 23.6259 24.657C23.402 24.867 23.0871 24.9719 22.6813 24.9719H21.4008V22.7258H22.6498C23.0557 22.7258 23.374 22.8202 23.6049 23.0092C23.8429 23.1981 23.9618 23.4745 23.9618 23.8383V23.8593Z" fill="white"/>
<path d="M33.5653 24.9404V24.9194C33.5653 24.4016 33.4708 23.9223 33.2819 23.4815C33.0929 23.0337 32.8235 22.6453 32.4737 22.3164C32.1308 21.9876 31.718 21.7322 31.2352 21.5502C30.7593 21.3613 30.2345 21.2668 29.6608 21.2668H26.7954V28.614H29.6608C30.2345 28.614 30.7593 28.5195 31.2352 28.3306C31.718 28.1417 32.1308 27.8828 32.4737 27.5539C32.8235 27.225 33.0929 26.8367 33.2819 26.3889C33.4708 25.941 33.5653 25.4582 33.5653 24.9404ZM31.8754 24.9614C31.8754 25.2903 31.8194 25.5877 31.7075 25.8536C31.6025 26.1195 31.4521 26.3504 31.2561 26.5463C31.0672 26.7422 30.8363 26.8927 30.5634 26.9976C30.2905 27.1026 29.9896 27.1551 29.6608 27.1551H28.4118V22.7258H29.6608C29.9896 22.7258 30.2905 22.7818 30.5634 22.8937C30.8363 22.9987 31.0672 23.1491 31.2561 23.345C31.4521 23.541 31.6025 23.7754 31.7075 24.0483C31.8194 24.3212 31.8754 24.6185 31.8754 24.9404V24.9614Z" fill="white"/>
<path d="M40.5999 22.7363V21.2668H35.0056V28.614H36.6219V25.7696H40.1276V24.3002H36.6219V22.7363H40.5999Z" fill="white"/>
<path d="M148.214 13.9683H156.23C157.421 13.9683 158.532 14.127 159.524 14.4445C160.516 14.7619 161.349 15.1984 162.064 15.754C162.763 16.3832 163.32 17.155 163.697 18.0174C164.073 18.8799 164.261 19.813 164.246 20.754V20.7937C164.246 21.9842 164.008 22.9762 163.571 23.8492C163.135 24.7222 162.5 25.4365 161.746 26.0318C160.95 26.6314 160.048 27.0756 159.087 27.3413C158.056 27.6588 156.984 27.7778 155.833 27.7778H150.675V35.3175H148.214V14.008V13.9683ZM155.952 25.6349C156.825 25.6349 157.619 25.5159 158.333 25.2778C159.01 25.0814 159.643 24.7582 160.198 24.3254C160.705 23.9149 161.112 23.3941 161.387 22.8026C161.662 22.2112 161.798 21.5649 161.786 20.9127V20.8334C161.786 19.3254 161.31 18.1349 160.238 17.381C159.167 16.627 157.778 16.1905 156.072 16.1905H150.635V25.6349H155.952ZM168.651 13.9683H176.071C177.738 13.9683 179.246 14.2064 180.675 14.7619C182.064 15.3175 183.254 16.0715 184.246 17.0238C185.277 17.9858 186.093 19.1548 186.64 20.4542C187.187 21.7536 187.453 23.154 187.421 24.5635V24.6429C187.442 26.0841 187.172 27.5148 186.627 28.8492C186.083 30.1417 185.271 31.3047 184.246 32.2619C183.212 33.2383 181.999 34.0063 180.675 34.5238C179.246 35.0794 177.738 35.3175 176.071 35.3175H168.651V14.008V13.9683ZM176.071 33.0953C177.421 33.0953 178.611 32.8969 179.722 32.4603C180.751 32.0792 181.689 31.4868 182.475 30.7213C183.261 29.9559 183.878 29.0343 184.286 28.0159C184.708 26.9694 184.924 25.8509 184.921 24.7222V24.6032C184.921 23.4127 184.722 22.3413 184.286 21.3096C183.876 20.2827 183.26 19.3512 182.475 18.5729C181.69 17.7947 180.753 17.1863 179.722 16.7857C178.557 16.3448 177.318 16.1294 176.071 16.1508H171.032V33.0556H176.071V33.0953ZM192.54 13.9683H207.897V16.1905H194.96V23.8096H206.548V25.9921H194.921V35.3175H192.54V13.8889V13.9683Z" fill="#E01A59"/>
<path d="M220.774 24.0774V23.1607C220.774 21.5602 221.429 20.7599 222.738 20.7599C223.029 20.7599 223.298 20.789 223.546 20.8472C223.793 20.8909 224.07 20.9563 224.375 21.0436V19.5813C224.099 19.4795 223.815 19.4067 223.524 19.3631C223.248 19.3194 222.913 19.2976 222.52 19.2976C221.429 19.2976 220.585 19.6177 219.988 20.2579C219.406 20.8981 219.115 21.8366 219.115 23.0734V24.0555H217.566V25.5178H219.115V35.3174H220.796V25.5178H224.353V24.0774H220.774Z" fill="#181818"/>
<path d="M237.349 29.6647C237.349 28.8644 237.203 28.1078 236.912 27.3948C236.621 26.6819 236.214 26.0635 235.69 25.5397C235.166 25.0013 234.54 24.5794 233.813 24.2738C233.1 23.9537 232.322 23.7936 231.478 23.7936C230.619 23.7936 229.826 23.9537 229.099 24.2738C228.386 24.5794 227.767 25.0013 227.244 25.5397C226.72 26.078 226.312 26.711 226.021 27.4385C225.73 28.1514 225.585 28.9081 225.585 29.7083C225.585 30.5086 225.73 31.2652 226.021 31.9782C226.312 32.6911 226.72 33.3168 227.244 33.8551C227.767 34.379 228.386 34.8009 229.099 35.121C229.812 35.4266 230.59 35.5794 231.434 35.5794C232.278 35.5794 233.064 35.4266 233.791 35.121C234.519 34.8009 235.144 34.3717 235.668 33.8333C236.192 33.295 236.599 32.6693 236.89 31.9563C237.196 31.2288 237.349 30.4649 237.349 29.6647ZM235.624 29.7083C235.624 30.3194 235.523 30.8942 235.319 31.4325C235.115 31.9563 234.831 32.4147 234.468 32.8075C234.104 33.2004 233.667 33.5132 233.158 33.746C232.649 33.9643 232.089 34.0734 231.478 34.0734C230.881 34.0734 230.328 33.957 229.819 33.7242C229.31 33.4914 228.866 33.1786 228.488 32.7857C228.124 32.3928 227.833 31.9272 227.615 31.3889C227.411 30.8505 227.309 30.2758 227.309 29.6647C227.309 29.0536 227.411 28.4861 227.615 27.9623C227.818 27.4239 228.095 26.9583 228.444 26.5655C228.808 26.1581 229.244 25.8452 229.753 25.627C230.263 25.3942 230.823 25.2778 231.434 25.2778C232.031 25.2778 232.583 25.3942 233.093 25.627C233.602 25.8598 234.046 26.1799 234.424 26.5873C234.802 26.9801 235.093 27.4458 235.297 27.9841C235.515 28.5225 235.624 29.0972 235.624 29.7083Z" fill="#181818"/>
<path d="M242.074 30.8214C242.074 29.9775 242.19 29.2354 242.423 28.5952C242.656 27.9405 242.976 27.3948 243.383 26.9583C243.79 26.5218 244.263 26.1944 244.802 25.9762C245.355 25.7579 245.937 25.6488 246.548 25.6488H246.679V23.8373C246.14 23.8227 245.638 23.8882 245.173 24.0337C244.707 24.1792 244.278 24.3975 243.885 24.6885C243.492 24.9649 243.143 25.2996 242.837 25.6924C242.532 26.0853 242.277 26.5145 242.074 26.9801V24.0337H240.393V35.3174H242.074V30.8214Z" fill="#181818"/>
<path d="M255.609 35.3174V33.0258H253.601V35.3174H255.609Z" fill="#181818"/>
<path d="M270.671 32.2837L261.046 20.0397H259.431V35.3174H261.112V22.7897L270.977 35.3174H272.352V20.0397H270.671V32.2837Z" fill="#181818"/>
<path d="M287.718 20.0397H276.674V35.3174H287.827V33.746H278.398V28.3988H286.735V26.8274H278.398V21.6111H287.718V20.0397Z" fill="#181818"/>
<path d="M297.079 21.6329H302.208V20.0397H290.204V21.6329H295.333V35.3174H297.079V21.6329Z" fill="#181818"/>
</svg>
