<svg width="54" height="54" viewBox="0 0 54 54" fill="none" xmlns="http://www.w3.org/2000/svg">
<path d="M27.1169 12.9695L27.0172 12.6199L26.8924 12.9693H26.5178L26.8173 13.2191L26.6676 13.5937L27.0173 13.3938L27.3417 13.5937L27.2166 13.1942L27.4916 12.9695H27.1169Z" fill="#66747B" fill-opacity="0.6"/>
<path d="M25.1449 14.1283L25.0452 13.7787L24.9205 14.1281H24.5458L24.8454 14.378L24.6957 14.7525L25.0454 14.5527L25.3697 14.7525L25.2447 14.353L25.5196 14.1283H25.1449Z" fill="#66747B" fill-opacity="0.6"/>
<path d="M26.4596 14.1283L26.3598 13.7787L26.2351 14.1281H25.8604L26.16 14.378L26.0103 14.7525L26.36 14.5527L26.6844 14.7525L26.5593 14.353L26.8342 14.1283H26.4596Z" fill="#66747B" fill-opacity="0.6"/>
<path d="M27.7742 14.1283L27.6745 13.7787L27.5498 14.1281H27.1751L27.4746 14.378L27.325 14.7525L27.6747 14.5527L27.999 14.7525L27.8739 14.353L28.1489 14.1283H27.7742Z" fill="#66747B" fill-opacity="0.6"/>
<path d="M29.0888 14.1283L28.9891 13.7787L28.8644 14.1281H28.4897L28.7893 14.378L28.6396 14.7525L28.9893 14.5527L29.3137 14.7525L29.1886 14.353L29.4635 14.1283H29.0888Z" fill="#66747B" fill-opacity="0.6"/>
<path d="M25.8022 15.2871L25.7025 14.9376L25.5778 15.287H25.2031L25.5027 15.5368L25.353 15.9114L25.7027 15.7115L26.0271 15.9114L25.902 15.5118L26.1769 15.2871H25.8022Z" fill="#66747B" fill-opacity="0.6"/>
<path d="M27.1169 15.2871L27.0172 14.9376L26.8924 15.287H26.5178L26.8173 15.5368L26.6676 15.9114L27.0173 15.7115L27.3417 15.9114L27.2166 15.5118L27.4916 15.2871H27.1169Z" fill="#66747B" fill-opacity="0.6"/>
<path d="M28.4315 15.2871L28.3318 14.9376L28.2071 15.287H27.8324L28.132 15.5368L27.9823 15.9114L28.332 15.7115L28.6563 15.9114L28.5313 15.5118L28.8062 15.2871H28.4315Z" fill="#66747B" fill-opacity="0.6"/>
<path d="M25.1449 16.446L25.0452 16.0964L24.9205 16.4458H24.5458L24.8454 16.6956L24.6957 17.0702L25.0454 16.8703L25.3697 17.0702L25.2447 16.6706L25.5196 16.446H25.1449Z" fill="#66747B" fill-opacity="0.6"/>
<path d="M26.4596 16.446L26.3598 16.0964L26.2351 16.4458H25.8604L26.16 16.6956L26.0103 17.0702L26.36 16.8703L26.6844 17.0702L26.5593 16.6706L26.8342 16.446H26.4596Z" fill="#66747B" fill-opacity="0.6"/>
<path d="M27.7742 16.446L27.6745 16.0964L27.5498 16.4458H27.1751L27.4746 16.6956L27.325 17.0702L27.6747 16.8703L27.999 17.0702L27.8739 16.6706L28.1489 16.446H27.7742Z" fill="#66747B" fill-opacity="0.6"/>
<path d="M29.0888 16.446L28.9891 16.0964L28.8644 16.4458H28.4897L28.7893 16.6956L28.6396 17.0702L28.9893 16.8703L29.3137 17.0702L29.1886 16.6706L29.4635 16.446H29.0888Z" fill="#66747B" fill-opacity="0.6"/>
<path d="M27.1169 17.6048L27.0172 17.2552L26.8924 17.6046H26.5178L26.8173 17.8545L26.6676 18.229L27.0173 18.0292L27.3417 18.229L27.2166 17.8295L27.4916 17.6048H27.1169Z" fill="#66747B" fill-opacity="0.6"/>
<path fill-rule="evenodd" clip-rule="evenodd" d="M25.3107 20.0065C24.9705 19.9306 24.6929 19.7261 24.5169 19.456C24.3475 19.437 24.179 19.3837 24.0218 19.2932C23.7223 19.1208 23.5191 18.8461 23.4304 18.539C23.277 18.4709 23.1345 18.3713 23.013 18.2407C22.7704 17.9798 22.6578 17.6453 22.6714 17.316C22.5364 17.2011 22.4232 17.0561 22.343 16.8851C22.1843 16.5464 22.1867 16.174 22.3186 15.8538C22.2135 15.6915 22.1436 15.5028 22.1212 15.2973C22.0808 14.927 22.2025 14.5768 22.4292 14.3168C22.383 14.1305 22.378 13.9308 22.4227 13.7305C22.4986 13.3903 22.7031 13.1126 22.9732 12.9366C22.9922 12.7672 23.0455 12.5988 23.136 12.4416C23.3084 12.1421 23.5831 11.9389 23.8903 11.8502C23.9584 11.6968 24.0579 11.5543 24.1886 11.4328C24.4494 11.1903 24.7839 11.0776 25.1131 11.0912C25.2281 10.9563 25.3731 10.843 25.5441 10.7629C25.8828 10.6041 26.2551 10.6065 26.5754 10.7384C26.7376 10.6333 26.9264 10.5634 27.1319 10.541C27.5022 10.5006 27.8524 10.6223 28.1124 10.849C28.2986 10.8028 28.4984 10.7978 28.6986 10.8425C29.0389 10.9184 29.3165 11.1229 29.4925 11.393C29.6619 11.412 29.8304 11.4653 29.9875 11.5558C30.2871 11.7282 30.4903 12.003 30.579 12.3101C30.7323 12.3782 30.8749 12.4778 30.9964 12.6084C31.2389 12.8692 31.3516 13.2037 31.338 13.5329C31.4729 13.6479 31.5862 13.7929 31.6663 13.9639C31.8251 14.3026 31.8227 14.675 31.6907 14.9952C31.7958 15.1575 31.8657 15.3462 31.8881 15.5517C31.9285 15.922 31.8069 16.2722 31.5802 16.5321C31.6264 16.7184 31.6314 16.9181 31.5867 17.1184C31.5108 17.4586 31.3063 17.7363 31.0362 17.9123C31.0171 18.0817 30.9638 18.2502 30.8734 18.4074C30.701 18.7069 30.4262 18.9101 30.1191 18.9988C30.051 19.1522 29.9514 19.2947 29.8208 19.4162C29.56 19.6587 29.2255 19.7714 28.8962 19.7578C28.7813 19.8927 28.6363 20.006 28.4653 20.0861C28.1266 20.2449 27.7542 20.2425 27.4339 20.1106C27.2717 20.2156 27.083 20.2855 26.8775 20.3079C26.5071 20.3483 26.157 20.2267 25.897 20C25.7107 20.0462 25.511 20.0512 25.3107 20.0065ZM25.5262 19.4476C25.7352 19.467 25.9361 19.3901 26.0786 19.2489C26.1425 19.4468 26.2916 19.6025 26.4788 19.6783C26.5816 19.7199 26.6959 19.7374 26.8139 19.7245C26.8457 19.7211 26.8768 19.7155 26.907 19.708C27.1105 19.6574 27.275 19.5185 27.3629 19.3379C27.4862 19.5057 27.6769 19.6063 27.8784 19.6191C27.991 19.6263 28.1069 19.606 28.2162 19.5548C28.2797 19.525 28.3366 19.4869 28.3861 19.4423C28.4945 19.3449 28.5679 19.2166 28.599 19.0778C28.7241 19.1508 28.8677 19.1817 29.0087 19.1696C29.1575 19.1568 29.3033 19.0961 29.4212 18.9864C29.4971 18.9159 29.5537 18.8323 29.5906 18.7423C29.6286 18.6498 29.6458 18.5506 29.6421 18.4519C29.7402 18.4693 29.84 18.4651 29.9347 18.4409C30.1099 18.3963 30.2675 18.2837 30.3648 18.1147C30.4119 18.0328 30.4404 17.9454 30.4517 17.8572C30.466 17.7458 30.4528 17.6332 30.4147 17.5292C30.526 17.5167 30.6314 17.4772 30.7225 17.4163C30.8656 17.3206 30.9735 17.1719 31.0139 16.9906C31.0205 16.9614 31.025 16.9321 31.0278 16.903C31.0472 16.694 30.9703 16.493 30.8291 16.3506C31.027 16.2866 31.1827 16.1375 31.2585 15.9503C31.3001 15.8475 31.3176 15.7332 31.3047 15.6153C31.3013 15.5835 31.2957 15.5524 31.2882 15.5222C31.2376 15.3186 31.0987 15.1541 30.9181 15.0662C31.0859 14.943 31.1865 14.7522 31.1993 14.5508C31.2065 14.4382 31.1862 14.3223 31.135 14.2129C31.1052 14.1495 31.0671 14.0926 31.0225 14.043C30.925 13.9347 30.7968 13.8613 30.658 13.8302C30.731 13.705 30.7619 13.5614 30.7498 13.4205C30.737 13.2717 30.6762 13.1259 30.5666 13.008C30.496 12.9321 30.4124 12.8755 30.3225 12.8386C30.23 12.8006 30.1308 12.7834 30.0321 12.7871C30.0495 12.689 30.0453 12.5892 30.0211 12.4945C29.9765 12.3194 29.8639 12.1617 29.6948 12.0644C29.613 12.0173 29.5256 11.9888 29.4375 11.9775C29.326 11.9631 29.2134 11.9764 29.1094 12.0145C29.0969 11.9032 29.0575 11.7978 28.9965 11.7067C28.9009 11.5636 28.7521 11.4557 28.5709 11.4152C28.5416 11.4087 28.5123 11.4041 28.4832 11.4014C28.2742 11.382 28.0732 11.4589 27.9308 11.6C27.8668 11.4022 27.7177 11.2465 27.5306 11.1707C27.4277 11.129 27.3135 11.1115 27.1955 11.1244C27.1637 11.1279 27.1326 11.1334 27.1023 11.141C26.8988 11.1916 26.7343 11.3305 26.6464 11.511C26.5232 11.3432 26.3324 11.2427 26.1309 11.2299C26.0184 11.2227 25.9025 11.243 25.7931 11.2942C25.7297 11.324 25.6728 11.3621 25.6233 11.4066C25.5149 11.5041 25.4415 11.6324 25.4104 11.7712C25.2852 11.6981 25.1416 11.6673 25.0007 11.6794C24.8519 11.6922 24.706 11.753 24.5882 11.8626C24.5122 11.9332 24.4557 12.0168 24.4187 12.1068C24.3808 12.1992 24.3635 12.2984 24.3673 12.3971C24.2691 12.3797 24.1694 12.3839 24.0747 12.4081C23.8995 12.4527 23.7419 12.5653 23.6446 12.7343C23.5975 12.8162 23.569 12.9037 23.5576 12.9918C23.5433 13.1032 23.5566 13.2158 23.5947 13.3197C23.4834 13.3323 23.3781 13.3717 23.2869 13.4326C23.1438 13.5282 23.0359 13.677 22.9954 13.8583C22.9889 13.8876 22.9843 13.9169 22.9816 13.946C22.9622 14.155 23.0391 14.3559 23.1803 14.4984C22.9824 14.5623 22.8267 14.7114 22.7509 14.8986C22.7093 15.0014 22.6917 15.1157 22.7046 15.2337C22.7081 15.2655 22.7136 15.2966 22.7212 15.3268C22.7718 15.5304 22.9107 15.6949 23.0912 15.7827C22.9234 15.906 22.8229 16.0968 22.8101 16.2982C22.8029 16.4108 22.8232 16.5267 22.8744 16.636C22.9041 16.6995 22.9422 16.7563 22.9868 16.8058C23.0842 16.9142 23.2126 16.9877 23.3514 17.0188C23.2783 17.144 23.2475 17.2876 23.2596 17.4286C23.2724 17.5774 23.3332 17.7232 23.4427 17.8411C23.5134 17.917 23.597 17.9736 23.687 18.0105C23.7795 18.0484 23.8786 18.0657 23.9773 18.062C23.9599 18.1601 23.9641 18.2598 23.9882 18.3544C24.0329 18.5296 24.1455 18.6873 24.3145 18.7846C24.3964 18.8317 24.4839 18.8602 24.572 18.8716C24.6835 18.8858 24.796 18.8726 24.8999 18.8345C24.9125 18.9457 24.9519 19.0511 25.0128 19.1422C25.1085 19.2853 25.2572 19.3933 25.4385 19.4337C25.4678 19.4403 25.4971 19.4448 25.5262 19.4476Z" fill="#66747B" fill-opacity="0.6"/>
<path d="M36.0701 15.8563C36.0701 15.7039 36.2381 15.5275 36.441 15.4667C36.6396 15.4073 36.6737 15.4085 36.7696 15.4787C36.8218 15.5168 36.8605 15.6201 36.8694 15.745C36.8836 15.9441 37.0892 16.2928 37.1924 16.2928C37.2178 16.2928 37.2386 16.3353 37.2386 16.3873C37.2386 16.4393 37.2605 16.4953 37.2873 16.5119C37.3141 16.5284 37.336 16.6403 37.336 16.7604C37.336 17.0331 37.2281 17.1508 36.7758 17.3713C36.4295 17.5402 36.3605 17.6203 36.4513 17.7479C36.5701 17.9148 36.703 18.1916 36.703 18.2719C36.703 18.3966 36.5035 18.6651 36.3631 18.7294C36.2956 18.7603 36.0323 18.8632 35.7779 18.9582C35.5235 19.0532 35.3044 19.1444 35.291 19.1608C35.2776 19.1772 35.0914 19.2663 34.8771 19.3588C34.5013 19.521 33.4016 20.0862 33.0513 20.2972C32.5969 20.5708 31.7855 21.1209 31.7511 21.1788C31.7297 21.2145 31.6528 21.2822 31.5802 21.329C31.4312 21.425 31.1036 21.8927 31.1036 22.0095C31.1036 22.0515 31.2154 22.2094 31.3521 22.3603C31.8027 22.8578 31.8344 23.0919 31.5332 23.6981C31.282 24.2036 31.2532 24.4566 31.3882 24.969C31.5577 25.6124 31.3922 25.8606 30.8005 25.8503C30.5149 25.8454 29.8905 25.6457 29.7318 25.5086C29.6833 25.4667 29.6276 25.297 29.5943 25.0894C29.5635 24.8975 29.5263 24.6983 29.5116 24.6468C29.4939 24.5845 29.5822 24.6377 29.7746 24.805C29.934 24.9436 30.0901 25.057 30.1215 25.057C30.1528 25.057 30.1785 25.0763 30.1785 25.0998C30.1785 25.1722 30.45 25.2597 30.6231 25.2431C30.8485 25.2216 30.8611 25.0754 30.6651 24.7568C30.448 24.404 30.4206 24.3115 30.4748 24.1153C30.5229 23.9409 30.7892 23.5213 30.9602 23.3503C31.1304 23.1801 31.0833 23.0335 30.7993 22.849C30.1705 22.4407 29.9624 22.0353 30.1639 21.6108C30.2467 21.4362 30.7318 20.9286 31.0856 20.6463C31.5051 20.3115 32.1452 19.8335 32.3839 19.6768C32.5233 19.5852 32.6922 19.4661 32.7591 19.412C32.8261 19.358 32.8969 19.3132 32.9165 19.3126C32.9361 19.3121 33.1004 19.2204 33.2817 19.109C33.8971 18.7307 34.763 18.3246 35.2864 18.169C35.487 18.1093 35.659 18.0373 35.6685 18.0088C35.678 17.9804 35.6027 17.8949 35.5012 17.8188C34.8647 17.3415 34.8865 17.2293 35.6562 17.0205C35.8704 16.9624 36.0676 16.8993 36.0944 16.8804C36.1212 16.8614 36.2362 16.8165 36.35 16.7807C36.4638 16.7448 36.557 16.6987 36.557 16.6783C36.557 16.6578 36.5051 16.5791 36.4416 16.5035C36.209 16.2258 36.0701 15.9838 36.0701 15.8563Z" fill="#66747B" fill-opacity="0.6"/>
<path d="M16.2389 16.0385C16.082 16.1354 16.0347 16.2691 16.0974 16.4387C16.1342 16.5379 16.1083 16.6068 15.9442 16.8473C15.7217 17.1732 15.6934 17.3708 15.8411 17.5668C15.9474 17.7076 16.3383 17.9001 16.7687 18.0235C17.1384 18.1296 17.2039 18.1792 17.1121 18.2839C17.0005 18.4111 16.8374 18.7638 16.8374 18.8778C16.8374 19.0732 17.0211 19.2948 17.2728 19.4031C17.4048 19.4599 17.5258 19.5063 17.5418 19.5063C17.5578 19.5063 17.6523 19.5427 17.7519 19.5872C17.8515 19.6316 17.9439 19.6718 17.9573 19.6766C17.9707 19.6813 18.0145 19.6992 18.0546 19.7162C18.0948 19.7333 18.3249 19.822 18.5659 19.9133C19.3027 20.1924 19.9979 20.5494 20.8592 21.0907C21.7336 21.6404 22.1783 22.022 22.3447 22.3656C22.4733 22.6314 22.4436 22.7169 22.0878 23.1056C21.7894 23.4313 21.707 23.6063 21.7896 23.7378C21.8164 23.7805 21.9779 23.9151 22.1484 24.0369C22.4293 24.2375 22.4683 24.2872 22.564 24.565C22.6768 24.8926 22.9577 25.234 23.1552 25.2836C23.3084 25.322 23.5585 25.1207 23.801 24.7636C23.9089 24.6047 24.0094 24.4428 24.0243 24.4039C24.0393 24.365 24.0017 24.1674 23.9408 23.9648C23.8181 23.5561 23.7499 23.5123 23.5565 23.7182C23.4631 23.8176 23.4367 23.9116 23.4136 24.2259C23.3832 24.639 23.3601 24.6959 23.2415 24.6504C23.1485 24.6147 23.0697 24.4188 23.0697 24.2229C23.0697 24.0454 23.0021 23.91 22.8187 23.7207C22.7198 23.6187 22.6886 23.5485 22.7107 23.4773C22.7663 23.2979 22.9281 23.1093 23.196 22.9113C23.3405 22.8046 23.4946 22.6626 23.5383 22.5958C23.6533 22.4202 23.6056 22.0865 23.4401 21.9093C23.3688 21.8329 23.264 21.7047 23.2071 21.6244C23.0283 21.3716 21.6786 20.2923 21.3412 20.1322C21.2341 20.0813 21.0698 19.9967 20.9761 19.9442C20.7617 19.8239 18.4737 18.7188 18.2651 18.6347C18.0288 18.5394 18.0247 18.4458 18.2484 18.2543C18.3561 18.1621 18.4442 18.0469 18.4442 17.9982C18.4442 17.863 18.1426 17.6278 17.8521 17.5363C17.7091 17.4912 17.5483 17.4357 17.4947 17.4129C17.4411 17.3902 17.3316 17.3572 17.2513 17.3397C17.0266 17.2906 16.7887 17.1651 16.7887 17.0956C16.7887 17.0612 16.8432 16.9377 16.9098 16.8212C17.056 16.5655 17.0733 16.2461 16.9469 16.1368C16.8522 16.0549 16.5732 15.9513 16.4528 15.9533C16.4099 15.9539 16.3137 15.9923 16.2389 16.0385Z" fill="#66747B" fill-opacity="0.6"/>
<path d="M12.8135 20.2129C12.8293 20.1718 12.9324 20.1374 13.0735 20.126C13.6241 20.0818 14.8936 20.2584 15.255 20.4295C15.3085 20.4549 15.5824 20.5613 15.8636 20.666C16.1448 20.7707 16.6268 20.9911 16.9348 21.1559C17.2427 21.3207 17.5276 21.4705 17.5677 21.4889C17.6971 21.5482 18.8882 22.3376 19.1015 22.5054C19.1818 22.5687 19.39 22.7311 19.564 22.8666C19.9811 23.1909 20.8695 24.0691 21.2134 24.497C21.5648 24.9341 21.7064 25.2148 21.7064 25.474C21.7064 25.7106 21.5435 26.2788 21.414 26.4934C21.2742 26.7253 21.0792 27.2387 21.0175 27.5378C20.941 27.9077 21.0552 28.2853 21.337 28.5943C21.5962 28.8785 21.8328 28.9392 22.2576 28.8303C22.4211 28.7885 22.5717 28.7276 22.5924 28.695C22.6131 28.6624 22.6304 28.6566 22.6308 28.682C22.6312 28.7074 22.6578 28.702 22.69 28.6698C22.7221 28.6377 22.7659 28.6114 22.7873 28.6114C22.8088 28.6114 22.8263 29.5059 22.8263 30.5991C22.8263 32.3243 22.8156 32.6183 22.7453 32.8266C22.6388 33.1419 22.4545 33.4318 22.3604 33.4318C22.269 33.4318 22.0694 33.0047 22.022 32.7081L21.9881 32.4956L21.7134 32.7616C21.274 33.1869 20.9312 33.3468 20.8596 33.16C20.8433 33.1176 20.83 32.8766 20.83 32.6244C20.83 32.3722 20.8111 32.1658 20.7879 32.1658C20.7647 32.1658 20.6868 32.2122 20.6148 32.2688C20.4479 32.4001 19.8802 32.6016 19.6736 32.603C19.522 32.604 19.5154 32.5961 19.5154 32.4144C19.5154 32.1943 19.6832 31.6191 19.7991 31.4423C19.8057 31.4322 19.812 31.4229 19.8179 31.4142C19.8411 31.3798 19.8568 31.3565 19.8509 31.3471C19.8392 31.3285 19.7445 31.3621 19.463 31.4619L19.3449 31.5038C18.7061 31.7296 18.1992 31.7579 18.2014 31.5677C18.2023 31.4915 18.6569 30.572 18.7711 30.4154C18.8559 30.299 18.8556 30.297 18.7607 30.3342C18.2627 30.5294 17.6998 30.6769 17.446 30.6787C17.1782 30.6806 17.1526 30.6715 17.1381 30.5697C17.1213 30.4508 17.4495 29.7668 17.6551 29.4921L17.7795 29.3259L17.6615 29.3607C17.3919 29.4401 16.6565 29.584 16.5209 29.5839C16.4406 29.5838 16.3448 29.5647 16.3082 29.5415C16.1941 29.4692 16.3669 29.0698 16.716 28.5987C16.8899 28.364 17.0321 28.1668 17.032 28.1604C17.032 28.1541 16.7854 28.1464 16.4842 28.1434C15.8818 28.1373 15.5713 28.053 15.5716 27.8957C15.5719 27.7531 15.7592 27.4871 16.0829 27.1696L16.3864 26.8719L15.8901 26.8466C15.112 26.8069 14.9036 26.6409 15.1625 26.2672C15.315 26.047 15.6959 25.6905 15.9805 25.5014L16.1704 25.3752L15.8344 25.3203C15.4099 25.251 14.8685 25.0774 14.7702 24.9792C14.5726 24.7815 14.7602 24.5883 15.5315 24.1955L16.1001 23.9057L15.7262 23.8297C15.2481 23.7324 14.5306 23.5164 14.3072 23.4024C14.1027 23.2981 13.8673 23.0741 13.8673 22.9838C13.8673 22.7877 14.5587 22.5931 15.7419 22.4562C16.1184 22.4127 16.1976 22.3916 16.0909 22.3632C16.0151 22.343 15.7956 22.2538 15.6032 22.1649C15.4107 22.076 15.1989 21.9863 15.1324 21.9655C14.7281 21.8392 13.4708 21.1046 13.1126 20.7853C12.975 20.6627 12.7824 20.294 12.8135 20.2129Z" fill="#66747B" fill-opacity="0.6"/>
<path d="M39.8922 20.1401C39.3492 20.188 38.7443 20.3139 38.4802 20.4338C38.4267 20.4581 38.173 20.5528 37.9165 20.6443C37.3625 20.842 36.5169 21.2638 35.8863 21.657C35.636 21.8131 35.4117 21.9409 35.3879 21.9409C35.364 21.9409 35.327 21.9683 35.3056 22.0019C35.2842 22.0354 35.1352 22.1486 34.9745 22.2534C33.9969 22.8912 32.8071 24.0293 32.223 24.8853C31.9237 25.3239 31.967 25.7864 32.3914 26.6838C32.661 27.254 32.7237 27.4547 32.7264 27.7566C32.7302 28.1537 32.4514 28.6439 32.1285 28.8081C31.9342 28.9069 31.5475 28.8808 31.215 28.7464C31.0485 28.6792 30.9007 28.6359 30.8863 28.6502C30.8719 28.6646 30.8602 29.5626 30.8602 30.6458V32.6153L31.023 32.9626C31.1125 33.1537 31.2246 33.3423 31.2722 33.3817C31.3503 33.4463 31.3697 33.4394 31.4736 33.309C31.5369 33.2296 31.6268 33.0166 31.6734 32.8356L31.7582 32.5065L32.0517 32.7936C32.4908 33.2231 32.8137 33.3541 32.8745 33.1274C32.8906 33.0672 32.9042 32.8262 32.9045 32.5919C32.9049 32.3576 32.9147 32.1658 32.9263 32.1658C32.9379 32.1658 33.053 32.231 33.1819 32.3107C33.4505 32.4767 34.0119 32.6382 34.144 32.5875C34.2671 32.5402 34.2241 32.2041 34.0334 31.7257C33.9539 31.5259 33.907 31.3556 33.9292 31.3473C33.9515 31.339 34.0398 31.3684 34.1254 31.4126C34.4347 31.5726 35.2623 31.7542 35.4149 31.6957C35.4539 31.6807 35.4852 31.6216 35.4846 31.5641C35.4829 31.4052 35.2768 30.9375 35.0737 30.6315C34.9737 30.4809 34.8995 30.3504 34.9088 30.3417C34.9182 30.3329 35.1559 30.4029 35.4371 30.4973C35.7183 30.5918 36.0853 30.6801 36.2526 30.6937L36.557 30.7184L36.5565 30.5535C36.5559 30.3553 36.373 29.9474 36.1377 29.62C36.0433 29.4885 35.973 29.3744 35.9815 29.3665C35.9901 29.3585 36.2271 29.4042 36.5083 29.4681C37.0806 29.598 37.3487 29.6145 37.4228 29.5244C37.5091 29.4193 37.3463 29.0532 37.0143 28.6058C36.8431 28.3751 36.703 28.174 36.703 28.1589C36.703 28.1439 36.818 28.1431 36.9587 28.1573C37.2554 28.1872 37.9548 28.0995 38.0499 28.0206C38.2158 27.8829 38.063 27.5697 37.6237 27.1464L37.3393 26.8724L37.8496 26.8463C38.3065 26.823 38.3779 26.8066 38.5309 26.69L38.7017 26.5597L38.5691 26.316C38.4962 26.182 38.3258 25.9819 38.1906 25.8712C38.0553 25.7607 37.9042 25.6294 37.8548 25.5797C37.8053 25.53 37.7067 25.4651 37.6356 25.4356C37.5143 25.3853 37.5235 25.3796 37.7872 25.3429C37.9417 25.3214 38.1608 25.2727 38.2741 25.2347C38.3875 25.1968 38.5504 25.1507 38.6362 25.1324C38.8187 25.0933 39.0402 24.9322 39.0402 24.8385C39.0402 24.6778 38.5019 24.3216 37.7394 23.9775L37.5829 23.9069L37.9585 23.8442C38.1651 23.8097 38.3561 23.7653 38.3828 23.7456C38.4096 23.7259 38.5849 23.6703 38.7724 23.622C39.2355 23.5028 39.595 23.3289 39.7439 23.1519C39.8121 23.0709 39.8679 22.9848 39.8679 22.9607C39.8679 22.7901 39.0589 22.5864 37.7742 22.4337C37.5391 22.4058 37.523 22.3974 37.6426 22.3647C37.7174 22.3442 37.9644 22.2404 38.1912 22.1341C38.4182 22.0278 38.6218 21.9409 38.6438 21.9409C38.7451 21.9409 39.9762 21.2682 40.2713 21.0517C40.7058 20.7328 41.058 20.2225 40.8816 20.1675C40.7335 20.1212 40.2554 20.1081 39.8922 20.1401Z" fill="#66747B" fill-opacity="0.6"/>
<path d="M26.386 22.9554C26.3429 22.951 26.4282 22.9314 26.5754 22.9117C27.0282 22.8514 27.4507 22.8965 27.5815 23.0194C27.7302 23.1592 27.7279 23.2304 27.5776 23.132C27.479 23.0673 27.4436 23.0651 27.3585 23.1182C27.3027 23.153 27.2571 23.1982 27.2571 23.2185C27.2571 23.3016 26.995 23.2465 26.7381 23.1094C26.5875 23.0291 26.4291 22.9598 26.386 22.9554Z" fill="#66747B" fill-opacity="0.6"/>
<path fill-rule="evenodd" clip-rule="evenodd" d="M26.1129 22.214C25.8276 22.2882 25.6835 22.3494 25.5639 22.447C25.4909 22.5066 25.2888 22.5936 25.1147 22.6403C24.6787 22.7575 24.4793 22.9001 24.3422 23.193L24.2281 23.4366L24.3371 23.7355C24.397 23.9 24.4582 24.0345 24.473 24.0345C24.4878 24.0345 24.5519 23.9856 24.6156 23.9258C24.7912 23.7608 25.3485 23.7423 25.6919 23.89C26.1202 24.0743 26.3262 24.3955 26.2178 24.7101C26.1257 24.9774 25.9006 25.2369 25.3399 25.7218C24.4453 26.4954 23.3132 27.6474 23.3132 27.784C23.3132 27.8156 24.5467 27.8324 26.8709 27.8324H30.4286L30.3953 27.7228C30.3771 27.6625 30.3165 27.5366 30.2607 27.4429C30.1234 27.2122 29.5844 26.5027 29.5105 26.4553C29.4316 26.4046 29.2671 25.8631 29.1815 25.372C29.1309 25.0817 29.1204 24.7643 29.1421 24.1793C29.1702 23.4255 29.1779 23.3766 29.2856 23.2768C29.3985 23.1722 29.3987 23.1702 29.3068 23.0534C29.1602 22.867 28.2989 22.4428 27.8379 22.3299C27.4377 22.232 26.33 22.1575 26.1129 22.214ZM27.744 22.5516C28.1279 22.6389 28.4915 22.8 28.7512 22.998C28.9053 23.1155 28.9062 23.1185 28.8817 23.4658C28.8682 23.6581 28.8243 24.1192 28.7841 24.4904C28.7055 25.2172 28.7231 25.4596 28.8763 25.7618C29.0119 26.0293 29.1612 26.5707 29.1281 26.675C29.0626 26.8815 28.7019 26.7019 28.1962 26.211L27.9423 25.9646L27.8343 26.1073C27.6349 26.3709 27.2613 26.7096 27.135 26.7413C26.9145 26.7966 26.7226 26.5062 26.7218 26.116C26.7214 25.9431 26.6739 25.9473 26.393 26.145C26.0807 26.3648 25.7945 26.469 25.5033 26.469C25.307 26.469 25.2608 26.4532 25.2608 26.3858C25.2608 26.34 25.5327 26.0335 25.8649 25.7046C26.5048 25.0712 26.6728 24.8188 26.6728 24.4913C26.6728 24.2328 26.4643 23.9523 26.0825 23.6974C25.6335 23.3976 25.2559 23.3295 24.8476 23.4749C24.6195 23.5562 24.5571 23.5154 24.6014 23.3141C24.6482 23.1005 24.7611 23.0238 25.1893 22.9143C25.444 22.8491 25.6182 22.773 25.7069 22.688C25.9128 22.4907 26.2268 22.4244 26.8432 22.448C27.1378 22.4593 27.5432 22.5059 27.744 22.5516Z" fill="#66747B" fill-opacity="0.6"/>
<path d="M11.4322 29.7778C11.328 29.3432 11.4534 28.5845 11.7277 27.9908C11.8298 27.7698 11.9336 27.5889 11.9584 27.5889C11.9832 27.5889 12.0155 27.7058 12.0302 27.8487C12.0739 28.2714 12.1668 28.5034 12.3899 28.7469C12.8167 29.2128 12.9122 29.8182 12.65 30.3964C12.4842 30.7621 12.4742 30.898 12.5769 31.3864C12.6511 31.7392 12.7904 32.0755 12.7941 31.9112C12.7952 31.8649 12.8424 31.6859 12.899 31.5135C12.9763 31.2782 13.0623 31.1383 13.2436 30.9532C13.5333 30.6572 14.0419 30.2629 14.082 30.3031C14.0978 30.3189 14.1107 30.5214 14.1107 30.7531C14.1107 31.1929 14.0246 31.5781 13.8688 31.8342C13.7791 31.9818 13.335 32.3071 13.078 32.4135C12.9212 32.4785 12.9083 32.5735 13.0103 32.9123C13.0969 33.2001 13.4864 33.8664 13.7378 34.157L13.9312 34.3804L13.8871 34.1861C13.8064 33.831 13.8363 33.235 13.9468 32.9935C14.0702 32.7238 14.7689 31.8737 14.8671 31.8737C14.8796 31.8737 14.8898 31.9518 14.8898 32.0472C14.8898 32.1426 14.9446 32.4851 15.0115 32.8082C15.2069 33.7512 15.1736 33.9706 14.7798 34.3385C14.6394 34.4696 14.4698 34.614 14.4029 34.6594L14.2812 34.7419L14.527 34.9754C14.9145 35.3435 15.1484 35.5254 15.2341 35.5254C15.342 35.5254 15.4648 35.2285 15.5181 34.8389C15.6133 34.1422 15.9725 33.7359 16.7196 33.4793C16.8781 33.4248 17.1225 33.3042 17.2627 33.2112C17.4029 33.1183 17.5247 33.0422 17.5333 33.0422C17.5584 33.0422 17.4805 33.7085 17.4231 33.9843C17.3651 34.2635 17.157 34.658 16.9697 34.8438C16.8521 34.9604 15.8935 35.5608 15.709 35.6334C15.6601 35.6527 15.6201 35.6774 15.6201 35.6884C15.6201 35.6994 15.7396 35.7907 15.8856 35.8912L16.1511 36.0741L15.9709 36.2851C15.8717 36.4011 15.7673 36.4968 15.7388 36.4976C15.7103 36.4985 15.6241 36.4335 15.5471 36.3532C15.4701 36.2728 15.3946 36.2071 15.3794 36.2071C15.3641 36.2071 15.3595 36.454 15.369 36.7558C15.3916 37.466 15.338 37.6633 15.0437 37.9535C14.8051 38.1889 14.205 38.5868 13.8909 38.7181C13.7175 38.7906 13.71 38.7899 13.7435 38.7058C13.78 38.6143 13.8686 38.1684 13.9592 37.6211C14.0351 37.1625 14.2726 36.7278 14.6649 36.3296L14.9999 35.9896L14.7408 35.7575C14.5983 35.6299 14.4559 35.5254 14.4244 35.5254C14.3929 35.5254 14.3114 35.6076 14.2433 35.708C13.9542 36.1342 13.4787 36.504 13.0671 36.6228C12.8499 36.6854 12.6612 36.7005 12.3081 36.6835C12.0497 36.6711 11.8123 36.6449 11.7807 36.6254C11.7108 36.5822 11.8251 36.4102 12.146 36.0752C12.2669 35.949 12.4084 35.786 12.4605 35.7129C12.6079 35.5059 13.1301 35.2851 13.6313 35.218L14.0638 35.1601L13.1958 34.296L12.9257 34.4282C12.5912 34.5919 12.1711 34.636 11.7662 34.5501C11.5311 34.5002 11.4152 34.4412 11.2314 34.278C10.9893 34.063 10.7722 33.9876 10.5073 34.0265C10.4272 34.0382 10.3616 34.0316 10.3616 34.0118C10.3616 33.9492 10.8431 33.5891 11.0801 33.4744C11.2685 33.3832 11.3857 33.365 11.7716 33.367C12.0589 33.3685 12.3282 33.3992 12.4773 33.4475C12.61 33.4904 12.7263 33.5178 12.7358 33.5083C12.7453 33.4988 12.7163 33.4064 12.6713 33.3031C12.6263 33.1998 12.5283 32.929 12.4535 32.7014L12.3174 32.2875L11.8629 32.2612C11.3443 32.2311 11.0783 32.1231 10.8788 31.8615C10.7258 31.6608 10.4286 31.0267 10.3836 30.8047L10.3495 30.6365L10.4651 30.7194C10.6977 30.8861 10.9764 31.013 11.2505 31.077C11.4049 31.113 11.6618 31.2084 11.8214 31.2889C11.981 31.3695 12.126 31.4355 12.1436 31.4355C12.1735 31.4355 12.1538 31.1806 12.0952 30.8121C12.0783 30.7051 11.9728 30.5456 11.7799 30.3351C11.5586 30.0936 11.4763 29.9617 11.4322 29.7778Z" fill="#66747B" fill-opacity="0.6"/>
<path d="M42.8294 28.8491C42.7041 28.946 42.4474 29.1436 42.2589 29.2882C41.923 29.5457 41.8727 29.6339 42.0618 29.6339C42.1732 29.6339 42.1806 29.671 42.0902 29.7761C42.0171 29.8612 41.9129 30.1434 41.9129 30.2565C41.9129 30.2974 41.9712 30.2556 42.0468 30.1605C42.2237 29.938 42.3512 29.8125 42.3755 29.8369C42.3864 29.8477 42.4161 29.9106 42.4416 29.9765C42.4871 30.0945 42.4892 30.0933 42.5696 29.9017C42.6145 29.7946 42.7018 29.5974 42.7635 29.4635C42.9698 29.016 43.0949 28.706 43.0759 28.6893C43.0656 28.6803 42.9546 28.7521 42.8294 28.8491Z" fill="#66747B" fill-opacity="0.6"/>
<path d="M40.4035 29.7525C40.4035 29.7374 40.6386 29.4964 40.926 29.2169C41.2134 28.9375 41.4558 28.7088 41.4648 28.7088C41.483 28.7088 41.4796 28.7218 41.3276 29.2444C41.2692 29.4452 41.2032 29.6534 41.181 29.707C41.1588 29.7605 41.1142 29.8903 41.0819 29.9954C41.0276 30.1727 41.0185 30.18 40.9569 30.0957C40.9203 30.0457 40.8898 29.9816 40.8891 29.9533C40.8879 29.9034 40.5868 30.3592 40.1844 31.02C39.9468 31.4101 39.4066 32.2801 39.1555 32.6771C38.9295 33.0341 38.5452 33.5373 38.5186 33.5108C38.4851 33.4772 38.9149 32.6494 39.2297 32.1415C39.3956 31.8737 39.5511 31.6217 39.5753 31.5815C39.5995 31.5414 39.8033 31.2127 40.0283 30.8512L40.0882 30.7549C40.5359 30.0357 40.6537 29.8465 40.6107 29.7971C40.5954 29.7795 40.5595 29.7797 40.5109 29.7799L40.4927 29.78C40.4437 29.78 40.4035 29.7676 40.4035 29.7525Z" fill="#66747B" fill-opacity="0.6"/>
<path d="M39.0747 29.5266C38.9999 29.6258 38.8083 29.8797 38.6486 30.0907C38.4891 30.3018 38.3585 30.493 38.3585 30.5156C38.3585 30.5381 38.4242 30.5435 38.5046 30.5274C38.6762 30.4931 38.6794 30.5058 38.5597 30.7436C38.5096 30.8429 38.3857 31.1543 38.2843 31.4355C38.1829 31.7166 38.0831 31.9689 38.0625 31.9959C38.0419 32.023 37.927 32.3078 37.8071 32.6289C37.6873 32.95 37.4754 33.4975 37.3363 33.8456C37.0426 34.5811 36.703 35.4723 36.703 35.5077C36.703 35.5212 36.7478 35.5252 36.8026 35.5167C36.9063 35.5005 37.0485 35.1972 37.4064 34.2294C37.4967 33.9852 37.5941 33.7442 37.6229 33.6938C37.6517 33.6434 37.7883 33.3064 37.9265 32.9449C38.4475 31.582 38.6116 31.162 38.697 30.9729C38.7454 30.8658 38.7999 30.7345 38.8182 30.6811C38.8501 30.5879 38.8551 30.5889 38.9425 30.7047C38.9925 30.7711 39.0423 30.8148 39.0531 30.8018C39.0638 30.7888 39.1072 30.4933 39.1493 30.1452C39.1915 29.797 39.2414 29.4738 39.2601 29.427C39.3175 29.2831 39.2179 29.3366 39.0747 29.5266Z" fill="#66747B" fill-opacity="0.6"/>
<path d="M40.6287 30.7451C40.5236 30.7315 40.5868 30.6661 41.1005 30.2565C41.6766 29.7972 41.8061 29.7144 41.7505 29.8409C41.7358 29.8743 41.6342 30.1318 41.5248 30.413C41.3411 30.8851 41.2358 31.1323 41.193 31.1913C41.1836 31.2043 41.1337 31.1605 41.0822 31.0939C41.0212 31.0152 40.9756 30.9914 40.9516 31.026C40.8658 31.1495 40.182 32.0462 40.1566 32.0684C40.1414 32.0818 40.0329 32.2242 39.9156 32.3849C39.7325 32.6358 39.3706 33.1083 38.6291 34.0647C38.5357 34.1852 38.1941 34.6277 37.8701 35.048C37.4705 35.5663 37.2585 35.8035 37.2111 35.7853C37.1727 35.7705 37.1412 35.7364 37.1412 35.7093C37.1412 35.6573 37.4069 35.275 37.6411 34.9898C37.7741 34.828 38.624 33.7232 39.1393 33.0422C39.5618 32.484 40.497 31.271 40.6519 31.0805C40.8186 30.8753 40.8112 30.7687 40.6287 30.7451Z" fill="#66747B" fill-opacity="0.6"/>
<path d="M42.8438 30.378L42.1923 30.7201L42.3251 30.7896C42.4577 30.8591 42.4578 30.8594 42.3628 30.9648C42.2606 31.0782 42.0962 31.3916 42.1243 31.4196C42.1336 31.429 42.2429 31.3472 42.3671 31.2379C42.596 31.0364 42.6919 31.0237 42.6919 31.1949C42.6919 31.3614 42.7607 31.298 42.9984 30.912C43.1263 30.7045 43.2984 30.4295 43.3809 30.3009C43.4634 30.1724 43.5229 30.0602 43.5131 30.0515C43.5034 30.0429 43.2022 30.1898 42.8438 30.378Z" fill="#66747B" fill-opacity="0.6"/>
<path d="M38.7115 31.4376C38.8961 31.2275 39.1815 30.8849 39.3339 30.6904C39.3927 30.6153 39.4524 30.5655 39.4665 30.5796C39.5004 30.6136 39.2813 31.9345 39.2328 31.9884C39.2121 32.0114 39.1706 31.984 39.1403 31.9276C39.064 31.785 39.0135 31.7991 38.941 31.9832C38.9068 32.0703 38.7757 32.3606 38.6499 32.6284C38.524 32.8962 38.3146 33.3453 38.1845 33.6265C37.8233 34.4073 37.5154 34.8336 37.6569 34.3572C37.7601 34.0097 37.79 33.9416 38.5001 32.4388C38.6633 32.0935 38.7967 31.7813 38.7967 31.7449C38.7967 31.707 38.745 31.6789 38.675 31.6789C38.5175 31.6789 38.5213 31.6541 38.7115 31.4376Z" fill="#66747B" fill-opacity="0.6"/>
<path d="M23.297 30.6402C23.2791 30.658 23.2645 30.7457 23.2645 30.835V30.9972H23.9462V36.0497L24.0668 36.0728C24.1564 36.0899 24.1954 36.071 24.2181 35.9993C24.235 35.9463 24.2409 34.8046 24.2314 33.4622L24.214 31.0216L25.0661 30.9934V33.524C25.0661 36.0079 25.0679 36.055 25.163 36.0852C25.2163 36.1022 25.282 36.1023 25.3091 36.0857C25.3411 36.0659 25.3582 35.1747 25.3582 33.5263V30.9972H26.1372V33.5234C26.1372 35.8885 26.1427 36.0511 26.2224 36.0718L26.2338 36.0748C26.2688 36.084 26.2975 36.0916 26.3211 36.0837C26.4294 36.0476 26.4294 35.6864 26.4294 33.6673L26.4294 30.9972H27.2084V33.5259C27.2084 36.0315 27.2093 36.0548 27.3081 36.0861L27.3138 36.0879C27.3598 36.1025 27.3969 36.1143 27.4266 36.1044C27.5493 36.0635 27.5493 35.6547 27.5493 33.5624V30.9972H28.2787L28.304 36.0367L28.6204 36.0672V30.9972H29.4482V36.061H29.7403V30.9972H30.422V30.6077H26.8757C24.9252 30.6077 23.3148 30.6223 23.297 30.6402Z" fill="#66747B" fill-opacity="0.6"/>
<path d="M41.391 31.2491C41.4387 31.2079 41.603 31.1029 41.7562 31.0158C41.9093 30.9287 42.0417 30.8561 42.0504 30.8543C42.0743 30.8496 41.4198 32.0853 41.3692 32.1406C41.3417 32.1706 41.3148 32.1479 41.297 32.0798C41.2562 31.9238 41.1667 31.945 40.9846 32.1536C40.2555 32.9893 38.7967 34.4073 38.7967 34.2804C38.7967 34.2006 39.41 33.4958 40.1835 32.6866C40.6393 32.2099 41.0191 31.7999 41.0278 31.7755C41.0364 31.7511 40.987 31.717 40.9182 31.6997C40.8493 31.6825 40.793 31.6543 40.7931 31.6371C40.7931 31.6199 40.9081 31.5424 41.0487 31.4649C41.1893 31.3874 41.3433 31.2903 41.391 31.2491Z" fill="#66747B" fill-opacity="0.6"/>
<path d="M43.0815 31.5767C42.7735 31.6796 42.456 31.79 42.376 31.822L42.2305 31.8801L42.4522 32.0473L42.3051 32.1561C42.16 32.2634 41.971 32.5553 42.0466 32.5553C42.068 32.5553 42.2001 32.4799 42.3401 32.3877C42.5938 32.2206 42.5946 32.2204 42.5946 32.3361C42.5946 32.4 42.6127 32.4635 42.635 32.4772C42.6572 32.4909 42.8442 32.3177 43.0506 32.0922C43.462 31.6427 43.6834 31.386 43.6579 31.3882C43.6488 31.389 43.3894 31.4738 43.0815 31.5767Z" fill="#66747B" fill-opacity="0.6"/>
<path d="M40.6499 32.7083C40.6516 32.6911 40.9528 32.5306 41.3194 32.3517C41.686 32.1728 41.9932 32.0249 42.0021 32.0231C42.029 32.0175 41.8054 32.3782 41.7174 32.4823C41.672 32.5359 41.5329 32.7396 41.4081 32.9352C41.1898 33.2773 41.0852 33.3412 41.0852 33.1327C41.0852 33.0785 41.065 33.0414 41.0403 33.0504C41.0157 33.0593 40.5085 33.4938 39.9133 34.016C39.3181 34.5382 38.7741 35.009 38.7043 35.0622C38.6346 35.1154 38.3489 35.3625 38.0694 35.6113C37.6131 36.0175 37.5536 36.0561 37.4867 35.9891C37.4198 35.9222 37.4219 35.9052 37.508 35.8229C37.6094 35.7259 39.7609 33.8522 40.4712 33.2423C40.7018 33.0443 40.8904 32.864 40.8904 32.8415C40.8904 32.819 40.8356 32.7869 40.7687 32.7701C40.7017 32.7533 40.6483 32.7255 40.6499 32.7083Z" fill="#66747B" fill-opacity="0.6"/>
<path d="M43.2032 32.6852C43.1496 32.6969 43.062 32.7255 43.0084 32.7487C42.9549 32.772 42.7083 32.8391 42.4607 32.8978C42.213 32.9564 42.0103 33.0122 42.0103 33.0218C42.0103 33.0313 42.0701 33.0705 42.1432 33.1087L42.2761 33.1784L42.0985 33.2832C41.9258 33.3851 41.7353 33.6112 41.7825 33.6584C41.7953 33.6712 41.9168 33.6255 42.0525 33.5567C42.3587 33.4016 42.3921 33.4012 42.363 33.5535C42.3502 33.6204 42.3588 33.6743 42.3819 33.6733C42.4052 33.6722 42.6652 33.4428 42.9597 33.1636C43.4809 32.6695 43.5066 32.6192 43.2032 32.6852Z" fill="#66747B" fill-opacity="0.6"/>
<path d="M40.4157 33.8908C40.2912 33.7988 40.3528 33.7592 41.0365 33.4914C41.3712 33.3603 41.6538 33.2599 41.6645 33.2685C41.6751 33.2769 41.6094 33.3784 41.5184 33.4938C41.4274 33.6093 41.2324 33.8605 41.0852 34.052C40.9379 34.2435 40.801 34.4014 40.7808 34.4029C40.7607 34.4043 40.7443 34.3508 40.7443 34.2838C40.7443 34.1177 40.6738 34.1304 40.3836 34.3488C40.0095 34.6305 38.905 35.4424 38.7829 35.5254C38.6761 35.5981 38.6762 35.5977 38.7878 35.4524C38.9935 35.1847 39.4023 34.7851 39.6242 34.6348C39.9869 34.3894 40.5009 34.0043 40.5009 33.9782C40.5009 33.9648 40.4625 33.9254 40.4157 33.8908Z" fill="#66747B" fill-opacity="0.6"/>
<path d="M42.4536 34.0004C41.9879 34.1043 41.8477 34.1356 41.8442 34.1782C41.8427 34.1965 41.8664 34.2169 41.9005 34.246L41.9201 34.263C42.0065 34.3386 42.0182 34.3698 41.9677 34.3904C41.8604 34.4342 41.5939 34.6871 41.6237 34.7169C41.6387 34.7318 41.7646 34.7009 41.9036 34.648L42.1563 34.552V34.6979C42.1563 34.7781 42.1727 34.8429 42.1929 34.8418C42.213 34.8408 42.4704 34.6114 42.765 34.3321C43.0595 34.0529 43.2787 33.8263 43.2519 33.8287C43.2251 33.831 42.9184 33.8966 42.5702 33.9744L42.4536 34.0004Z" fill="#66747B" fill-opacity="0.6"/>
<path fill-rule="evenodd" clip-rule="evenodd" d="M21.4033 34.6947C21.5547 34.5073 22.011 34.2654 22.3637 34.1855C22.4019 34.1769 22.437 34.1684 22.4694 34.1606C22.6113 34.1264 22.7006 34.1049 22.7576 34.1383C22.8543 34.195 22.8585 34.4096 22.8698 34.988C22.8713 35.0659 22.873 35.1504 22.875 35.2421C22.8975 36.2655 22.9068 36.3564 23.0013 36.4837C23.1408 36.6716 23.3593 36.7367 23.861 36.74C24.0953 36.7415 24.287 36.76 24.287 36.7813C24.287 36.8024 24.1939 36.9101 24.0801 37.0205C23.6562 37.4317 22.895 37.7313 22.3231 37.7121C22.1481 37.7063 21.9413 37.7501 21.6432 37.8562C21.3507 37.9603 21.1268 38.0083 20.9372 38.0076C20.6406 38.0065 20.2867 37.8785 20.2123 37.7456C20.1762 37.681 20.0203 37.6626 19.2822 37.6359L18.3955 37.6037L18.3951 37.7453C18.3948 37.9185 18.3149 38.0322 17.8813 38.4769C17.3987 38.9718 17.2719 39.02 16.9414 38.8342C16.7642 38.7345 16.6426 38.5532 16.6426 38.3885C16.6426 38.3402 16.6076 38.3008 16.5648 38.3008C16.2811 38.3008 16.0224 37.9983 16.0868 37.7419C16.1094 37.6518 16.0901 37.6279 15.9767 37.6051C15.808 37.5711 15.6472 37.3224 15.6883 37.1589C15.7186 37.038 16.4965 36.174 16.6642 36.0749C16.7193 36.0424 16.8319 36.015 16.9144 36.014C17.0335 36.0127 17.089 35.9746 17.1827 35.8299C17.4869 35.3597 18.3008 35.48 18.4453 36.0166C18.4737 36.1222 18.4827 36.2849 18.4652 36.3783L18.4333 36.5479H19.1691C19.725 36.5479 19.905 36.533 19.9054 36.4871C19.9063 36.365 20.142 35.9312 20.3837 35.6065C20.6687 35.2238 20.88 35.0249 21.1221 34.9116C21.2159 34.8677 21.3424 34.7701 21.4033 34.6947ZM17.951 36.5798C18.0282 36.4869 18.0716 36.2325 18.0351 36.0872C18.0047 35.9662 17.8862 35.9312 17.726 35.9959C17.6535 36.0251 17.6444 36.2372 17.7138 36.2801C17.7406 36.2967 17.7625 36.3856 17.7625 36.4778C17.7625 36.6546 17.8498 36.7019 17.951 36.5798ZM17.5786 36.4506C17.6897 36.4506 17.6887 36.3896 17.5761 36.2877C17.4696 36.1913 17.1827 36.1819 17.0612 36.2707C17.0077 36.3098 16.9807 36.3802 16.991 36.4533C17.0118 36.6008 17.2215 36.6401 17.3832 36.5268C17.4431 36.4848 17.531 36.4506 17.5786 36.4506ZM17.9846 36.9375C18.0787 36.9375 18.0738 36.8579 17.9776 36.8209C17.8712 36.7801 17.5539 36.7852 17.4947 36.8286C17.3597 36.9278 17.318 37.0295 17.3713 37.1291C17.4462 37.269 17.5674 37.2546 17.7547 37.0835C17.8426 37.0032 17.9461 36.9375 17.9846 36.9375ZM17.9371 37.8139C18.0572 37.8139 18.2007 37.5662 18.2007 37.359C18.2007 37.291 18.1788 37.2218 18.152 37.2053C18.1252 37.1887 18.1033 37.1981 18.1033 37.226C18.1033 37.254 18.0157 37.3349 17.9086 37.4058C17.8015 37.4767 17.7138 37.5712 17.7138 37.6159C17.7138 37.7282 17.8104 37.8139 17.9371 37.8139Z" fill="#66747B" fill-opacity="0.6"/>
<path fill-rule="evenodd" clip-rule="evenodd" d="M30.8411 34.1904C30.8248 34.2328 30.8115 34.7269 30.8115 35.2884C30.8115 36.0887 30.7961 36.3391 30.7403 36.447C30.6363 36.6481 30.3552 36.7427 29.8611 36.7427C29.6277 36.7427 29.4482 36.7631 29.4482 36.7898C29.4482 36.8805 29.7895 37.1769 30.1209 37.3737C30.4824 37.5885 31.0464 37.7397 31.3471 37.7025C31.4582 37.6888 31.6956 37.7402 32.0288 37.85C32.4674 37.9945 32.587 38.0152 32.8709 37.9955C33.1508 37.9762 33.2314 37.9489 33.3935 37.8187L33.5851 37.6646L35.3397 37.6038V37.7872C35.3397 37.9433 35.3776 38.0086 35.5953 38.2272C35.7359 38.3684 35.9106 38.5514 35.9835 38.6338C36.1775 38.8533 36.3886 38.9488 36.5945 38.9101C36.8219 38.8675 37.0439 38.6436 37.0439 38.4568C37.0439 38.3268 37.0624 38.3103 37.2398 38.2819C37.4712 38.2449 37.6389 38.0265 37.6172 37.7903C37.6068 37.6776 37.6257 37.6409 37.7012 37.627C37.9321 37.5845 38.065 37.3119 37.973 37.0698C37.9127 36.9111 37.2132 36.1744 37.0341 36.081C36.9618 36.0432 36.8373 36.0123 36.7574 36.0123C36.6576 36.0123 36.6031 35.9835 36.5829 35.9199C36.4866 35.6165 36.0378 35.4555 35.6583 35.5882C35.3688 35.6894 35.2665 35.8587 35.2676 36.2352L35.2685 36.5479H33.8435L33.7643 36.341C33.5693 35.8312 32.9496 35.0672 32.5966 34.9013C32.4804 34.8467 32.3485 34.7457 32.3034 34.677C32.1944 34.5106 31.7035 34.2681 31.3043 34.1834C30.8965 34.097 30.8768 34.0973 30.8411 34.1904ZM36.0169 36.0528C36.0505 36.1154 36.0438 36.1822 35.9943 36.2775C35.9556 36.352 35.924 36.4653 35.924 36.5291C35.924 36.6747 35.855 36.678 35.7563 36.5371C35.6809 36.4294 35.6511 36.058 35.713 35.9961C35.7786 35.9305 35.9706 35.9663 36.0169 36.0528ZM36.6859 36.3125C36.7865 36.4236 36.73 36.563 36.5748 36.5865C36.4488 36.6054 36 36.4036 36.0527 36.3517C36.2428 36.1643 36.5354 36.1462 36.6859 36.3125ZM36.2855 36.8848C36.3964 37.0073 36.3688 37.2008 36.2377 37.2196C36.1826 37.2275 36.0555 37.1687 35.955 37.0888C35.8546 37.009 35.7463 36.933 35.7143 36.92C35.6066 36.8759 35.7931 36.7929 36.0016 36.7921C36.1371 36.7916 36.2282 36.8213 36.2855 36.8848ZM35.6322 37.2418C35.6324 37.2753 35.7091 37.3548 35.8026 37.4185C35.8961 37.4822 35.9727 37.5625 35.9727 37.5971C35.9727 37.8617 35.7379 37.8938 35.5871 37.6499C35.4508 37.4292 35.453 37.1809 35.5913 37.1809C35.6136 37.1809 35.632 37.2083 35.6322 37.2418Z" fill="#66747B" fill-opacity="0.6"/>
<path d="M40.1114 34.7447C40.1247 34.742 40.4424 34.6465 40.8174 34.5326C41.1923 34.4188 41.5073 34.3317 41.5174 34.3393C41.5276 34.3469 41.3085 34.5979 41.0305 34.897C40.5875 35.3739 40.5232 35.4267 40.5089 35.325C40.4839 35.1467 40.4265 35.1191 40.2748 35.2122C40.1983 35.2592 40.059 35.3453 39.9653 35.4036C39.8716 35.462 39.6305 35.6036 39.4297 35.7185C39.2288 35.8333 38.8376 36.0574 38.5601 36.2165C38.2827 36.3755 38.0253 36.4939 37.988 36.4796C37.8719 36.435 37.9135 36.326 38.0785 36.2423C38.2322 36.1644 38.5344 35.9908 39.022 35.7007C39.769 35.2562 40.2226 34.9932 40.2731 34.9754C40.3078 34.9633 40.2824 34.9147 40.2087 34.8524C40.1418 34.7959 40.098 34.7474 40.1114 34.7447Z" fill="#66747B" fill-opacity="0.6"/>
<path fill-rule="evenodd" clip-rule="evenodd" d="M25.128 37.1579C24.9792 37.3067 24.96 37.3521 24.9838 37.4987C24.9989 37.5917 24.9934 37.6678 24.9716 37.6678C24.9084 37.6678 24.2411 38.2411 23.9429 38.5516C23.5687 38.9412 23.1291 39.5632 22.9916 39.8973C22.8845 40.1579 22.8452 40.3458 22.8981 40.3458C22.9534 40.3458 23.5982 40.01 23.7712 39.8911C23.8758 39.8192 23.9715 39.7707 23.984 39.7831C23.9965 39.7956 23.9501 39.9023 23.881 40.0203C23.649 40.4162 23.4148 41.2709 23.5383 41.2709C23.5979 41.2709 24.1835 40.8311 24.4586 40.5797C24.6889 40.3692 24.732 40.3451 24.7003 40.4442C24.5349 40.9621 24.4305 41.7488 24.5024 41.9361C24.5317 42.0125 24.5746 41.9847 24.7973 41.7455C24.9406 41.5915 25.1419 41.3509 25.2445 41.2109L25.4312 40.9563L25.4648 41.5396C25.4832 41.8604 25.5285 42.2084 25.5653 42.3129L25.6324 42.5027L25.8442 42.1673C25.9607 41.9828 26.1051 41.7112 26.1652 41.5636L26.2743 41.2953L26.3064 41.4901C26.4108 42.1239 26.6711 42.869 26.8035 42.9131C26.9593 42.9651 27.2217 42.178 27.2928 41.4456L27.2988 41.3825C27.3131 41.2309 27.3213 41.1443 27.3453 41.1397C27.3772 41.1336 27.437 41.2734 27.5766 41.5994L27.6203 41.7014C27.7895 42.0958 28.0069 42.4395 28.0872 42.4395C28.1591 42.4395 28.2443 41.8866 28.2472 41.4004C28.2497 40.9982 28.26 40.9357 28.3119 41.0109C28.3459 41.0602 28.3995 41.1303 28.431 41.1667C28.4625 41.2032 28.5615 41.3289 28.6509 41.446C28.7403 41.5632 28.8954 41.7363 28.9956 41.8308C29.1758 42.0008 29.1782 42.0014 29.2182 41.8931C29.283 41.7181 29.1654 40.8327 29.029 40.4675C29.0034 40.3993 29.0589 40.4285 29.2143 40.5649C29.7357 41.0229 30.1543 41.3114 30.2128 41.2529C30.2732 41.1924 30.1153 40.6508 29.9092 40.2119C29.793 39.9642 29.7089 39.7615 29.7225 39.7615C29.736 39.7615 29.8455 39.8292 29.9659 39.912C30.2141 40.0828 30.8097 40.3638 30.8461 40.3274C30.8594 40.3141 30.8232 40.1622 30.7659 39.9898C30.5661 39.3893 29.8351 38.4991 29.0465 37.8959C28.8544 37.7489 28.7178 37.6078 28.7178 37.5564C28.7178 37.4124 28.5836 37.196 28.4238 37.0822C28.2948 36.9903 28.2244 36.9783 27.9097 36.9942L27.5451 37.0126L26.8478 37.7224L26.135 36.9861H25.7174C25.3044 36.9861 25.2979 36.9881 25.128 37.1579ZM24.8134 38.5566C24.1618 39.2913 23.4211 39.9343 23.3307 39.8439C23.2384 39.7516 23.9011 39.0011 25.0661 37.8792C25.1304 37.8172 25.1409 37.8295 25.1542 37.9821C25.1678 38.137 25.1318 38.1976 24.8134 38.5566ZM29.5618 38.7633C30.0011 39.204 30.4561 39.7923 30.4006 39.8479C30.3444 39.904 29.5955 39.3756 29.3531 39.1088L29.1719 38.9094C28.585 38.2641 28.4953 38.1655 28.5095 38.0852C28.5121 38.0708 28.518 38.0569 28.525 38.0406C28.5287 38.032 28.5327 38.0226 28.5367 38.0121L28.5894 37.8724L28.8329 38.0744C28.9668 38.1855 29.2948 38.4956 29.5618 38.7633ZM25.7224 38.313C25.7043 38.4 25.5854 38.6246 25.4582 38.812C25.331 38.9995 25.1456 39.3091 25.0462 39.5C24.9208 39.7409 24.7433 39.9679 24.4667 40.2418C24.0741 40.6304 23.8584 40.8105 23.826 40.7768C23.7932 40.7426 24.2394 39.9014 24.4865 39.5317C24.8578 38.9761 25.4477 38.2524 25.5691 38.2035C25.7402 38.1345 25.7572 38.1465 25.7224 38.313ZM28.479 38.5321C28.8134 38.8833 29.0206 39.1599 29.3286 39.6659C29.6252 40.153 29.8637 40.6769 29.8122 40.7283C29.7953 40.7452 29.5529 40.5251 29.2734 40.2391C28.897 39.8539 28.7278 39.6394 28.6207 39.4117C28.5412 39.2426 28.3781 38.9508 28.2582 38.7633C28.0091 38.3737 27.9917 38.3008 28.1476 38.3008C28.217 38.3008 28.3416 38.3877 28.479 38.5321ZM26.4427 38.7258C26.4569 38.8 26.4481 38.9703 26.4231 39.1042C26.3981 39.2381 26.3479 39.6434 26.3115 40.005C26.2407 40.7091 26.1052 41.1984 25.856 41.6506L25.7138 41.9086L25.685 41.5003C25.6542 41.0645 25.7064 40.3464 25.8008 39.9076C25.8324 39.7603 25.9339 39.4426 26.0262 39.2016C26.2815 38.5351 26.3837 38.4183 26.4427 38.7258ZM25.9402 38.6392C26.0004 38.6773 25.991 38.7327 25.8783 39.0073C25.7424 39.3381 25.5043 40.1902 25.5043 40.3454C25.5043 40.4847 24.7464 41.5517 24.6886 41.4939C24.5766 41.382 25.0702 39.943 25.4485 39.2787C25.5489 39.1024 25.6732 38.876 25.7248 38.7755C25.8264 38.5777 25.8347 38.5724 25.9402 38.6392ZM28.1991 39.1837C28.3536 39.4806 28.5235 39.834 28.5768 39.9692C28.7048 40.2937 28.9712 41.2772 28.9397 41.3087C28.8955 41.3529 28.7698 41.2159 28.553 40.8872C28.2592 40.4418 28.2074 40.3261 28.1145 39.9076C28.0699 39.7067 27.9664 39.3604 27.8845 39.138C27.7376 38.7388 27.7276 38.571 27.8536 38.6194C27.8892 38.633 28.0446 38.887 28.1991 39.1837ZM27.6381 39.1419C27.9035 40.0545 28.0362 40.8324 28.0362 41.4766C28.0362 41.658 28.0167 41.8065 27.9928 41.8065C27.9388 41.8065 27.7816 41.4764 27.5637 40.9057C27.4256 40.544 27.3889 40.3656 27.3532 39.8832C27.3294 39.5619 27.2962 39.1962 27.2794 39.0705C27.2625 38.9449 27.263 38.7973 27.2803 38.7427C27.3094 38.6509 27.3204 38.6489 27.4238 38.7167C27.5002 38.7668 27.5683 38.9018 27.6381 39.1419ZM27.0835 39.2803C27.1464 39.8365 27.1194 41.3238 27.0381 41.782C26.9953 42.0231 26.9394 42.2411 26.9139 42.2665C26.8884 42.292 26.8676 42.3523 26.8676 42.4005C26.8676 42.5539 26.7876 42.4949 26.7286 42.2979C26.5768 41.7911 26.5174 41.104 26.5431 40.151C26.5571 39.6288 26.5824 39.1577 26.5992 39.1042C26.6232 39.0278 26.6753 39.0055 26.8405 39.0011L27.0513 38.9953L27.0835 39.2803Z" fill="#66747B" fill-opacity="0.6"/>
<path d="M33.6782 38.7544C33.8078 38.7792 33.9466 38.7057 34.5576 38.2889C34.7836 38.1348 34.9753 38.0086 34.9836 38.0086C34.992 38.0086 34.9989 38.0584 34.9989 38.1191C34.9989 38.2056 34.8773 38.3117 34.4389 38.6079C34.0415 38.8764 33.879 39.0141 33.879 39.0823C33.879 39.149 33.7633 39.2527 33.5016 39.4204C33.0778 39.6922 32.9882 39.7175 33.0265 39.5546C33.0574 39.4232 33.018 39.362 32.8584 39.2935C32.7403 39.2428 32.742 39.24 32.9801 39.1015C33.113 39.0241 33.2982 38.9094 33.3918 38.8465C33.4963 38.7763 33.6067 38.7408 33.6782 38.7544Z" fill="#66747B" fill-opacity="0.6"/>
<path d="M18.2095 38.6569L18.0531 38.8183L18.1353 38.9856C18.1805 39.0776 18.2338 39.164 18.2538 39.1777C18.2739 39.1913 18.3377 39.3228 18.3957 39.4698C18.4804 39.6848 18.5066 39.8797 18.5291 40.4652L18.5571 41.1932L18.7076 41.3319C18.9148 41.523 19.2709 41.7557 19.4089 41.7903C19.4816 41.8086 19.5524 41.7903 19.6024 41.7403C19.6721 41.6706 19.6739 41.6265 19.6185 41.3567C19.5436 40.9925 19.0242 39.4044 18.9038 39.1715C18.7506 38.8753 18.4802 38.4956 18.4225 38.4956C18.3913 38.4956 18.2955 38.5682 18.2095 38.6569Z" fill="#66747B" fill-opacity="0.6"/>
<path d="M33.9265 39.5558C34.026 39.5667 34.1513 39.467 34.5842 39.0324C34.8783 38.7372 35.1444 38.4956 35.1754 38.4956C35.3506 38.4956 35.2369 38.6729 34.7512 39.157C34.324 39.583 34.2219 39.7114 34.2296 39.813C34.2369 39.9089 34.1462 40.0443 33.8539 40.3739C33.642 40.6129 33.4404 40.8154 33.406 40.8241C33.3656 40.8342 33.3434 40.7891 33.3434 40.6971C33.3434 40.5705 33.3215 40.5495 33.1503 40.5109L32.9572 40.4675L33.3804 40.005C33.7261 39.6271 33.826 39.5449 33.9265 39.5558Z" fill="#66747B" fill-opacity="0.6"/>
<path d="M35.2586 39.1894C35.0866 39.4474 34.9904 39.5468 34.9015 39.5587C34.8094 39.571 34.7117 39.6794 34.4998 40.0044C34.3458 40.2405 34.2198 40.4564 34.2198 40.4841C34.2198 40.5145 34.2876 40.5234 34.3905 40.5067C34.5479 40.4812 34.5654 40.4909 34.6144 40.6315C34.6436 40.7154 34.683 40.784 34.7019 40.784C34.7207 40.784 34.8636 40.5858 35.0192 40.3436C35.2575 39.9731 35.2976 39.8796 35.2723 39.7533C35.2479 39.6311 35.2785 39.5492 35.4381 39.3101C35.565 39.1201 35.6238 38.9852 35.6053 38.9267C35.5895 38.877 35.558 38.8364 35.5353 38.8364C35.5127 38.8364 35.3882 38.9953 35.2586 39.1894Z" fill="#66747B" fill-opacity="0.6"/>
<path d="M35.3642 40.4431C35.4996 40.3917 35.5378 40.2934 35.7761 39.3841C35.8328 39.1679 35.8766 39.1345 35.9647 39.2406C36.0033 39.2871 35.9768 39.4562 35.8654 39.8742C35.7335 40.369 35.7218 40.4601 35.7768 40.5629C35.8278 40.6582 35.8288 40.7417 35.782 40.9883L35.7734 41.0338C35.7193 41.3187 35.699 41.426 35.6583 41.4344C35.6338 41.4395 35.6019 41.4088 35.5509 41.3597L35.5374 41.3468C35.4209 41.2351 35.3864 41.2254 35.2676 41.2706C35.1927 41.299 35.1236 41.3145 35.114 41.3049C35.1044 41.2953 35.1329 41.1066 35.1772 40.8855C35.243 40.5575 35.2774 40.4761 35.3642 40.4431Z" fill="#66747B" fill-opacity="0.6"/>
<path d="M35.7718 4.75627L35.8085 4.66225L35.8268 4.56824L35.8543 4.47423L35.891 4.30498L35.9094 4.13573V3.84406L35.9002 3.77823L35.8818 3.72182L35.8727 3.65599L35.8176 3.48673L35.7901 3.43972L35.7718 3.3927L35.7443 3.34569L35.7076 3.30807L35.68 3.27046L35.6433 3.23285L35.6158 3.19523L35.5791 3.15762L35.5424 3.12941L35.4966 3.1012L35.4599 3.08239L35.4232 3.05418L35.3773 3.03538L35.3406 3.01657L35.2948 2.99776C34.8361 2.8379 34.2124 3.03538 33.8638 4.08853C33.5244 5.09469 33.8455 5.66829 34.3408 5.83755C34.8453 6.01624 35.4415 5.76242 35.7718 4.75627Z" fill="#66747B" fill-opacity="0.6"/>
<path d="M45.2932 12.2507L45.9261 10.953L44.5777 11.4044L45.2932 12.2507Z" fill="#66747B" fill-opacity="0.6"/>
<path d="M14.0047 6.92844L13.9313 6.96605L13.3259 5.95052C13.2525 5.82829 13.2708 5.78128 13.491 5.64021C13.6561 5.53675 14.1973 5.21704 14.5183 5.77183L14.555 5.82826L14.5642 5.85646L14.5734 5.87527L14.5917 5.90348L14.6009 5.93169V5.9599L14.6101 5.98811L14.6192 6.00692V6.03513L14.6284 6.05393V6.17618L14.6192 6.20439V6.22319L14.6101 6.27021L14.5917 6.30782L14.5826 6.35484L14.5642 6.39245L14.5367 6.43006L14.5092 6.47708L14.4908 6.51469L14.4541 6.5429L14.3991 6.61813L14.3624 6.64634L14.3257 6.68395L14.0689 6.88142L14.0322 6.90023L14.0047 6.92844Z" fill="#66747B" fill-opacity="0.6"/>
<path d="M11.0051 8.04742L12.2618 8.71505L11.4087 9.42969L11.0051 8.04742Z" fill="#66747B" fill-opacity="0.6"/>
<path d="M9.52832 10.812L9.5008 10.8308L8.61102 9.94683C8.50096 9.84343 8.52844 9.79642 8.62936 9.69296L8.63346 9.68876C8.78499 9.53336 9.26679 9.03922 9.75762 9.52372C10.2713 10.0315 9.83101 10.5017 9.70261 10.6333L9.68426 10.6615L9.65674 10.6897L9.62922 10.7085L9.57419 10.765L9.54667 10.7838L9.52832 10.812Z" fill="#66747B" fill-opacity="0.6"/>
<path d="M6.75813 16.8207L6.77647 16.8301L6.78564 16.8395H6.79482L6.81316 16.8489H6.82234L6.83151 16.8583H6.85903L6.8682 16.8677H6.87737L6.88655 16.8583H6.91406L6.92324 16.8489H6.93241L6.95076 16.8301H6.95993L6.99662 16.7925L7.00579 16.7737L7.02414 16.7548L7.04248 16.7172L7.05165 16.7078L7.07 16.6702C7.22594 16.3975 7.80383 15.3538 6.60219 14.6579C6.25363 14.4605 5.85919 14.357 5.44641 14.5075C5.15286 14.6015 4.91439 14.7802 4.61168 15.3067C4.50161 15.5042 4.58416 15.5512 4.66672 15.5982L6.75813 16.8207Z" fill="#66747B" fill-opacity="0.6"/>
<path d="M50.6402 30.9695L49.215 31.308L50.4597 32.0791L50.6402 30.9695Z" fill="#66747B" fill-opacity="0.6"/>
<path d="M46.8492 39.9684L46.8682 39.9308L46.8967 39.9026L46.9537 39.7897L46.9822 39.7427L47.0012 39.7051L47.0202 39.6581L47.0392 39.6205L47.0962 39.4794L47.1057 39.4418L47.1247 39.3948L47.1532 39.2537V39.1127L47.1437 39.0657V39.0281L47.1247 38.981V38.9622L47.1152 38.934L47.0962 38.8964L47.0772 38.8776L47.0677 38.8494L47.0582 38.8306L47.0202 38.793L47.0107 38.7742L46.9727 38.7366L46.9442 38.7178L46.9252 38.699L46.8967 38.6801L46.8777 38.6613L46.8492 38.6425L46.8207 38.6331C46.2601 38.2946 45.918 38.84 45.8135 39.0093C45.6805 39.235 45.69 39.282 45.8135 39.3572L46.8492 39.9684Z" fill="#66747B" fill-opacity="0.6"/>
<path d="M39.9322 47.4816L38.735 46.6447L38.9726 48.074L39.9322 47.4816Z" fill="#66747B" fill-opacity="0.6"/>
<path d="M33.2908 49.9735L33.3193 50.0675C33.5663 51.1113 33.1767 51.6473 32.6447 51.7695C32.1221 51.8917 31.5235 51.5814 31.2765 50.5471C31.0199 49.4657 31.4665 48.9579 31.9511 48.8451L31.9986 48.8357H32.0461L32.0936 48.8263H32.2361L32.2836 48.8357H32.3311L32.3881 48.8545L32.4356 48.8639L32.5782 48.9203L32.6732 48.9767L32.8157 49.0896L32.8632 49.1366L32.9012 49.1836L32.9487 49.2307L33.0247 49.3435L33.1007 49.4752L33.1768 49.6256L33.2053 49.7009L33.2433 49.7855L33.2718 49.8795L33.2908 49.9735Z" fill="#66747B" fill-opacity="0.6"/>
<path d="M19.0198 49.9923L18.9532 48.5442L17.9556 49.6068L19.0198 49.9923Z" fill="#66747B" fill-opacity="0.6"/>
<path d="M8.39727 44.0588L8.38776 44.0682L8.37826 44.087L8.34026 44.1247V44.1341L8.33076 44.1435V44.1529L8.32125 44.1623V44.2375L8.33076 44.2469V44.2563L8.34976 44.2751V44.2939L8.37826 44.3221L8.38776 44.3409L8.40677 44.3503L8.41627 44.3691L8.45427 44.4068C8.67366 44.6333 9.50978 45.4967 10.5446 44.5196C10.8391 44.2375 11.0482 43.8802 11.0291 43.4288C11.0196 43.1185 10.9246 42.827 10.4971 42.385C10.3356 42.2252 10.269 42.2816 10.2026 42.3568L8.39727 44.0588Z" fill="#66747B" fill-opacity="0.6"/>
<path fill-rule="evenodd" clip-rule="evenodd" d="M27 0C12.0883 0 0 12.0883 0 27C0 41.9117 12.0883 54 27 54C41.9117 54 54 41.9117 54 27C54 12.0883 41.9117 0 27 0ZM6.23077 27C6.23077 15.5295 15.5295 6.23077 27 6.23077C38.4705 6.23077 47.7692 15.5295 47.7692 27C47.7692 38.4705 38.4705 47.7692 27 47.7692C15.5295 47.7692 6.23077 38.4705 6.23077 27ZM28.9197 1.60618L28.9472 1.59678L28.9472 1.51213L27.8373 1.49332V1.58737C28.1583 1.61558 28.2867 1.6532 28.2776 2.21738L28.2684 3.83475H28.2592L26.4614 1.48394L25.6541 1.47453V1.56857C25.8376 1.56857 25.9202 1.58738 26.1036 1.83186L26.0853 3.97581C26.0761 4.50241 25.9752 4.57762 25.6175 4.59642V4.69043L26.7365 4.69984V4.60583C26.388 4.58702 26.2871 4.48359 26.2963 3.9852L26.3146 2.08576H26.3238L28.3785 4.77509H28.461L28.4886 2.21739L28.4977 2.18918V2.04813L28.5069 2.02933V1.97291L28.5161 1.9541V1.91649L28.5253 1.89768V1.86947L28.5344 1.86007V1.84126L28.5436 1.83186V1.81305L28.5528 1.80365L28.562 1.78484L28.5711 1.75663L28.5895 1.73783L28.5986 1.71902L28.6262 1.69081L28.6629 1.672L28.672 1.6626L28.6904 1.6532L28.7179 1.64379L28.7362 1.63439H28.7546L28.7729 1.62499H28.8004L28.8188 1.61558H28.8463L28.8738 1.60618H28.9197ZM31.0019 5.05717L29.626 4.85031L29.6443 4.7563C30.0754 4.80332 30.103 4.69046 30.1488 4.33315L30.4974 1.93532L30.2497 1.89771C29.7269 1.81308 29.5893 1.8883 29.4058 2.39608L29.2957 2.37727L29.4425 1.56859L32.0935 1.96353L32.0018 2.79102L31.8917 2.77221C31.8642 2.22677 31.7449 2.12333 31.2312 2.03871L30.9744 2.00109L30.6258 4.46474C30.5799 4.79384 30.6258 4.8879 31.0111 4.96314L31.0019 5.05717ZM33.4602 3.62786L33.3501 3.90997C33.0199 4.88791 33.4695 5.7248 34.2859 6.00689C35.1023 6.28899 35.9553 5.91286 36.2856 4.94432C36.6433 3.88175 36.0838 3.09188 35.35 2.83799L35.2766 2.80978L35.2123 2.79097L35.139 2.77217L34.9188 2.74396H34.772L34.6986 2.75336H34.6344L34.561 2.76276L34.3408 2.81918L34.2766 2.84739L34.2032 2.8756L34.0105 2.98844L33.8821 3.08247L33.8179 3.13889L33.7628 3.19531L33.5978 3.39279L33.5519 3.46801L33.5061 3.55264L33.4602 3.62786ZM38.2484 6.46766L38.2576 6.43945L38.276 6.40184L38.2851 6.37363V6.33602L38.3035 6.2796V6.23258L38.3126 6.20437V6.18557L38.3035 6.15736V6.11974L38.2943 6.10094V6.08213L38.2576 6.0069L38.2393 5.9975L38.2301 5.97869L38.2117 5.96929L38.175 5.93168L38.1567 5.92227L38.1384 5.90347L38.1108 5.89406L38.0925 5.87526L38.065 5.85645L38.0375 5.84705L38.0099 5.82824L37.9824 5.81884L37.3678 5.49913L36.9092 6.44887C36.7441 6.77797 36.8083 6.87204 37.1018 7.04127L37.0651 7.12589L35.8727 6.51467L35.9093 6.43944C36.2396 6.58051 36.3221 6.54289 36.4964 6.18557L37.4137 4.29552C37.5788 3.957 37.4871 3.88178 37.2302 3.72192L37.2761 3.63729L39.5326 4.78448L39.2391 5.41451L39.1381 5.35811C39.2574 4.94434 39.184 4.81271 38.707 4.56825L38.1291 4.27674C38.0282 4.22032 37.9824 4.22973 37.9181 4.36137L37.4503 5.32991L38.0741 5.64022C38.4226 5.81891 38.5327 5.76246 38.7345 5.46153L38.8354 5.50855L38.3493 6.52409L38.2484 6.46766ZM42.0919 7.69008L42.1836 7.76531L42.6881 6.85322L42.6148 6.79683L42.6088 6.80176C42.5619 6.84051 42.4821 6.90651 42.3854 6.83444C42.3456 6.80474 42.3043 6.74282 42.2543 6.66774C42.1776 6.55262 42.0803 6.40658 41.9359 6.29843C41.5965 6.04451 41.092 6.00695 40.771 6.45828C40.4958 6.85322 40.6242 7.21054 40.826 7.68071C41.1563 8.43298 41.1196 8.61161 40.9636 8.83731C40.8169 9.05356 40.4958 9.15702 40.1931 8.93132C39.6836 8.56478 39.8274 7.93031 39.886 7.67195L39.8904 7.65247L39.8078 7.58662L39.3309 8.50814L39.4226 8.57399C39.4592 8.50816 39.551 8.47057 39.6335 8.52697C39.6762 8.55978 39.7175 8.62089 39.7687 8.69657C39.8495 8.81603 39.9548 8.97181 40.1289 9.10997C40.6792 9.50491 41.2113 9.32628 41.4498 8.98773C41.7566 8.55143 41.5401 8.05216 41.3405 7.59184C41.1701 7.19898 41.012 6.83448 41.2021 6.5617C41.3764 6.31722 41.6608 6.336 41.8534 6.48646C42.2478 6.77797 42.2478 7.31392 42.0919 7.69008ZM42.7431 11.2539L41.7249 10.2948L41.7892 10.2196C42.1194 10.511 42.202 10.4358 42.4404 10.1725L44.0457 8.38593L43.8531 8.20724C43.4678 7.84052 43.3119 7.82169 42.8899 8.14139L42.8074 8.06616L43.3669 7.47376L45.3482 9.32621L44.8162 9.95623L44.7336 9.8716C45.018 9.41082 44.9721 9.2604 44.5869 8.89366L44.4034 8.71502L42.7615 10.5487C42.5413 10.7837 42.523 10.8966 42.8073 11.1881L42.7431 11.2539ZM44.3851 13.0782L45.1647 14.0185L45.2382 13.962C45.1098 13.7928 45.1098 13.6988 45.2749 13.3508L46.5499 10.6333L46.4857 10.5674L44.0732 11.3479C43.8531 11.4231 43.4953 11.536 43.3394 11.5266C43.211 11.5266 43.1559 11.4701 43.1009 11.4138L43.0367 11.4701L43.6421 12.2036L43.7063 12.1472L43.6996 12.1384C43.6332 12.0512 43.5095 11.8889 43.6513 11.7617C43.6972 11.724 43.7522 11.6865 43.8164 11.6676L44.3851 11.4702L45.1923 12.4293L44.9722 12.8901L44.9609 12.9107L44.9522 12.9269C44.9125 13.0009 44.8519 13.1138 44.7979 13.1534C44.6695 13.2757 44.5594 13.1534 44.4493 13.0218L44.3851 13.0782ZM46.0362 15.4008L45.2565 14.2254L45.3299 14.1783C45.5959 14.5357 45.6876 14.4793 45.9812 14.2818L47.9441 12.9183L47.7974 12.7021C47.513 12.2601 47.3663 12.2037 46.8709 12.4106L46.8067 12.3166L47.4947 11.8746L48.999 14.1408L48.3477 14.6298L48.2835 14.5263C48.6596 14.1502 48.6596 13.9904 48.3569 13.539L48.2193 13.3227L46.2104 14.7238C45.9444 14.9025 45.8985 15.0059 46.1095 15.3538L46.0362 15.4008ZM47.6048 18.344L46.4398 16.0026L46.5132 15.965C46.6783 16.2377 46.7608 16.3129 47.0819 16.1437L48.9623 15.1657C49.2926 14.987 49.2742 14.8648 49.155 14.5827L49.2375 14.5451L50.3841 16.8395L49.7879 17.1686L49.7329 17.0651C50.0723 16.8018 50.0814 16.6514 49.843 16.1718L49.5586 15.5888C49.5128 15.4948 49.4852 15.4477 49.3385 15.523L48.4028 16.0119L48.733 16.6796C48.9257 17.0651 49.0541 17.0557 49.3751 16.9429L49.421 17.0463L48.4395 17.5541L48.3936 17.4601C48.7055 17.2344 48.733 17.131 48.5587 16.7737L48.2285 16.0966L47.1828 16.6514C47.0086 16.7361 47.0086 16.7454 47.3296 17.3849C47.5956 17.9303 47.8341 18.0807 48.3569 18.0431L48.4119 18.1653L47.6048 18.344ZM25.379 4.73746L22.8381 5.05717L22.8289 4.96315C23.1225 4.90676 23.2325 4.85031 23.1866 4.47421L22.9206 2.33967C22.8748 1.95414 22.7647 1.94473 22.462 1.95414L22.4528 1.86951L24.957 1.5498L25.0487 2.23625L24.9386 2.24565C24.8102 1.83187 24.6727 1.76606 24.1498 1.83187L23.5169 1.9165C23.416 1.9259 23.3701 1.93531 23.3793 2.09516L23.5169 3.16713L24.2415 3.0731C24.6635 3.02608 24.691 2.90384 24.7002 2.55592L24.8103 2.53711L24.9479 3.6561L24.8378 3.67491C24.7369 3.29878 24.6543 3.23295 24.2691 3.27997L23.5353 3.3646L23.682 4.55881C23.6903 4.61817 23.6961 4.65968 23.7191 4.68642C23.7725 4.74864 23.9191 4.73085 24.4067 4.67166C24.9937 4.59643 25.2139 4.41779 25.3607 3.91L25.4983 3.89119L25.379 4.73746ZM21.8933 2.03872L21.9483 2.01992L21.9208 1.92588L21.0127 2.18917L20.6549 4.84089L18.9488 2.79099L18.0407 3.05427L18.0682 3.1389C18.4076 3.06367 18.5176 3.07309 18.6186 3.4304L19.1414 5.32986C19.2882 5.83762 19.2056 5.93169 18.8662 6.06331L18.8937 6.14794L19.967 5.83762L19.9394 5.74361C19.6001 5.82823 19.4808 5.753 19.3432 5.27344L18.8295 3.41159H18.8387L20.6825 5.63076L20.7467 5.61196L21.1686 2.61231H21.1778L21.7557 4.7093C21.8657 5.09485 21.8291 5.17947 21.4713 5.3017L21.4988 5.39572L22.7739 5.01956L22.7555 4.93494C22.4528 5.00078 22.3336 4.99133 22.2419 4.62462L21.664 2.5559L21.6548 2.5371V2.49948L21.6456 2.49008V2.47127L21.6365 2.45247V2.41485L21.6273 2.39605V2.2644L21.6365 2.24559V2.22679L21.6456 2.21738L21.6548 2.19858L21.664 2.18917L21.6732 2.17037L21.6823 2.16096L21.6915 2.14216L21.7098 2.13275L21.719 2.12335L21.7557 2.10454L21.7649 2.09514L21.7832 2.08574L21.8107 2.07633L21.8474 2.05753L21.875 2.04812L21.8933 2.03872ZM18.2792 6.49588L17.0225 7.08828L16.9767 7.00365C17.3711 6.7968 17.3344 6.69334 17.1876 6.36423L16.1969 4.15446L15.9676 4.2673C15.4907 4.48358 15.4081 4.62463 15.5365 5.15121L15.4264 5.19823L15.1146 4.43657L17.5545 3.29877L17.9123 4.03223L17.8113 4.08864C17.4995 3.6373 17.3435 3.61848 16.8757 3.83477L16.6372 3.94761L17.6462 6.20439C17.7838 6.50532 17.8756 6.57111 18.2425 6.41125L18.2792 6.49588ZM15.9768 7.64308L16.6281 7.23875L16.5822 7.16347C16.4079 7.25752 16.2703 7.23869 16.1052 7.19168L14.6559 6.65572L14.6734 6.63877C14.8592 6.45936 15.2875 6.04564 14.9678 5.50852C14.5825 4.86911 13.8671 5.19821 13.5001 5.4239L12.3902 6.11974L12.4361 6.20437C12.7388 6.04451 12.8214 6.04451 13.0048 6.35483L14.0781 8.15086C14.2615 8.46119 14.289 8.56459 13.9771 8.79029L14.023 8.86552L15.1421 8.16968L15.0962 8.08506C14.766 8.27308 14.6835 8.21668 14.5092 7.94398L14.023 7.12591L14.2431 6.97545L15.9768 7.64308ZM13.9863 8.88429L13.0507 9.67418L12.9957 9.59895L12.9979 9.59698C13.1254 9.4849 13.2427 9.38188 13.1333 9.24162C13.0947 9.18619 12.9845 9.12409 12.9123 9.0834L12.8957 9.07399L12.8764 9.06293L12.4362 8.82785L11.473 9.63652L11.6565 10.2195C11.684 10.2854 11.7115 10.3512 11.7482 10.3888C11.8627 10.5423 12.028 10.4097 12.114 10.3406L12.1243 10.3324L12.1793 10.4076L11.4546 11.0188L11.3904 10.9436C11.4546 10.8966 11.5097 10.8307 11.5188 10.7085C11.5188 10.5393 11.4179 10.1725 11.3537 9.94683L10.6382 7.46437L10.7116 7.39853L13.3351 8.762C13.6745 8.94069 13.757 8.94069 13.9313 8.80902L13.9863 8.88429ZM8.62938 9.43909L7.75796 10.3606L7.82217 10.4264C8.08821 10.1913 8.1616 10.1913 8.40924 10.4358L9.87689 11.9027C10.1246 12.1472 10.198 12.2224 9.94112 12.5327L10.0053 12.5986L10.9318 11.6207L10.8676 11.5548C10.6107 11.8275 10.5006 11.8275 10.253 11.583L9.6384 10.9718C9.67967 10.9295 9.71647 10.8941 9.75316 10.8589C9.78982 10.8236 9.82649 10.7884 9.86773 10.7461C10.2163 10.3794 10.3631 10.0973 10.3631 9.8058C10.3722 9.69296 10.3722 9.40148 10.1062 9.13817C9.67509 8.70564 9.08803 8.95953 8.62938 9.43909ZM9.8402 12.8055L8.28082 14.893L8.21659 14.8271C8.38168 14.5733 8.41838 14.4604 8.12488 14.2253L6.44624 12.9183C6.15269 12.6832 6.06098 12.7584 5.85918 12.9935L5.78579 12.9371L7.31766 10.8872L7.86803 11.2915L7.79464 11.395C7.41854 11.1881 7.28098 11.2351 6.95992 11.6677L6.57465 12.1943C6.51043 12.2695 6.47373 12.3165 6.60217 12.42L7.44608 13.0688L7.88635 12.4764C8.14321 12.1378 8.07898 12.025 7.84966 11.7711L7.91389 11.6865L8.78531 12.3729L8.72108 12.4576C8.38167 12.2695 8.28997 12.2883 8.04229 12.5986L7.5928 13.191L8.52843 13.9245C8.68437 14.0467 8.68437 14.0467 9.11549 13.4732C9.47322 12.9936 9.50991 12.7115 9.25311 12.2413L9.33566 12.1285L9.8402 12.8055ZM6.57468 17.7328L6.55633 17.7704L6.63887 17.808L7.29935 16.6138C8.02399 15.3161 7.40024 14.5169 6.84986 14.1972C5.92341 13.6518 5.09785 14.0655 4.53831 15.0811L3.90539 16.2189L3.98794 16.2659C4.18974 15.9555 4.25395 15.9368 4.56583 16.106L6.40039 17.178L6.41874 17.1968L6.44626 17.2062L6.47378 17.225L6.49212 17.2438L6.51047 17.2532L6.52881 17.272L6.54716 17.2814L6.56551 17.3002L6.58385 17.3096L6.59302 17.319L6.6022 17.3378L6.62971 17.3661V17.3849L6.63889 17.3943L6.64806 17.4131V17.4413L6.65724 17.4601V17.4977L6.64806 17.5165V17.5353L6.63889 17.5635V17.5823L6.62972 17.6011L6.61137 17.6576L6.6022 17.6764L6.58385 17.7046L6.57468 17.7234V17.7328ZM52.0939 29.9257L51.8944 31.1481L51.7994 31.1293C51.8279 30.9601 51.8469 30.7908 51.6664 30.772C51.5904 30.7532 51.4289 30.7908 51.3528 30.8096L50.8492 30.9319L50.6497 32.1919L51.1818 32.5022C51.2388 32.5398 51.3053 32.5586 51.3623 32.5681C51.5619 32.6057 51.5999 32.3706 51.6094 32.2766L51.7043 32.286L51.5523 33.2357L51.4573 33.2263C51.4668 33.1417 51.4668 33.0665 51.3908 32.963C51.2952 32.8426 51.0089 32.6593 50.8153 32.5353L50.7637 32.5022L48.5404 31.1199L48.5594 31.0259L51.5048 30.2737C51.8849 30.1796 51.9514 30.1138 51.9989 29.9069L52.0939 29.9257ZM49.158 33.3673L49.2055 33.3767L49.2435 33.2638L48.1794 32.9724L48.1509 33.0664C48.2669 33.1484 48.2456 33.2733 48.2383 33.3164L48.2372 33.3229C48.2367 33.3259 48.2364 33.3297 48.2364 33.3297C48.224 33.3634 48.1894 33.4131 48.1435 33.4791C48.0485 33.6156 47.9049 33.8219 47.8088 34.1007C47.5523 34.8906 47.8658 35.8498 48.911 36.1789C50.0701 36.555 50.7828 35.8968 51.0298 35.1539C51.2834 34.3748 50.917 33.8189 50.8573 33.7281L50.852 33.7201L50.8503 33.7175L50.8492 33.7152L50.7352 33.7716C50.8302 33.9597 51.0488 34.4016 50.8682 34.9658C50.6782 35.5488 50.0891 35.972 49.0915 35.6523C48.4264 35.436 48.1888 35.1351 48.0653 34.9C47.9418 34.6461 47.9323 34.3452 48.0083 34.1101L48.0463 34.0161L48.0938 33.9221L48.1223 33.8751L48.1413 33.8281L48.1698 33.7904L48.2079 33.7528L48.2649 33.6776L48.3029 33.6494L48.3314 33.6212L48.4454 33.5366L48.4834 33.5178L48.5214 33.4895L48.5594 33.4707L48.6069 33.4519L48.6449 33.4425L48.6924 33.4237L48.7399 33.4143L48.7779 33.4049L48.9205 33.3767H48.968L49.0155 33.3673H49.158ZM49.5285 38.4545L49.538 38.4357L49.5475 38.4263V38.4075L49.5665 38.3698V38.3604L49.576 38.3416V38.3228L49.5855 38.3134V38.2946L49.5951 38.2758L49.614 38.2194V38.0783L49.6046 38.0595L49.5951 38.0501L49.5856 38.0313L49.5761 38.0219L49.5666 38.0031L49.5571 37.9937L49.5476 37.9749L49.5285 37.9655L49.5095 37.9467L49.4715 37.9279L49.4525 37.9091L49.424 37.8997L49.405 37.8903L49.3765 37.8715L49.348 37.8621L49.3195 37.8433L47.3337 36.9593C47.0012 36.8089 46.9157 36.8465 46.7351 37.2038L46.6496 37.1662L47.2482 35.8591L47.3337 35.8968C47.2007 36.2259 47.1817 36.3481 47.5428 36.508L49.5285 37.3919C49.8801 37.5517 49.9656 37.4671 50.1271 37.138L50.2126 37.185L49.614 38.5014L49.5285 38.4545ZM49.044 39.5923L49.443 38.9152L49.367 38.8682C49.253 39.0374 49.12 39.0939 48.949 39.1221L47.3622 39.3572L47.3685 39.3394C47.458 39.0846 47.6625 38.5031 47.1057 38.1817C46.4596 37.7962 45.9465 38.4356 45.728 38.8024L45.0344 39.959L45.1105 40.006C45.3195 39.7333 45.3955 39.6863 45.709 39.8743L47.5428 40.9463C47.8563 41.1344 47.9419 41.2002 47.7518 41.5481L47.8373 41.6045L48.5309 40.4479L48.4549 40.3915C48.2364 40.7206 48.1318 40.7112 47.8468 40.5514L47.0107 40.0624L47.1437 39.8274L49.044 39.5923ZM47.3717 42.2158L45.7185 44.2657L45.6425 44.2093C45.823 43.9554 45.861 43.8332 45.5665 43.5981L43.8562 42.2628C43.5522 42.0184 43.4572 42.0936 43.2481 42.3099L43.1721 42.2535L44.8064 40.2411L45.3669 40.6643L45.2909 40.7583C44.9014 40.5421 44.7589 40.5985 44.4168 41.0122L43.9987 41.5294L43.9967 41.532C43.9409 41.6057 43.9052 41.6528 44.0272 41.7551L44.8823 42.4321L45.3574 41.8491C45.6329 41.5106 45.5664 41.3978 45.3289 41.1439L45.4049 41.0498L46.2885 41.7551L46.222 41.8491C45.8799 41.6516 45.7755 41.661 45.5189 41.9713L45.0344 42.5543L45.994 43.3066C46.146 43.4288 46.146 43.4288 46.6116 42.8646C46.9917 42.3944 47.0296 42.1123 46.7826 41.6328L46.8681 41.5293L47.3717 42.2158ZM43.1721 42.4603L43.2006 42.4415L43.1341 42.3662L42.412 43.015L43.2672 45.5539L40.7588 44.4819L40.0367 45.1308L40.0937 45.1966C40.3787 44.9709 40.4832 44.9333 40.7398 45.2154L42.0795 46.6823C42.431 47.0679 42.4025 47.1901 42.146 47.4628L42.203 47.5287L43.0581 46.7576L43.0011 46.6917C42.7256 46.9174 42.5736 46.908 42.241 46.5413L40.9203 45.0932H40.9298L43.6377 46.2498L43.6852 46.2028L42.7446 43.3254L42.7541 43.316L44.2268 44.9427C44.5023 45.2343 44.5023 45.3283 44.2268 45.601L44.2933 45.6668L45.3195 44.7641L45.2529 44.6888C45.0059 44.8863 44.8919 44.9239 44.6354 44.6512L43.1816 43.0433L43.1626 43.0339L43.1531 43.0151L43.1341 42.9963L43.1246 42.9775L43.0961 42.9493L43.0866 42.9304L43.0676 42.9116V42.9022L43.0486 42.8834L43.0201 42.827V42.8082L43.0106 42.7894V42.7048L43.0201 42.686V42.6672L43.0296 42.6483L43.0391 42.6389L43.0676 42.5825L43.0961 42.5543L43.1056 42.5355L43.1626 42.4791L43.1721 42.4603ZM41.6804 47.8672L40.6163 48.5254L40.5688 48.4502C40.7208 48.3561 40.8538 48.2621 40.7588 48.1116C40.7208 48.0458 40.5783 47.9424 40.5213 47.9048L40.0937 47.6133L39.0106 48.2903L39.1151 48.8827C39.1341 48.9485 39.1531 49.0144 39.1816 49.0614C39.2956 49.2306 39.4856 49.1178 39.5806 49.0614L39.6282 49.1366L38.8016 49.6444L38.7541 49.5692C38.8206 49.5222 38.8871 49.4751 38.9061 49.3435C38.9346 49.1836 38.8776 48.8075 38.8396 48.5724L38.431 46.0147L38.5165 45.9677L41.0344 47.6603C41.3574 47.886 41.4429 47.8954 41.633 47.7919L41.6804 47.8672ZM36.4452 49.4657L36.4547 49.4751L36.5592 49.4375L36.1412 48.3843L36.0366 48.4314C36.1222 48.7887 36.0747 48.9109 35.7041 49.052L35.039 49.3058L34.64 48.2997C34.5925 48.1681 34.6114 48.1305 34.7255 48.0928L35.3526 47.8484C35.8561 47.6603 36.0081 47.6791 36.2362 48.0552L36.3502 48.0176L36.0842 47.3782L33.6423 48.3091L33.6803 48.3937C33.9844 48.3091 34.0983 48.2903 34.2409 48.6476L35.02 50.6129C35.1625 50.9796 35.134 51.0736 34.8015 51.2241L34.83 51.3087L36.1127 50.8103L36.0747 50.7257C35.7516 50.8385 35.6376 50.8198 35.5046 50.4812L35.115 49.4939L35.7801 49.24L35.8086 49.2306L35.8371 49.2118L35.8656 49.2024H35.8941L35.9796 49.1742H35.9986L36.0272 49.1648H36.1317L36.1507 49.1742H36.1697L36.2457 49.2118L36.2742 49.24L36.2932 49.2494L36.3312 49.287L36.3502 49.3152L36.3597 49.3341L36.4357 49.4469L36.4452 49.4657ZM30.7349 50.6787L30.7159 50.5753L30.6969 50.4813L30.6874 50.3778L30.6779 50.2838V50.1051L30.6969 49.9359L30.7349 49.7667L30.8204 49.541L30.8489 49.4751L30.8869 49.3999L30.9344 49.334L30.9724 49.2777L31.0199 49.2118L31.0769 49.1554L31.1244 49.099L31.2954 48.958L31.3619 48.9109L31.4284 48.8733L31.4854 48.8357L31.5614 48.7981L31.6945 48.7417L31.7705 48.7135L31.837 48.6947L31.9131 48.6759C32.6922 48.4972 33.6138 48.864 33.8703 49.9453C34.1079 50.9515 33.5568 51.7413 32.6922 51.9388C31.818 52.1457 30.9724 51.6849 30.7349 50.6787ZM28.4641 50.2462H28.5876L28.4451 49.2118H28.3405L28.3389 49.2217C28.3296 49.2804 28.3135 49.381 28.179 49.381C28.1287 49.3848 28.0532 49.3606 27.9614 49.3312C27.8279 49.2883 27.66 49.2344 27.4854 49.24C27.0483 49.2588 26.6113 49.5409 26.6303 50.0957C26.6398 50.5752 26.9628 50.7821 27.4284 51.0266C28.16 51.4215 28.2455 51.5814 28.255 51.8541C28.2645 52.1174 28.084 52.3995 27.6849 52.4183C27.0198 52.4371 26.7443 51.8165 26.6493 51.5908H26.5353L26.7158 52.6158H26.8298C26.8203 52.5311 26.8678 52.4465 26.9724 52.4465C27.0245 52.4465 27.0918 52.4679 27.1743 52.494C27.3176 52.5395 27.5068 52.5995 27.742 52.5876C28.4451 52.5688 28.7586 52.0892 28.7491 51.6755C28.7287 51.1398 28.2445 50.8811 27.7979 50.6426C27.4136 50.4373 27.0572 50.2469 27.0484 49.9077C27.0294 49.6067 27.2764 49.4469 27.5235 49.4375C28.0461 49.4281 28.3691 49.8512 28.4641 50.2462ZM25.6992 52.5406L23.0578 52.2961L23.0673 52.2021C23.3809 52.2115 23.5044 52.1833 23.5329 51.8071L23.7324 49.6632C23.7704 49.2776 23.6564 49.24 23.3524 49.1836L23.3619 49.0896L25.9557 49.3341L25.9082 50.0205L25.7847 50.0111C25.7562 49.5786 25.6327 49.4846 25.0911 49.4375L24.4355 49.3811C24.331 49.3623 24.2645 49.3623 24.255 49.5222L24.1504 50.6036L24.9105 50.6694C25.3381 50.707 25.4046 50.5942 25.4901 50.2557L25.6041 50.2651L25.4901 51.3935L25.3856 51.3841C25.3571 50.9892 25.2906 50.9139 24.8915 50.8763L24.1314 50.7917L24.0173 51.9953C24.0118 52.0534 24.0078 52.0944 24.0236 52.1252C24.0616 52.1993 24.2135 52.2149 24.7299 52.268C25.338 52.315 25.6041 52.2022 25.8606 51.7321L26.0031 51.7415L25.6992 52.5406ZM20.4545 51.7319L21.8512 52.0516L21.8701 51.967C21.4806 51.8542 21.4426 51.7507 21.5186 51.431L22.0792 49.0144L22.3357 49.0708C22.8678 49.193 22.9818 49.3153 22.9533 49.8512L23.0768 49.8795L23.2288 49.0708L20.5304 48.4502L20.3119 49.2494L20.4259 49.2776C20.654 48.7793 20.806 48.7229 21.3286 48.8451L21.5946 48.9015L21.0435 51.2711C20.958 51.6191 20.92 51.7225 20.4735 51.6473L20.4545 51.7319ZM19.7799 51.6003L18.6017 51.1771L18.6397 51.0925C18.8107 51.1489 18.9627 51.1959 19.0198 51.0266C19.0578 50.9514 19.0483 50.7822 19.0388 50.7069L19.0198 50.1991L17.8036 49.7666L17.3951 50.2273C17.3476 50.2743 17.3096 50.3308 17.2905 50.3872C17.227 50.5667 17.4233 50.6434 17.5239 50.6827L17.5376 50.6881L17.5091 50.7727L16.5969 50.4436L16.6254 50.359L16.644 50.3637C16.7141 50.3818 16.7875 50.4007 16.901 50.3402C17.0377 50.268 17.2879 50.0057 17.4506 49.835L17.4711 49.8136L19.2668 47.9236L19.3618 47.9612L19.5424 50.9608C19.5709 51.3557 19.6184 51.4216 19.8179 51.5062L19.7799 51.6003ZM14.5731 49.3905L15.8463 50.0487L15.8938 49.9735C15.5328 49.7667 15.5232 49.6632 15.6753 49.3623L16.8344 47.1619L17.072 47.2842C17.5565 47.5287 17.6325 47.6697 17.4805 48.1963L17.5755 48.2527L17.9366 47.5004L15.4757 46.2404L15.0672 46.9551L15.1717 47.0114C15.5137 46.5883 15.6753 46.5695 16.1598 46.814L16.3879 46.9362L15.2572 49.0896C15.0862 49.4093 15.0197 49.5033 14.6206 49.3153L14.5731 49.3905ZM14.5066 46.7482L14.4116 46.6823C14.5732 46.3062 14.5637 45.7702 14.1456 45.4787C13.946 45.3376 13.6515 45.3188 13.471 45.5727C13.2787 45.8452 13.4483 46.2073 13.6311 46.5975C13.8457 47.0557 14.0785 47.5527 13.7655 47.9894C13.528 48.3373 12.9864 48.5253 12.4068 48.1304C12.2226 47.9993 12.1116 47.851 12.0253 47.7357C11.9691 47.6606 11.9234 47.5995 11.8748 47.5662C11.7892 47.5003 11.7037 47.5474 11.6562 47.6038L11.5707 47.5474L12.0458 46.6165L12.1408 46.6823L12.1387 46.6914C12.08 46.9427 11.929 47.5896 12.4733 47.9611C12.7964 48.1774 13.1099 48.0646 13.2619 47.8483C13.4235 47.6226 13.452 47.444 13.1004 46.6917C12.8819 46.2215 12.7489 45.8642 13.0244 45.4787C13.3474 45.0179 13.87 45.0461 14.2311 45.3C14.3838 45.4047 14.4894 45.5525 14.5701 45.6656C14.62 45.7354 14.6604 45.792 14.6967 45.8172C14.8107 45.9018 14.8962 45.8172 14.9342 45.7796L15.0197 45.8359L14.5066 46.7482ZM7.56115 43.6169L7.54215 43.5981L7.47565 43.6639L8.44478 44.6606C9.48043 45.7232 10.4495 45.3471 10.9151 44.8957C11.7133 44.1435 11.5517 43.2125 10.7441 42.3757L9.82249 41.4353L9.75596 41.4917C9.99347 41.7832 9.99347 41.8585 9.73696 42.1029L8.15973 43.5981L8.14073 43.6263L8.11222 43.6451L8.07422 43.6827L8.05522 43.6921L8.03621 43.7109L8.01721 43.7203L7.99821 43.7391L7.9412 43.7673H7.9317L7.9127 43.7767H7.87469L7.85569 43.7861L7.84619 43.7767H7.80818L7.78918 43.7673H7.77018L7.75117 43.7579L7.74167 43.7485L7.72267 43.7391L7.69417 43.7203L7.67516 43.7109L7.63716 43.6733L7.60865 43.6639L7.58965 43.6357L7.56115 43.6169ZM7.00054 43.0433L5.45183 40.9087L5.52784 40.8523C5.72737 41.0968 5.83191 41.1626 6.14543 40.9463L7.91268 39.6863C8.22623 39.47 8.18823 39.3572 8.02671 39.0939L8.10272 39.0375L9.62293 41.1344L9.06236 41.5481L8.98634 41.4541C9.29989 41.1438 9.29041 40.9934 8.97684 40.5608L8.58727 40.0248C8.53029 39.9402 8.49228 39.8932 8.35922 39.9872L7.4661 40.6172L7.90316 41.2284C8.15968 41.5764 8.28324 41.5481 8.60626 41.3883L8.67279 41.4823L7.74166 42.1405L7.67513 42.0465C7.96016 41.7738 7.97914 41.6704 7.74166 41.3413L7.30459 40.7301L6.31646 41.4259L6.31272 41.4287C6.15482 41.5482 6.14877 41.5528 6.57297 42.1406C6.93402 42.6295 7.19055 42.7424 7.72263 42.6295L7.80814 42.7424L7.00054 43.0433ZM4.17864 38.5955L4.85323 39.8555L4.93879 39.8085C4.74875 39.4417 4.80574 39.3477 5.1098 39.1879L7.32361 38.0313L7.44713 38.257C7.70364 38.7365 7.68466 38.8964 7.25708 39.2349L7.31407 39.3384L8.04568 38.9246L6.74399 36.5079L5.99339 36.8653L6.04089 36.9687C6.56348 36.8183 6.71551 36.8841 6.97202 37.3637L7.09554 37.5894L4.91973 38.7271C4.59667 38.8964 4.49219 38.9341 4.26414 38.5579L4.17864 38.5955ZM3.21901 36.1601L3.22851 36.1789L3.23801 36.1883L3.24752 36.2071V36.2259L3.25702 36.2353L3.27602 36.2729V36.2823L3.29502 36.3105L3.30452 36.3293L3.32353 36.3575L3.33303 36.3763L3.35203 36.3952L3.36153 36.414L3.40904 36.461L3.42804 36.4704L3.43754 36.4798L3.45654 36.4892H3.47555L3.48505 36.4986H3.60857L3.6276 36.4892H3.6466L3.6751 36.4798L3.69411 36.4704L3.80812 36.4328L5.84141 35.6241C6.17394 35.4924 6.20246 35.4078 6.06946 35.0223L6.15496 34.9941L6.69656 36.3293L6.61106 36.367C6.46851 36.0473 6.38301 35.9438 6.02198 36.0849L3.99819 36.8935C3.63714 37.0346 3.63714 37.1568 3.77016 37.4954L3.67515 37.533L3.13357 36.1883L3.21901 36.1601ZM5.96492 34.8906L5.97443 34.9188L6.05988 34.8907L5.75582 33.7905L5.67031 33.8187C5.73684 34.1384 5.73684 34.2795 5.18575 34.4299L3.59903 34.8531V34.8437L5.38528 32.4364L5.16677 31.6372L5.07178 31.6654C5.12882 31.844 5.12882 31.9287 4.93878 32.1826L2.84849 32.7468C2.33542 32.8878 2.2404 32.8031 2.11689 32.4552L2.02187 32.474L2.32591 33.5742L2.42093 33.5554C2.33541 33.2075 2.41142 33.0852 2.90549 32.9536L4.75826 32.4552V32.4646L2.72497 35.2198L2.74397 35.3044L5.24282 34.6367L5.27133 34.6273H5.29033L5.31883 34.6179L5.33784 34.6085H5.36634L5.38534 34.5991H5.40435L5.43285 34.5897H5.47086L5.48986 34.5803H5.68939L5.70839 34.5897L5.73689 34.5991L5.7939 34.6273L5.8034 34.6367L5.8224 34.6461L5.84141 34.665L5.85091 34.6838L5.87941 34.712L5.89842 34.7496L5.90792 34.7778L5.92692 34.8154L5.93642 34.8436L5.94592 34.8624L5.96492 34.8906ZM5.0623 31.5713L5.0528 31.5431V31.5055L5.01479 31.3926L5.00529 31.3738L4.99579 31.3456L4.96728 31.2892L4.91028 31.2328L4.85327 31.2046L4.82476 31.1951L4.80576 31.1857H4.78676L4.75826 31.1763H4.70125L4.67274 31.1669H4.63474L4.59673 31.1763H4.45421L4.43521 31.1857H4.3877L3.11452 31.3268L3.10695 31.3275C2.70405 31.3655 1.80245 31.4506 1.66082 30.2078C1.5373 29.0136 2.48744 28.9101 2.78198 28.8819L4.31169 28.7221C4.67274 28.675 4.72024 28.6092 4.70126 28.2331L4.79625 28.2237L4.9388 29.5966L4.85329 29.606C4.77728 29.2299 4.71081 29.1734 4.35924 29.2111L2.80103 29.3803C2.48748 29.4085 1.80339 29.4838 1.8984 30.3206C1.9364 30.6967 2.12643 30.9601 2.36396 31.0729C2.47797 31.1293 2.649 31.1575 3.04806 31.1105L4.35924 30.9789C4.8913 30.9225 4.95783 30.7908 4.93882 30.4523L5.03382 30.4429L5.15733 31.5619L5.0623 31.5713ZM50.6158 22.4344L50.897 23.2686L51.7875 23.2499L51.1689 23.7842L51.4688 24.7215L50.7002 24.2247L49.8941 24.7402L50.1941 23.8498L49.4911 23.3061L50.3628 23.2874L50.6158 22.4344ZM3.61879 23.2686L3.3376 22.4344L3.07515 23.2874L2.21282 23.3061L2.9158 23.8498L2.60649 24.7402L3.42196 24.2247L4.18118 24.7215L3.88124 23.7842L4.49987 23.2499L3.61879 23.2686Z" fill="#66747B" fill-opacity="0.6"/>
</svg>
