<svg width="14" height="12" viewBox="0 0 14 12" fill="none" xmlns="http://www.w3.org/2000/svg">
<path d="M10.5 10.5C10.5 10.7734 10.2734 11 10 11C9.72656 11 9.5 10.7734 9.5 10.5C9.5 10.2266 9.72656 10 10 10C10.2734 10 10.5 10.2266 10.5 10.5ZM12.5 10.5C12.5 10.7734 12.2734 11 12 11C11.7266 11 11.5 10.7734 11.5 10.5C11.5 10.2266 11.7266 10 12 10C12.2734 10 12.5 10.2266 12.5 10.5ZM13.5 8.75C13.5 8.33594 13.1641 8 12.75 8H9.125L8.0625 9.0625C7.77344 9.34375 7.39844 9.5 7 9.5C6.60156 9.5 6.22656 9.34375 5.9375 9.0625L4.88281 8H1.25C0.835938 8 0.5 8.33594 0.5 8.75V11.25C0.5 11.6641 0.835938 12 1.25 12H12.75C13.1641 12 13.5 11.6641 13.5 11.25V8.75ZM10.9609 4.30469C10.8828 4.125 10.7031 4 10.5 4H8.5V0.500001C8.5 0.226563 8.27344 0 8 0H6C5.72656 0 5.5 0.226563 5.5 0.500001V4H3.5C3.29688 4 3.11719 4.125 3.03906 4.30469C2.96094 4.49219 3 4.71094 3.14844 4.85156L6.64844 8.35156C6.74219 8.45313 6.875 8.5 7 8.5C7.125 8.5 7.25781 8.45313 7.35156 8.35156L10.8516 4.85156C11 4.71094 11.0391 4.49219 10.9609 4.30469Z" fill="#D40046"/>
</svg>
