<svg width="45" height="24" viewBox="0 0 45 24" fill="none" xmlns="http://www.w3.org/2000/svg">
<path d="M35.2854 0.426723L32.0777 13.5788L28.8699 0.426723H19.5256V5.32382C18.4098 1.12632 14.3652 0.00692313 10.5996 0.00692313C6.1366 -0.132977 1.1158 1.82592 0.8368 7.84222H7.1129C7.1129 6.02332 8.7865 5.04392 10.3207 5.04392C12.2732 5.04392 13.11 5.88342 13.2495 7.14272C13.11 8.26202 12.5522 8.96162 10.3207 8.96162H8.2286V13.4389H10.1812C11.2969 13.4389 12.8311 13.9985 12.8311 15.5376C12.9706 17.3565 11.5759 18.196 10.0417 18.196C7.2524 18.0561 6.555 15.9574 6.555 13.9985H0C0 15.2578 -1.90735e-06 23.5128 10.1812 23.3729C15.0626 23.5128 18.5493 21.4141 19.665 18.6158V22.9532H25.9411V8.82172L29.2883 22.9532H35.0065L38.3537 8.82172V22.9532H44.7693V0.426723H35.2854ZM19.665 13.5788C19.1568 12.3828 18.2073 11.4302 17.0151 10.9204C18.4098 10.3607 19.1072 9.52122 19.665 7.98222V13.5788Z" fill="#66747B" fill-opacity="0.6"/>
</svg>
