<svg width="40" height="52" viewBox="0 0 40 52" fill="none" xmlns="http://www.w3.org/2000/svg">
<path d="M18.121 1.93281C18.1839 1.87562 18.2695 1.81629 18.3114 1.80097C18.3533 1.78564 19.2848 1.7713 20.3813 1.76912L22.375 1.7651L22.3751 2.45083L19.0206 2.4227L18.8946 2.54875C18.7381 2.70525 18.7311 2.92271 18.8764 3.10749L18.9842 3.24454L20.5653 3.23581C21.4349 3.231 22.1866 3.2435 22.2358 3.26364C22.3679 3.31766 22.384 3.44866 22.366 4.32715C22.3545 4.88579 22.3517 5.10485 22.2417 5.20043C22.1689 5.26358 22.0493 5.2728 21.8495 5.29051C21.6776 5.30574 20.754 5.33253 19.7972 5.35014L18.0575 5.38208V5.07766C18.0575 4.77399 18.0579 4.77319 18.2226 4.74447C18.3134 4.72865 19.0825 4.69978 19.9317 4.68043C21.3391 4.64834 21.4842 4.63693 21.5699 4.55121C21.6933 4.42775 21.689 4.24888 21.5586 4.0831L21.4533 3.94927L20.0475 3.94803C19.2743 3.94738 18.5502 3.92576 18.4384 3.89986C18.3261 3.87397 18.1842 3.79371 18.121 3.72054C18.0132 3.59564 18.0067 3.54366 18.0067 2.81244C18.0067 2.0727 18.012 2.03197 18.121 1.93281Z" fill="#66747B" fill-opacity="0.6"/>
<path d="M23.3921 2.11848C23.4521 2.00638 23.6052 1.91555 23.8227 1.86307C23.9065 1.84283 23.975 1.82413 23.975 1.8215C23.975 1.81887 24.455 1.86322 25.0417 1.92011C27.186 2.12786 27.6335 2.17017 27.6957 2.17076C27.7403 2.17126 27.7592 2.27498 27.7592 2.51789V2.86433L27.4926 2.82519C27.3459 2.80361 26.803 2.73938 26.2862 2.68243C25.7694 2.62548 25.1451 2.55356 24.8989 2.52266C24.395 2.45936 24.1713 2.51021 24.125 2.69855C24.1105 2.75783 24.105 3.22927 24.113 3.74609L24.1274 4.68579L24.3052 4.77046C24.4852 4.85613 24.9875 4.90831 26.6925 5.01844C27.4491 5.0673 27.6725 5.06863 27.7364 5.17027C27.7704 5.22439 27.7592 5.30693 27.7592 5.44017C27.7592 5.61661 27.7488 5.77138 27.736 5.78417C27.7232 5.79692 27.4204 5.77906 27.063 5.74449C23.7182 5.42087 23.5384 5.4108 23.4658 5.31735C23.456 5.30465 23.4481 5.29041 23.4345 5.2736C23.3474 5.16606 23.3401 5.04383 23.3401 3.68627C23.3401 2.78099 23.3601 2.17825 23.3921 2.11848Z" fill="#66747B" fill-opacity="0.6"/>
<path d="M13.4976 3.20903C13.5409 3.11508 13.7431 3.09429 14.6796 2.98467C15.6904 2.86636 15.8046 2.86423 15.8425 2.96294C15.8896 3.08581 15.8794 3.37714 15.8306 3.30025C15.79 3.23621 15.2578 3.27857 14.0701 3.44033C13.4927 3.51895 13.486 3.51761 13.486 3.32084C13.486 3.27356 13.4843 3.23785 13.4976 3.20903Z" fill="#66747B" fill-opacity="0.6"/>
<path fill-rule="evenodd" clip-rule="evenodd" d="M12.8063 2.25861C13.0764 2.22746 14.5648 2.04804 15.4162 1.94407C16.0929 1.86138 16.5639 1.85211 16.6888 1.91897C16.8926 2.028 16.9442 2.23798 16.9551 3.00243L16.9654 3.72769L16.5707 4.10126L16.7001 4.29689C16.7714 4.40454 16.9336 4.69963 17.0607 4.95271C17.1958 5.22176 17.2645 5.34885 17.2267 5.41497C17.1903 5.47856 17.0552 5.48576 16.7858 5.50862L16.4539 5.5368L16.2649 5.15435C16.0671 4.75419 15.7897 4.45721 15.6139 4.45721C15.2742 4.45721 13.6404 4.62245 13.5234 4.66868C13.3547 4.73525 13.3371 4.80062 13.3208 5.42231L13.3082 5.90486L12.9895 5.9502C12.8143 5.97515 12.6623 5.98656 12.6518 5.9756C12.6413 5.96463 12.616 5.13024 12.5956 4.12144L12.5585 2.28719L12.8063 2.25861ZM16.1155 3.22639C16.1354 2.98695 16.1216 2.93437 16.0012 2.79136C15.9591 2.74126 15.9302 2.70505 15.8934 2.68079C15.7956 2.61621 15.6419 2.6362 15.0352 2.70545C13.823 2.84374 13.5069 2.89369 13.3971 2.96403C13.2927 3.03095 13.2828 3.07619 13.2828 3.48706C13.2828 3.81916 13.3021 3.95289 13.3569 3.99833C13.4322 4.06078 14.1499 4.00066 15.3551 3.83086C15.9487 3.74723 16.0811 3.64202 16.1155 3.22639Z" fill="#66747B" fill-opacity="0.6"/>
<path d="M28.5085 5.9307C28.4254 5.93031 28.4196 5.80669 28.4196 4.05086C28.4196 3.01716 28.434 2.17146 28.4518 2.17146C28.4695 2.17146 28.5666 2.19328 28.6676 2.21997C28.7225 2.23446 28.7904 2.25127 28.8531 2.2661C28.9058 2.2786 28.9549 2.28967 28.9896 2.29676L29.128 2.32508L29.1561 3.81822L29.3339 3.8574C29.4316 3.87898 29.7745 3.94143 30.0958 3.99629L30.5099 4.06718C30.7446 4.10741 30.9821 4.14828 31.1371 4.17507L31.8736 4.3023V3.51623C31.8736 3.01021 31.8609 2.80828 31.944 2.7546C32.008 2.71328 32.1288 2.75996 32.3561 2.82341L32.6609 2.90848L32.6742 4.77493C32.6865 6.49445 32.6808 6.64138 32.6022 6.64138C32.5553 6.64138 32.3721 6.61618 32.1952 6.58533L31.8736 6.52937V5.04031L31.0228 4.89651C30.5549 4.81744 29.9474 4.7091 29.673 4.65578C29.3986 4.60241 29.1643 4.5588 29.1523 4.5588C29.1404 4.5588 29.1307 4.88197 29.1307 5.27697V5.99519L28.864 5.96314C28.7173 5.94554 28.5573 5.9309 28.5085 5.9307Z" fill="#66747B" fill-opacity="0.6"/>
<path d="M9.16842 3.87099C9.60144 3.79693 10.0129 3.71747 10.0827 3.6944C10.1526 3.67134 10.2815 3.6507 10.3694 3.64852C10.5411 3.6442 10.5908 3.70983 10.5905 3.94074C10.5904 4.07169 10.5806 4.07631 10.2985 4.0773C9.90693 4.07874 8.66292 4.31019 8.11443 4.4837C8.0198 4.51361 8.00015 4.50077 8.00015 4.409C8.00015 4.10255 8.10976 4.05205 9.16842 3.87099Z" fill="#66747B" fill-opacity="0.6"/>
<path fill-rule="evenodd" clip-rule="evenodd" d="M7.73297 3.18403C7.89388 3.15025 8.67698 2.98953 9.47319 2.82688C10.3928 2.63908 10.9916 2.54017 11.1149 2.55569C11.3621 2.58684 11.5315 2.69806 11.5973 2.87236C11.6259 2.94781 11.6631 3.59718 11.6802 4.31545C11.7147 5.76602 11.6983 5.87267 11.409 6.07867C11.3009 6.15561 10.9887 6.24569 10.4254 6.36241C9.63253 6.52675 7.75592 6.91996 7.492 6.9771C7.39772 6.99749 7.33189 6.96966 7.23803 6.86981C7.12607 6.75066 7.10733 6.67442 7.07802 6.21831L6.9868 4.80266C6.93123 3.94148 6.93305 3.8952 7.03047 3.70422C7.17718 3.41667 7.39553 3.25496 7.73297 3.18403ZM10.8084 4.45717C10.7844 3.81221 10.7605 3.61558 10.697 3.54083C10.5785 3.40144 10.4181 3.39231 9.87954 3.4943C9.61414 3.54455 9.14186 3.63155 8.83008 3.68761C7.79255 3.87422 7.77045 3.90408 7.82018 5.05539C7.84873 5.71607 7.87454 5.9246 7.93639 5.99375C8.02295 6.09048 8.24879 6.10536 8.58428 6.03641C10.566 5.62891 10.723 5.58333 10.795 5.39399C10.8191 5.33035 10.8252 4.90876 10.8084 4.45717Z" fill="#66747B" fill-opacity="0.6"/>
<path d="M19.028 2.94335C18.9901 2.87261 18.998 2.81696 19.0583 2.73089C19.1368 2.61884 19.1588 2.61556 19.6273 2.64657C19.8953 2.66437 20.669 2.67901 21.3464 2.67916L22.5782 2.6794L22.578 3.00957L20.8286 3.02445C19.1576 3.03859 19.077 3.03502 19.028 2.94335Z" fill="#66747B" fill-opacity="0.6"/>
<path d="M24.3054 2.95456C24.3053 2.8684 24.3204 2.78268 24.3391 2.76408C24.4049 2.69825 25.1982 2.76626 26.8703 2.98105C27.9824 3.12391 27.9841 3.1245 28.004 3.36216C28.0198 3.55159 28.0171 3.55487 27.877 3.51871C27.6648 3.46399 27.2567 3.40437 26.4894 3.31607C26.1122 3.27262 25.6322 3.21349 25.4227 3.18457C25.2132 3.15575 24.8761 3.12738 24.6736 3.12162L24.3056 3.11116L24.3054 2.95456Z" fill="#66747B" fill-opacity="0.6"/>
<path d="M33.6514 6.94V5.03823C33.6514 3.99233 33.6617 3.13656 33.6743 3.13656C33.7047 3.13656 34.0583 3.2314 35.0991 3.51861C35.574 3.64971 36.0768 3.78696 36.2165 3.82367C36.3562 3.86038 36.6419 3.93712 36.8515 3.99416C37.061 4.05126 37.4267 4.15022 37.6642 4.21411L38.0959 4.33023L38.1107 4.74928C38.1189 4.98292 38.1046 5.16834 38.0784 5.16834C38.0526 5.16834 37.9202 5.13332 37.7843 5.09051C37.7176 5.06953 37.4947 5.00182 37.1876 4.90906C36.8686 4.81273 36.4587 4.68941 36.0388 4.56347L34.5403 4.1142L34.525 4.42021C34.5166 4.58857 34.528 4.74373 34.5504 4.76506C34.5728 4.78644 35.014 4.92979 35.5308 5.08361C36.0476 5.23739 36.8362 5.4737 37.2832 5.60867L38.0959 5.85407L38.1106 6.29852C38.1187 6.54297 38.1045 6.74297 38.079 6.74297C38.0535 6.74297 37.8553 6.68503 37.6385 6.6143C37.4217 6.54346 37.093 6.44187 36.9082 6.38855C36.7233 6.33518 36.119 6.15308 35.5652 5.98388C35.0114 5.81468 34.5371 5.67628 34.5112 5.67628C34.4853 5.67628 34.4641 5.8242 34.4641 6.00501V6.33374L34.7308 6.40938C35.073 6.50646 36.5732 6.92621 37.4737 7.17686L38.1721 7.37126V8.31095L37.8801 8.21572C37.7194 8.16333 36.8908 7.91149 36.0388 7.65598L33.6514 6.94Z" fill="#66747B" fill-opacity="0.6"/>
<path d="M18.1271 4.40235C17.9236 4.27656 17.7533 3.96212 17.7578 3.72069C17.7594 3.63686 17.7732 3.60259 17.7885 3.6445C17.8313 3.76216 18.0677 4.0012 18.22 4.08077C18.3287 4.13757 18.6572 4.15245 19.8032 4.15245C20.5985 4.15245 21.2854 4.16629 21.3296 4.18325C21.3737 4.20022 21.4099 4.25523 21.4099 4.30553C21.4099 4.41277 21.1594 4.43499 19.3902 4.48504C18.3352 4.51485 18.306 4.51292 18.1271 4.40235Z" fill="#66747B" fill-opacity="0.6"/>
<path d="M2.72553 5.62549C2.78202 5.62549 4.27259 5.1611 4.85088 4.96333C5.19639 4.84517 5.2386 4.84323 5.2772 4.94393C5.3605 5.16095 5.31926 5.19552 4.77067 5.368C4.47511 5.46095 3.88721 5.64836 3.46419 5.78442C3.04118 5.92049 2.68871 6.03185 2.68089 6.03185C2.67311 6.03185 2.66672 5.94043 2.66672 5.82867C2.66672 5.70858 2.6908 5.62549 2.72553 5.62549Z" fill="#66747B" fill-opacity="0.6"/>
<path fill-rule="evenodd" clip-rule="evenodd" d="M3.98737 4.20076C4.53215 4.02883 5.17216 3.83682 5.40962 3.77402C5.88105 3.64936 6.06268 3.66558 6.24591 3.84852C6.34165 3.94416 6.35049 4.02521 6.36502 4.93808C6.37944 5.84444 6.37305 5.93194 6.28608 6.0189C6.23402 6.07093 5.95266 6.18785 5.66085 6.27868C4.65294 6.59257 3.65518 6.90825 3.07307 7.09754L2.48893 7.28752L2.46075 8.59772L2.0685 8.73338C1.85274 8.80799 1.63995 8.88314 1.59561 8.90035C1.52318 8.92843 1.5115 8.73388 1.48087 6.98945C1.46207 5.92133 1.46487 5.0292 1.48706 5.00703C1.5092 4.98485 1.85802 4.86466 2.26213 4.74001C2.66626 4.6153 3.4426 4.37264 3.98737 4.20076ZM5.51121 5.14741C5.51121 4.9472 5.48286 4.79487 5.43213 4.7225C5.33292 4.58083 5.23732 4.58623 4.6985 4.76357C4.46103 4.84175 3.88959 5.02478 3.42863 5.17032C2.96768 5.31576 2.56198 5.45763 2.52703 5.48561C2.4324 5.5612 2.43896 6.48275 2.5344 6.51935C2.57336 6.53429 3.16191 6.37059 3.84236 6.15556C4.52275 5.94057 5.13142 5.75342 5.19491 5.73973C5.40327 5.69469 5.51121 5.49265 5.51121 5.14741Z" fill="#66747B" fill-opacity="0.6"/>
<path d="M16.9571 4.25761C16.8876 4.15835 16.893 4.13657 17.0251 3.98449L17.1686 3.81931L17.1848 3.9641C17.1937 4.04367 17.1631 4.16658 17.1168 4.23722L17.0327 4.36555L16.9571 4.25761Z" fill="#66747B" fill-opacity="0.6"/>
<path d="M35.3657 4.78713C34.9506 4.66362 34.7181 4.56982 34.7181 4.52582C34.7181 4.50429 34.7153 4.48579 34.7228 4.47358C34.7587 4.41515 35.0294 4.50072 36.9612 5.08729C37.5664 5.27102 38.1207 5.44389 38.193 5.47137C38.3415 5.52782 38.3816 5.70094 38.2356 5.65535C37.9493 5.56597 35.912 4.94958 35.3657 4.78713Z" fill="#66747B" fill-opacity="0.6"/>
<path d="M14.2653 4.81035C14.577 4.78128 14.9692 4.73867 15.1368 4.7156C15.3044 4.69254 15.4598 4.67071 15.4822 4.66704C15.5045 4.66337 15.5893 4.69482 15.6707 4.73688C15.8375 4.82314 16.0172 5.1044 16.1832 5.53898C16.2704 5.76751 16.3137 5.82589 16.3765 5.79985C16.4558 5.76701 17.1088 5.68447 17.3323 5.67901C17.4077 5.67718 17.4712 5.72624 17.5228 5.82614C17.5654 5.90853 17.6003 5.98487 17.6003 5.99573C17.6003 6.00655 17.366 6.04326 17.0797 6.07728C16.5131 6.1447 16.3481 6.17421 16.273 6.10551C16.2331 6.06895 16.2186 6.00461 16.1826 5.90342C16.0788 5.61086 15.8847 5.28833 15.7283 5.14845C15.6392 5.06883 15.5752 5.05822 15.3534 5.08639C15.2063 5.10514 14.8803 5.13302 14.6288 5.1484C14.3774 5.16387 14.0403 5.19369 13.8797 5.21477C13.7191 5.23585 13.5762 5.2416 13.5622 5.22767C13.502 5.16745 13.5427 4.92295 13.6176 4.89418C13.6621 4.87711 13.9535 4.83936 14.2653 4.81035Z" fill="#66747B" fill-opacity="0.6"/>
<path d="M29.4736 5.23436C29.3539 5.21144 29.3339 5.18292 29.3339 5.0356C29.3339 4.82582 29.3668 4.82245 30.0793 4.95956C30.3538 5.01233 30.8126 5.09711 31.099 5.14795L31.6196 5.24041V5.43392C31.6196 5.60848 31.6084 5.62485 31.5053 5.60128C31.4425 5.58695 31.2653 5.55396 31.1117 5.52807C30.8243 5.47955 29.7222 5.28198 29.4736 5.23436Z" fill="#66747B" fill-opacity="0.6"/>
<path d="M20.7242 5.54717C22.1598 5.50887 22.3593 5.47767 22.4865 5.27176C22.5504 5.16834 22.5533 5.17017 22.569 5.32241C22.5875 5.50297 22.4838 5.68675 22.2928 5.8119C22.1807 5.88527 21.9481 5.90377 20.7316 5.93601C19.9453 5.95685 18.9648 5.9755 18.5527 5.97748L17.8035 5.98105V5.62549L18.4511 5.6175C18.8073 5.61314 19.1559 5.60376 19.2257 5.59667C19.2956 5.58958 19.9699 5.56725 20.7242 5.54717Z" fill="#66747B" fill-opacity="0.6"/>
<path d="M23.4087 5.92297C23.2374 5.81989 23.0853 5.51641 23.0873 5.28158C23.0885 5.14502 23.0901 5.14572 23.1961 5.32851C23.2553 5.43065 23.3633 5.5429 23.4362 5.57797C23.5091 5.61309 23.8773 5.67083 24.2544 5.70625C24.6316 5.74166 25.3173 5.8057 25.7782 5.84856C26.6302 5.92788 27.4479 6.01647 27.7465 6.06206C27.8961 6.08487 27.9116 6.10377 27.9116 6.2627C27.9116 6.37005 27.887 6.43756 27.8481 6.43667C27.8132 6.43587 27.4532 6.40095 27.0481 6.35908C26.643 6.31732 25.843 6.23815 25.2703 6.18329C24.6976 6.12843 24.0804 6.06905 23.8988 6.05139C23.7173 6.03373 23.4967 5.97589 23.4087 5.92297Z" fill="#66747B" fill-opacity="0.6"/>
<path d="M10.9666 6.48682C11.352 6.41097 11.7259 6.18259 11.8166 5.96756L11.8859 5.80327L11.9023 5.94643C11.9114 6.0252 11.8657 6.19663 11.8007 6.32739C11.6173 6.69699 11.4043 6.78702 10.1335 7.03152C9.89605 7.07725 9.69415 7.13385 9.68485 7.15741C9.6755 7.18087 9.60693 7.20101 9.53247 7.20215C9.45795 7.20325 9.237 7.2346 9.04143 7.2718C8.18565 7.4346 7.81134 7.51317 7.65428 7.56298C7.35998 7.65638 7.04475 7.43336 6.95271 7.06664L6.91664 6.92293L7.08132 7.06153C7.27322 7.22304 7.41642 7.23331 7.92395 7.12239C8.44973 7.00741 9.02406 6.89416 9.16842 6.87705C9.23826 6.86872 9.3297 6.84937 9.3716 6.83404C9.44886 6.80567 10.4181 6.5947 10.9666 6.48682Z" fill="#66747B" fill-opacity="0.6"/>
<path d="M35.2387 6.30755C34.8195 6.1942 34.7181 6.14876 34.7181 6.07396C34.7181 6.02282 34.7275 5.98105 34.7391 5.98105C34.7506 5.98105 35.0649 6.07381 35.4375 6.18721C35.8101 6.3006 36.2978 6.44793 36.5213 6.51474C36.7448 6.58146 37.1429 6.70582 37.406 6.79109C37.6691 6.87641 37.9032 6.94615 37.9263 6.94615C38.0128 6.94615 38.3753 7.12423 38.3753 7.16674C38.3753 7.19104 38.3353 7.19447 38.2864 7.17438C38.2375 7.15419 38.0718 7.10404 37.9182 7.06292C37.7645 7.02174 37.4445 6.93112 37.207 6.86147C36.9696 6.79183 36.6496 6.7017 36.4959 6.66127C36.3422 6.6208 36.1137 6.55636 35.988 6.51797C35.8622 6.47957 35.5251 6.38493 35.2387 6.30755Z" fill="#66747B" fill-opacity="0.6"/>
<path d="M5.52909 6.56251C6.18358 6.36117 6.35465 6.28885 6.4434 6.17614C6.50338 6.09985 6.55824 6.03621 6.5652 6.03462C6.57216 6.03309 6.5779 6.11414 6.5779 6.21469C6.5779 6.45507 6.32926 6.71098 6.01611 6.79282C5.78545 6.85314 4.60168 7.22859 4.19055 7.37185C3.83387 7.49616 2.81047 7.80966 2.7615 7.80966C2.73731 7.80966 2.71751 7.73153 2.71751 7.63609V7.46248L3.26355 7.28227C3.56385 7.18311 3.86674 7.09109 3.93658 7.07785C4.00642 7.0646 4.21214 6.99898 4.39373 6.93201C4.57532 6.865 5.08622 6.69877 5.52909 6.56251Z" fill="#66747B" fill-opacity="0.6"/>
<path d="M12.5209 6.38418C12.5209 6.27739 12.5679 6.26052 13.1351 6.16399C13.4995 6.10199 13.5124 6.10328 13.5444 6.20561C13.6215 6.45224 13.5992 6.48895 13.3717 6.48979C13.253 6.49019 13.0256 6.52124 12.8664 6.55869C12.5559 6.63176 12.5209 6.6141 12.5209 6.38418Z" fill="#66747B" fill-opacity="0.6"/>
<path d="M28.2164 6.46916V6.3013C28.2164 6.14112 28.2251 6.13344 28.4069 6.13373C28.5117 6.13388 28.6773 6.15467 28.7751 6.17987C28.8729 6.20511 29.0386 6.24028 29.1434 6.25809C29.3218 6.28835 29.3339 6.30184 29.3339 6.47154C29.3339 6.64783 29.3294 6.65195 29.1688 6.62442C29.078 6.60884 28.8266 6.56757 28.61 6.53265L28.2164 6.46916Z" fill="#66747B" fill-opacity="0.6"/>
<path d="M31.7339 7.10131C31.6957 7.09962 31.6704 7.0276 31.6704 6.92075C31.6704 6.85076 31.6685 6.80408 31.6907 6.77779C31.7358 6.72437 31.8803 6.75483 32.3417 6.84441C32.629 6.90017 32.8698 6.9459 32.8768 6.946C32.8838 6.9461 32.8895 7.03335 32.8895 7.1399V7.3337L32.3434 7.21892C32.0431 7.15573 31.7689 7.10285 31.7339 7.10131Z" fill="#66747B" fill-opacity="0.6"/>
<path d="M33.4482 7.50191V7.31972C33.4482 7.15746 33.4607 7.1401 33.5625 7.16168C33.7365 7.19843 37.9129 8.46126 38.1594 8.55163C38.3558 8.62361 38.3753 8.64638 38.3753 8.80437C38.3753 9.00308 38.365 9.00616 38.0642 8.89792C37.8544 8.82237 37.2575 8.63948 36.7499 8.49513C36.6242 8.45937 36.247 8.34692 35.9118 8.24518C35.5765 8.14334 35.1079 8.00237 34.8705 7.93168C34.633 7.86105 34.3816 7.78366 34.3117 7.75975C34.2419 7.73589 34.019 7.66809 33.8165 7.60911L33.4482 7.50191Z" fill="#66747B" fill-opacity="0.6"/>
<path d="M1.8413 9.06479C2.11367 8.96662 2.40513 8.86305 2.48893 8.83458C2.71507 8.75769 2.71761 8.75913 2.71639 8.96523L2.71523 9.15571L2.09416 9.35795C1.75251 9.46921 1.4445 9.56807 1.40955 9.57759C1.36765 9.589 1.34606 9.53508 1.34606 9.41901V9.24316L1.8413 9.06479Z" fill="#66747B" fill-opacity="0.6"/>
<path d="M11.5026 9.34599C11.7359 9.10556 12.1176 8.89251 12.4373 8.82426C12.6904 8.77019 13.4043 8.80238 13.526 8.87332C13.6027 8.91806 13.6033 8.92421 13.5309 8.9256C13.4858 8.92639 13.2879 9.00764 13.0912 9.10601C12.7032 9.30011 12.1933 9.79 12.0201 10.1352C11.8992 10.3759 11.7184 10.9387 11.6982 11.1367C11.6935 11.1838 11.6791 11.217 11.6888 11.2399C11.7151 11.3021 11.9184 11.2894 12.9686 11.2745L13.7211 11.2637L13.8094 11.0786C13.9442 10.7958 14.3382 10.3073 14.5627 10.1448C14.9069 9.89541 15.1596 9.82586 15.6308 9.85071C15.9571 9.86793 16.1193 9.90538 16.3559 10.018L16.6606 10.1633L16.3559 10.2079C15.8766 10.2782 15.4613 10.3982 15.213 10.5383C14.939 10.6928 14.622 10.9838 14.5237 11.1709C14.4543 11.3031 14.4567 11.3075 14.6169 11.3401C15.1285 11.4439 15.8194 11.7857 16.1215 12.0846C16.3295 12.2902 16.5828 12.7264 16.5839 12.8807C16.5842 12.9214 16.4846 12.8752 16.3347 12.7652C15.9003 12.4464 15.1649 12.1326 14.5146 11.9886C13.9867 11.8717 13.8032 11.8563 12.9272 11.8547C12.3727 11.8536 11.7914 11.8795 11.6066 11.9133C11.425 11.9464 11.0496 12.0105 10.7725 12.0555C10.0915 12.1662 8.47553 12.5903 7.98013 12.7883C7.95729 12.7974 7.91019 12.8152 7.84885 12.8377C7.75226 12.8733 7.62035 12.9211 7.4922 12.9667C6.97638 13.1503 5.95496 13.5544 5.89217 13.5996C5.86423 13.6198 5.7728 13.6595 5.68899 13.6879C5.38692 13.7902 3.88579 14.5312 3.88579 14.5779C3.88579 14.6043 3.93607 14.6964 3.99753 14.7827C4.07144 14.8865 4.11639 15.0386 4.13041 15.2322C4.15114 15.5186 4.14793 15.5269 3.98057 15.6289C3.68067 15.8118 3.40105 15.7618 3.09268 15.4703L2.9345 15.3207L2.69242 15.4742C2.28236 15.7343 1.83699 15.7325 1.6966 15.4702C1.66251 15.4065 1.63253 15.2593 1.63 15.143C1.62441 14.8858 1.72738 14.7576 2.08258 14.5791C2.22226 14.5089 2.34397 14.4449 2.35306 14.4369C2.36215 14.4288 2.30927 14.3312 2.23557 14.2198C2.03996 13.9242 2.06799 13.6221 2.30597 13.4622C2.41422 13.3895 2.55441 13.3463 2.6821 13.3463C2.85373 13.3463 2.91616 13.3784 3.08034 13.5509C3.18746 13.6635 3.28926 13.8121 3.30657 13.8811C3.32389 13.9501 3.36422 14.0066 3.39618 14.0066C3.45474 14.0066 4.24231 13.5636 4.40546 13.4389C4.4841 13.3788 4.48846 13.3209 4.44676 12.8935C4.39073 12.3195 4.4461 11.7546 4.59834 11.3477C4.82071 10.7534 5.53462 10.1721 6.169 10.069L6.39503 10.0323L6.07305 10.3813C5.52837 10.9717 5.25896 11.4557 5.15453 12.0318C5.09993 12.333 5.12187 12.7523 5.19877 12.8767C5.22452 12.9184 5.58476 12.8182 6.42719 12.5353L7.61919 12.1349L7.64972 11.4326C7.68588 10.6013 7.7895 10.2495 8.10777 9.8778C8.42814 9.50349 8.93858 9.28424 9.49183 9.28324L9.78984 9.2827L9.38354 9.67636C8.94583 10.1004 8.71944 10.4735 8.58373 10.9946C8.51144 11.2721 8.48066 11.778 8.53283 11.8302C8.54644 11.8438 8.80356 11.7932 9.10427 11.7176C9.40497 11.6421 9.89052 11.5246 10.1832 11.4564L10.7156 11.3326L10.7555 11.133C10.9409 10.2071 11.1483 9.71113 11.5026 9.34599Z" fill="#66747B" fill-opacity="0.6"/>
<path d="M12.145 10.7219C12.323 10.1303 12.7655 9.65324 13.4559 9.30859C13.9657 9.05417 14.0447 9.03612 14.0447 9.17431C14.0447 9.24376 13.9644 9.29832 13.7437 9.37883C13.113 9.6088 12.472 10.1619 12.2342 10.6811C12.1643 10.8339 12.0995 10.9589 12.0904 10.9589C12.0812 10.9589 12.1058 10.8523 12.145 10.7219Z" fill="#66747B" fill-opacity="0.6"/>
<path d="M9.09766 10.7065C9.28489 10.2941 9.57681 9.93693 9.96519 9.64521C10.3457 9.35944 10.3879 9.34222 10.3867 9.47318C10.3862 9.52516 10.236 9.66723 10.0245 9.81584C9.62111 10.0991 9.29526 10.4892 9.06135 10.9688C8.87808 11.3448 8.90881 11.1227 9.09766 10.7065Z" fill="#66747B" fill-opacity="0.6"/>
<path d="M5.77449 11.4115C5.88781 11.1833 6.07005 10.9529 6.38366 10.6415C6.64789 10.379 6.87292 10.197 6.9331 10.197C7.10113 10.197 7.051 10.2803 6.7383 10.521C6.33505 10.8313 5.97593 11.2341 5.77921 11.5967C5.56724 11.9877 5.56338 11.8366 5.77449 11.4115Z" fill="#66747B" fill-opacity="0.6"/>
<path d="M15.2231 10.956C15.337 10.802 15.664 10.6173 15.9436 10.5491C16.0306 10.5279 16.3419 10.5143 16.6352 10.5188C17.1319 10.5266 17.1686 10.5341 17.1686 10.6288C17.1686 10.7245 17.1334 10.7305 16.559 10.7343C15.9102 10.7384 15.59 10.8256 15.3316 11.0683C15.1683 11.2217 15.0881 11.1387 15.2231 10.956Z" fill="#66747B" fill-opacity="0.6"/>
<path d="M4.9289 14.4501C6.9994 13.4107 9.48269 12.6068 11.4723 12.3318C12.9888 12.1222 14.4553 12.2715 15.4521 12.737C15.7114 12.8581 16.1334 13.1266 16.401 13.3406C16.6321 13.5256 16.7009 13.5345 16.8384 13.3971C16.9315 13.304 16.94 13.303 16.94 13.3857C16.94 13.5248 16.7935 13.7018 16.6785 13.7018C16.6217 13.7018 16.488 13.6276 16.3813 13.5367C16.1051 13.3014 15.6845 13.057 15.2544 12.8817C13.0324 11.9762 9.31959 12.5922 5.13624 14.5605C4.68971 14.7707 4.56933 14.8088 4.50949 14.7592C4.44838 14.7084 4.52132 14.6547 4.9289 14.4501Z" fill="#66747B" fill-opacity="0.6"/>
<path d="M4.0718 13.1558C4.05773 13.1907 4.04619 13.1621 4.04619 13.0923C4.04619 13.0224 4.05773 12.9939 4.0718 13.0288C4.08591 13.0637 4.08591 13.1209 4.0718 13.1558Z" fill="#66747B" fill-opacity="0.6"/>
<path d="M1.79848 14.3338C1.77313 14.3182 1.75241 14.2724 1.75241 14.2321C1.75241 14.127 1.7869 14.142 1.81794 14.2606C1.83256 14.3165 1.82378 14.3495 1.79848 14.3338Z" fill="#66747B" fill-opacity="0.6"/>
<path d="M9.45332 15.886C9.70872 15.4132 10.0138 15.1452 10.4926 14.9729C10.7641 14.8753 11.4565 14.8286 11.4521 14.9082C11.4509 14.9292 11.3424 14.9967 11.2108 15.0584C10.8198 15.2416 10.5635 15.4608 10.3149 15.8247C10.1169 16.1145 9.82875 16.7886 9.82875 16.9621C9.82875 17.0099 11.4226 16.9748 11.6066 16.9229C11.6485 16.9111 11.7458 16.7701 11.8228 16.6096C12.2349 15.751 12.778 15.3765 13.5117 15.445C13.8547 15.477 14.2856 15.6517 14.1463 15.7022C13.1641 16.0584 12.9269 16.1964 12.7169 16.5336C12.647 16.646 12.575 16.6987 12.4913 16.6987C12.3697 16.6987 12.3685 16.7036 12.3685 17.2008V17.703L11.6157 17.6764C10.2637 17.6284 9.03371 17.8317 7.39061 18.3747C6.3352 18.7234 5.46352 19.0837 4.35959 19.6272L3.69048 19.9567L3.81345 20.1379C4.03385 20.4626 4.0785 20.8106 3.92444 21.0032C3.84277 21.1053 3.50609 21.1762 3.36235 21.1216C3.22531 21.0695 2.97199 20.821 2.97073 20.7374C2.97027 20.7092 2.94853 20.6522 2.92231 20.6108C2.88234 20.5475 2.85176 20.5575 2.73188 20.6723C2.58189 20.816 2.22521 20.9655 2.03224 20.9655C1.7227 20.9655 1.50992 20.5251 1.66992 20.2156C1.75745 20.0465 1.89515 19.9447 2.17147 19.8453C2.27621 19.8076 2.36195 19.7583 2.36195 19.7357C2.36195 19.7131 2.29337 19.6 2.20956 19.4843C2.05856 19.2758 2.00288 18.9411 2.09603 18.8016C2.21545 18.6227 2.59276 18.575 2.75895 18.7178C2.8737 18.8163 3.07307 19.1732 3.07307 19.28C3.07307 19.3003 3.0711 19.3164 3.07821 19.3242C3.10037 19.3487 3.21075 19.293 3.74397 19.0353L4.3219 18.7559L4.30093 18.2208C4.28386 17.7846 4.30026 17.6108 4.38971 17.2811C4.50726 16.8477 4.76524 16.4118 4.99452 16.2594C5.3188 16.0438 5.69646 15.8922 5.62819 16.005C5.60863 16.0373 5.5076 16.1958 5.40373 16.3572C5.12938 16.7834 5.00327 17.1986 5.00327 17.6753C5.00327 18.0585 5.10592 18.458 5.19268 18.4125C5.25445 18.3801 5.54585 18.2525 6.09535 18.0172C6.37472 17.8975 6.62859 17.7804 6.65952 17.7569C6.69041 17.7334 6.72921 17.48 6.74577 17.1938C6.77788 16.6374 6.84711 16.3578 7.05369 15.9501C7.27962 15.5042 7.78468 15.1749 8.24249 15.1749H8.4159L8.1797 15.4376C7.85431 15.7995 7.57021 16.3009 7.45076 16.7241C7.34093 17.113 7.284 17.4387 7.3196 17.4743C7.33209 17.4868 7.59267 17.4329 7.89861 17.3546C8.20454 17.2763 8.59206 17.1853 8.75973 17.1522C9.05489 17.0942 9.06572 17.0864 9.09884 16.9082C9.14637 16.6523 9.33823 16.099 9.45332 15.886Z" fill="#66747B" fill-opacity="0.6"/>
<path d="M11.823 15.1981C11.9561 15.1789 12.0813 15.1372 12.1012 15.1055C12.1248 15.0681 12.1439 15.08 12.1556 15.1392C12.1841 15.2832 12.0814 15.3625 11.8216 15.3975C11.4253 15.4509 11.0978 15.637 10.7778 15.9907C10.6171 16.1681 10.4726 16.3657 10.4565 16.4299C10.4404 16.4939 10.4077 16.5463 10.3838 16.5463C10.3599 16.5463 10.3868 16.4377 10.4437 16.3051C10.707 15.6909 11.2109 15.2865 11.823 15.1981Z" fill="#66747B" fill-opacity="0.6"/>
<path d="M8.21328 15.8978C8.39955 15.626 8.52455 15.5053 8.8124 15.3193C9.07197 15.1517 9.18422 15.2262 8.93634 15.4016C8.42373 15.7643 8.01503 16.2655 7.86661 16.7132L7.79564 16.9273L7.82597 16.7265C7.8597 16.5027 7.99029 16.2234 8.21328 15.8978Z" fill="#66747B" fill-opacity="0.6"/>
<path d="M1.29963 15.8341C1.24137 15.6986 1.19367 15.5715 1.19367 15.5515C1.19367 15.5315 1.26037 15.6073 1.34189 15.7198C1.63747 16.1278 2.26315 16.1998 2.72452 15.8788C2.845 15.795 2.86507 15.7935 2.92399 15.8646C3.04467 16.01 3.26888 16.0892 3.55989 16.0892C3.98549 16.0892 4.2224 16.0005 4.42303 15.7661C4.61942 15.5367 4.64751 15.5877 4.49232 15.8918C4.34858 16.1736 4.08317 16.2897 3.57964 16.2912C3.19604 16.2923 3.01004 16.226 2.90307 16.0499C2.86807 15.9922 2.83839 15.9994 2.74291 16.0892C2.51307 16.3051 2.02827 16.3483 1.65189 16.1864C1.44236 16.0962 1.38979 16.0436 1.29963 15.8341Z" fill="#66747B" fill-opacity="0.6"/>
<path d="M13.3094 16.4942C13.4695 16.3172 13.7397 16.1772 14.2959 15.9828C14.7911 15.8098 14.8769 15.7769 14.9125 15.8058C14.9224 15.8139 14.9284 15.8268 14.9384 15.8429C14.9939 15.9328 14.8353 16.0208 14.356 16.166C13.7765 16.3415 13.6613 16.388 13.4495 16.5317C13.2465 16.6694 13.1695 16.6488 13.3094 16.4942Z" fill="#66747B" fill-opacity="0.6"/>
<path d="M5.49405 17.1305C5.57196 16.7727 5.79262 16.3806 6.11704 16.0232C6.35766 15.7581 6.28324 15.9858 6.02195 16.3142C5.87911 16.4937 5.69437 16.7852 5.61154 16.9618C5.52863 17.1383 5.47576 17.2142 5.49405 17.1305Z" fill="#66747B" fill-opacity="0.6"/>
<path d="M5.09216 19.6826C6.95398 18.7882 8.70416 18.2216 10.1335 18.0504C10.2313 18.0387 10.6427 18.0363 11.0478 18.045C11.9175 18.0638 12.3314 18.1652 12.3598 18.3662C12.3751 18.4737 12.3664 18.479 12.2642 18.4242C12.2023 18.3911 11.9777 18.3331 11.7649 18.2951C10.1913 18.0144 7.72652 18.5943 5.15941 19.8493C4.4912 20.176 4.29214 20.2361 4.29214 20.1114C4.29214 20.087 4.65217 19.894 5.09216 19.6826Z" fill="#66747B" fill-opacity="0.6"/>
<path d="M1.88336 19.6323C1.85279 19.6629 1.75038 19.4139 1.75658 19.324C1.75881 19.2909 1.79427 19.3408 1.83531 19.4348C1.87635 19.5289 1.89799 19.6178 1.88336 19.6323Z" fill="#66747B" fill-opacity="0.6"/>
<path d="M9.0201 21.3549C9.25634 20.4275 9.74499 19.8584 10.5145 19.6144C10.6262 19.579 10.7944 19.5485 10.8882 19.5466L11.0588 19.5432L10.7903 19.7845C10.2203 20.2968 9.9822 20.5893 9.77526 21.0315C9.61627 21.3712 9.49619 21.9231 9.56603 21.9929C9.58823 22.0151 9.91352 21.997 10.289 21.9526C10.6644 21.9083 11.0755 21.8599 11.2025 21.845C11.4266 21.8188 11.4382 21.8087 11.5999 21.4968C11.7559 21.1959 12.1973 20.7115 12.3155 20.7115C12.3504 20.7115 12.3685 21.0367 12.3685 21.6639V22.6163L11.5177 22.6219C10.5945 22.6281 10.0821 22.6856 9.29505 22.8715C8.73408 23.004 7.75003 23.3194 7.23823 23.5308C6.41363 23.8713 4.903 24.6998 4.45209 25.0589C4.44229 25.0668 4.4911 25.1489 4.56059 25.2415C4.77997 25.534 4.9064 25.8306 4.87131 25.9704C4.82899 26.1391 4.58198 26.2643 4.28148 26.2694C4.06194 26.2731 4.02191 26.2535 3.79684 26.0319L3.55145 25.7902L3.35584 25.9906C3.24821 26.1008 3.04661 26.2399 2.90784 26.2996C2.69186 26.3924 2.63395 26.3992 2.50631 26.3464C2.35407 26.2833 2.2503 26.1299 2.19006 25.8787C2.13301 25.641 2.27956 25.4585 2.75306 25.1775L2.97362 25.0467L2.86568 24.949C2.80635 24.8953 2.70055 24.7537 2.6306 24.6343C2.42976 24.2916 2.52577 24.0012 2.88513 23.8646C3.09486 23.7848 3.31069 23.8961 3.62044 24.2436L3.88329 24.5385L4.28925 24.2631C4.51248 24.1116 4.6955 23.9535 4.69586 23.9115C4.69627 23.8696 4.63988 23.6194 4.57054 23.3555C4.41995 22.7821 4.40282 22.1726 4.52707 21.8079C4.66554 21.4017 5.00332 21.1299 5.4752 21.0454L5.66776 21.0108L5.51984 21.3056C5.29894 21.7457 5.20644 22.1252 5.20644 22.5909C5.20644 23.0868 5.32957 23.578 5.44294 23.5345C5.48409 23.5188 5.79291 23.3877 6.12923 23.2434L6.74065 22.981L6.71154 22.7986C6.54112 21.7309 6.69538 20.9757 7.16874 20.56C7.37913 20.3753 7.83943 20.1527 8.01112 20.1527C8.11931 20.1527 8.11906 20.1546 7.99406 20.2924C7.52943 20.8048 7.27734 21.3493 7.24823 21.9035C7.22304 22.3836 7.32315 22.7187 7.47848 22.6742C7.49911 22.6683 7.57091 22.6465 7.67448 22.6147C7.81913 22.5703 8.02573 22.5066 8.24142 22.4397L8.91445 22.2309V22.0003C8.91445 21.8735 8.96199 21.583 9.0201 21.3549Z" fill="#66747B" fill-opacity="0.6"/>
<path d="M10.0575 21.3972C10.1386 21.0143 10.7129 20.2931 11.3232 19.8079C11.4327 19.7208 11.5413 19.6613 11.5646 19.6756C11.6386 19.7213 11.5106 19.89 11.2833 20.0464C10.9638 20.2662 10.385 20.905 10.1919 21.2509C10.0701 21.4691 10.0339 21.5085 10.0575 21.3972Z" fill="#66747B" fill-opacity="0.6"/>
<path d="M7.66896 21.4988C7.73114 21.1958 7.97216 20.8073 8.28337 20.5084C8.458 20.3407 8.62573 20.2035 8.65606 20.2035C8.78513 20.2035 8.6945 20.3626 8.48228 20.5086C8.22634 20.6846 7.90856 21.0793 7.74552 21.4235C7.66124 21.6014 7.64453 21.6178 7.66896 21.4988Z" fill="#66747B" fill-opacity="0.6"/>
<path d="M1.75251 21.448C1.58556 21.3617 1.34606 21.071 1.34606 20.9546C1.34606 20.9073 1.43235 20.9635 1.56792 21.0991C1.76654 21.2977 1.81474 21.321 2.02681 21.321C2.17995 21.321 2.35392 21.2753 2.51891 21.1917L2.77405 21.0624L2.91759 21.2161C2.99652 21.3006 3.12244 21.3931 3.19742 21.4216C3.55186 21.5563 4.05549 21.42 4.30692 21.1212C4.47363 20.923 4.49064 21.0344 4.33009 21.2726C4.14778 21.5431 3.91606 21.6505 3.51401 21.6509C3.17476 21.6512 3.16374 21.647 2.98052 21.448L2.79345 21.2448L2.51779 21.3845C2.20875 21.5411 1.97068 21.5608 1.75251 21.448Z" fill="#66747B" fill-opacity="0.6"/>
<path d="M5.63926 21.8036C5.67559 21.6265 5.86159 21.295 6.01683 21.1305C6.07615 21.0676 6.14665 21.0162 6.17353 21.0162C6.26911 21.0162 6.21955 21.1231 6.02587 21.3348C5.91782 21.453 5.77961 21.641 5.71871 21.7528C5.61753 21.9384 5.61067 21.9428 5.63926 21.8036Z" fill="#66747B" fill-opacity="0.6"/>
<path d="M8.00015 23.6455C8.86777 23.3467 9.5762 23.178 10.5145 23.047C10.8387 23.0017 12.1821 22.9874 12.2881 23.028C12.3323 23.045 12.3685 23.1026 12.3685 23.156C12.3685 23.2376 12.3461 23.2469 12.2288 23.2141C11.9649 23.1402 10.8351 23.1853 10.1787 23.2958C8.70889 23.5431 7.93508 23.806 6.31052 24.6098C5.61864 24.9521 5.03009 25.2322 5.00256 25.2322C4.97503 25.2322 4.95247 25.1996 4.95247 25.1598C4.95247 25.0586 7.33631 23.8741 8.00015 23.6455Z" fill="#66747B" fill-opacity="0.6"/>
<path d="M4.32149 23.8483C4.29093 23.8788 4.18852 23.6299 4.19472 23.54C4.19695 23.5069 4.23241 23.5567 4.27345 23.6507C4.31449 23.7448 4.33613 23.8337 4.32149 23.8483Z" fill="#66747B" fill-opacity="0.6"/>
<path d="M2.36677 25.029C2.32106 25.029 2.15877 24.7203 2.15877 24.6334C2.15877 24.5966 2.17217 24.6152 2.30648 24.8385C2.36946 24.9433 2.39658 25.029 2.36677 25.029Z" fill="#66747B" fill-opacity="0.6"/>
<path d="M2.60145 26.959C2.28657 26.9586 1.95874 26.6467 1.88097 26.2735C1.84993 26.1247 1.85161 26.1255 1.95128 26.3054C2.22389 26.7979 2.63466 26.8888 3.22403 26.587L3.55283 26.4187L3.80233 26.5738C4.23575 26.8432 4.80883 26.7554 5.18282 26.3624L5.31576 26.2227L5.23373 26.4241C5.14595 26.6396 5.12914 26.6561 4.84022 26.8088C4.71059 26.8773 4.552 26.9084 4.33227 26.9082C4.02151 26.9081 3.94719 26.8806 3.62582 26.647C3.56015 26.5992 3.51418 26.6081 3.39725 26.691C3.20818 26.825 2.8097 26.9593 2.60145 26.959Z" fill="#66747B" fill-opacity="0.6"/>
<path d="M28.7811 30.7688C29.0107 29.7043 29.5298 29.0388 30.2713 28.8587C30.556 28.7896 31.036 28.7752 31.179 28.8315C31.2574 28.8623 31.2281 28.9029 30.9915 29.0916C30.7005 29.3239 30.4257 29.6534 30.2744 29.9513C30.1317 30.2324 29.9962 30.7735 30.0635 30.7938C30.1944 30.8331 31.369 30.9251 31.4108 30.8993C31.4357 30.8839 31.5152 30.7235 31.5875 30.543C31.76 30.112 32.1122 29.5675 32.3581 29.3517C32.8392 28.9292 33.4365 28.8196 34.0313 29.0445C34.3174 29.1527 34.3277 29.1623 34.2091 29.2093C33.7957 29.373 33.5 29.5603 33.2249 29.8327C32.9124 30.1419 32.5545 30.7183 32.6005 30.8381C32.62 30.8891 33.9117 31.4291 34.0141 31.4291C34.0288 31.4291 34.13 31.2998 34.2389 31.1416C34.471 30.8046 34.8264 30.5087 35.1453 30.3869C35.4966 30.2527 36.0443 30.2964 36.3646 30.4841L36.6143 30.6305L36.3378 30.7161C35.8936 30.8535 35.4511 31.1168 35.1766 31.407C35.0362 31.5555 34.9213 31.6967 34.9213 31.7209C34.9213 31.745 35.0527 31.8579 35.2133 31.9718C35.6591 32.2879 35.9327 32.8008 35.9359 33.3263L35.9372 33.5219L35.6451 33.2541C35.349 32.9825 34.7078 32.542 34.3371 32.3554C33.9786 32.175 33.2585 31.9424 32.731 31.8367C32.3173 31.7537 32.0195 31.7339 31.1898 31.7339C29.7296 31.7339 28.9492 31.86 27.2259 32.3745C26.8068 32.4997 26.4004 32.627 26.3227 32.6574C26.2449 32.6877 26.1704 32.7017 26.157 32.6883C26.1436 32.6748 26.2832 32.4832 26.4673 32.2624C26.6514 32.0415 26.8389 31.7989 26.884 31.7232C26.9396 31.63 27.0325 31.5702 27.1722 31.5378C27.2855 31.5115 27.6754 31.4134 28.0386 31.3199L28.6989 31.1498L28.7811 30.7688Z" fill="#66747B" fill-opacity="0.6"/>
<path d="M30.6926 30.0313C30.9085 29.641 31.3667 29.1479 31.6546 28.9962C31.859 28.8884 31.9312 28.8844 31.9627 28.9789C31.9733 29.0106 31.8604 29.0981 31.7119 29.1733C31.3832 29.3396 30.8768 29.8458 30.7086 30.176C30.5871 30.4144 30.5021 30.5161 30.5021 30.4229C30.5021 30.397 30.5879 30.2208 30.6926 30.0313Z" fill="#66747B" fill-opacity="0.6"/>
<path d="M33.6559 29.9347C33.865 29.7587 34.275 29.5505 34.5657 29.4725C34.7956 29.411 34.9388 29.4509 34.8407 29.549C34.8131 29.5766 34.6231 29.6562 34.4184 29.7258C33.9868 29.8726 33.6398 30.1194 33.3727 30.4697C33.2688 30.606 33.1633 30.7049 33.1383 30.6894C33.0776 30.6519 33.4516 30.1066 33.6559 29.9347Z" fill="#66747B" fill-opacity="0.6"/>
<path d="M35.6319 31.5567C35.8201 31.3299 36.3124 31.1103 37.0292 30.9334C37.225 30.8851 37.2836 30.8698 37.3012 30.8901C37.3092 30.8994 37.3086 30.9161 37.3086 30.9404C37.3086 31.052 37.2068 31.1044 36.8007 31.2018C36.3333 31.314 36.1292 31.3969 35.8526 31.5873C35.6433 31.7313 35.5031 31.7118 35.6319 31.5567Z" fill="#66747B" fill-opacity="0.6"/>
<path d="M27.8026 34.6125C28.055 34.3502 28.2231 34.2438 28.5466 34.1415C28.6583 34.1062 28.8062 34.0757 28.8751 34.0738C28.9888 34.0707 28.9737 34.0978 28.7143 34.3625C28.1776 34.9099 27.8944 35.6135 27.9216 36.3308C27.9357 36.703 27.9455 36.7361 28.0386 36.725C28.4474 36.6758 29.2173 36.5332 29.2647 36.4979C29.2965 36.4741 29.349 36.3468 29.3813 36.215C29.5613 35.4792 29.9576 34.7708 30.3368 34.5066C30.5934 34.3277 31.0497 34.2709 31.3727 34.3775L31.5728 34.4436L31.3041 34.5979C30.8005 34.8874 30.4367 35.3428 30.2697 35.893C30.1695 36.2231 30.1754 36.4069 30.2863 36.4074C30.419 36.408 31.2691 36.5052 31.4251 36.5375C31.5456 36.5625 31.5837 36.5319 31.7661 36.2633C32.0305 35.874 32.3285 35.6215 32.6776 35.4908C32.9847 35.3759 33.1406 35.3886 33.4696 35.5551L33.6688 35.656L33.2465 35.8759C32.8112 36.1025 32.4782 36.3799 32.3514 36.6213C32.2836 36.7507 32.2869 36.7648 32.4041 36.8416C32.5875 36.9617 33.0172 37.5037 33.1858 37.8276C33.3402 38.1241 33.4813 38.5749 33.4345 38.6219C33.4192 38.6371 33.3074 38.5416 33.1862 38.4094C32.7063 37.8866 31.8179 37.461 30.9241 37.3258C30.4156 37.2488 29.3504 37.2585 28.7751 37.3453C27.0801 37.601 25.2229 38.2278 24.1862 38.894L23.9402 39.0521L24.1414 39.2703C24.412 39.564 24.4903 39.8028 24.3834 40.0094C24.2904 40.1893 24.0696 40.3182 23.8545 40.3182C23.6543 40.3182 23.4173 40.1128 23.2606 39.8036C23.1916 39.6675 23.1273 39.5563 23.1176 39.5563C23.1079 39.5563 23.0365 39.6478 22.959 39.7596C22.8815 39.8715 22.7442 40.0087 22.654 40.0644C22.4115 40.2143 22.2412 40.1945 22.0398 39.9931C21.9015 39.8548 21.8671 39.7803 21.8671 39.6193C21.8671 39.3925 22.0316 39.1065 22.29 38.8843L22.4512 38.7456L22.2897 38.6168C22.0843 38.4527 21.9179 38.1847 21.9179 38.0176C21.9179 37.835 22.1439 37.5877 22.3738 37.5188C22.5466 37.467 22.5924 37.474 22.7861 37.5814C22.9581 37.6769 23.0456 37.7797 23.2019 38.0711L23.4 38.4399L24.0431 38.1082C24.3968 37.9257 24.7151 37.7582 24.7504 37.7359C24.8011 37.7039 24.7933 37.6109 24.713 37.2924C24.5933 36.8173 24.5853 36.5295 24.6818 36.167C24.7717 35.8294 24.9088 35.6087 25.1894 35.35C25.406 35.1504 25.7663 34.934 25.882 34.934C25.9153 34.934 25.8978 35.0023 25.8396 35.099C25.4845 35.6887 25.3392 36.5003 25.4936 37.0313C25.54 37.1907 25.6065 37.3213 25.6414 37.3213C25.7085 37.3213 26.9793 36.9321 27.0452 36.8913C27.0664 36.8782 27.0976 36.6553 27.1146 36.396C27.1648 35.6281 27.392 35.0391 27.8026 34.6125Z" fill="#66747B" fill-opacity="0.6"/>
<path d="M28.5161 35.6344C28.6595 35.2176 28.991 34.7273 29.3675 34.375C29.609 34.1491 29.7171 34.0778 29.7572 34.1179C29.7972 34.1579 29.7568 34.2182 29.6114 34.3352C29.1232 34.7278 28.7617 35.1997 28.5445 35.7281C28.3979 36.0845 28.3808 36.0278 28.5161 35.6344Z" fill="#66747B" fill-opacity="0.6"/>
<path d="M30.7195 36.0172C30.6479 35.805 31.2737 35.0821 31.7974 34.772C31.965 34.6728 32.1219 34.6095 32.146 34.6314C32.2158 34.6947 32.1523 34.7549 31.7773 34.9815C31.398 35.2107 30.9766 35.6203 30.8305 35.902C30.7805 35.9982 30.7307 36.0499 30.7195 36.0172Z" fill="#66747B" fill-opacity="0.6"/>
<path d="M26.0094 35.9245C26.0534 35.7018 26.319 35.1821 26.5026 34.9593C26.7392 34.6723 26.732 34.8341 26.4938 35.1564C26.3081 35.4078 26.2238 35.5549 26.0388 35.9498C25.9805 36.0743 25.98 36.0737 26.0094 35.9245Z" fill="#66747B" fill-opacity="0.6"/>
<path d="M22.2418 36.3012C21.8924 36.5761 21.4668 36.4145 21.3157 35.9498L21.2579 35.7721L21.3582 35.8991C21.3916 35.9414 21.4216 35.984 21.4401 36.0147C21.4521 36.0346 21.4594 36.0495 21.4596 36.056C21.4619 36.117 21.7255 36.2038 21.9075 36.2035C22.011 36.2033 22.1632 36.1586 22.2457 36.1042C22.3927 36.0073 22.3991 36.0072 22.5505 36.1C22.7002 36.1917 22.858 36.2204 23.1495 36.2092C23.2331 36.206 23.3705 36.1302 23.4923 36.0201C23.6231 35.9019 23.6957 35.8633 23.6957 35.9117C23.6957 36.1137 23.2377 36.4578 22.9687 36.4578C22.902 36.4578 22.7393 36.4004 22.6073 36.3302C22.368 36.2029 22.3669 36.2028 22.2418 36.3012Z" fill="#66747B" fill-opacity="0.6"/>
<path d="M32.963 36.7074C32.8915 36.5917 33.5984 36.1257 34.0715 35.9767C34.3608 35.8856 34.3725 35.886 34.3533 35.9855C34.3428 36.0401 34.2006 36.1239 33.9679 36.2127C33.765 36.2901 33.4636 36.4454 33.298 36.5579C33.1068 36.6877 32.9846 36.7423 32.963 36.7074Z" fill="#66747B" fill-opacity="0.6"/>
<path d="M26.6141 38.3144C27.2914 38.0874 28.3897 37.8214 29.3339 37.6556C29.4037 37.6434 29.7923 37.6419 30.1974 37.6524C31.4852 37.6857 32.1949 37.9969 33.0829 38.9173C33.3141 39.157 33.5291 39.3531 33.5607 39.3531C33.5922 39.3531 33.6628 39.3131 33.7176 39.2642C33.8143 39.178 33.8161 39.1792 33.779 39.3023C33.7323 39.4566 33.6569 39.5563 33.5868 39.5563C33.5581 39.5563 33.3266 39.343 33.0723 39.0822C32.2049 38.1926 31.3263 37.8292 30.0431 37.8292C28.7388 37.8292 26.6491 38.38 25.2055 39.1041C24.7681 39.3236 24.7116 39.3375 24.7116 39.2257C24.7116 39.1227 25.898 38.5544 26.6141 38.3144Z" fill="#66747B" fill-opacity="0.6"/>
<path d="M21.771 38.7436C21.7244 38.7436 21.5623 38.3809 21.5623 38.2767C21.5623 38.2446 21.6193 38.3308 21.6891 38.4683C21.7917 38.6706 21.8201 38.7244 21.8067 38.7386C21.8011 38.7444 21.7885 38.7436 21.771 38.7436Z" fill="#66747B" fill-opacity="0.6"/>
<path d="M21.727 40.5588C21.5301 40.3577 21.3585 40.0503 21.3596 39.9007C21.3599 39.8649 21.4275 39.9532 21.51 40.097C21.5925 40.2408 21.721 40.4065 21.7955 40.4652C22.0943 40.7002 22.5199 40.7065 22.9011 40.4815L23.0738 40.3796L23.2432 40.5592C23.645 40.9852 24.215 40.9805 24.6479 40.5476C24.8786 40.3169 24.9265 40.342 24.764 40.6085C24.6288 40.8303 24.2981 41.0289 24.0066 41.0634C23.7217 41.0972 23.4289 40.9717 23.2238 40.7279L23.0947 40.5745L22.8745 40.6965C22.4073 40.9553 22.0763 40.9156 21.727 40.5588Z" fill="#66747B" fill-opacity="0.6"/>
<path d="M25.2909 41.7243C25.4592 41.3414 25.9095 40.9533 26.337 40.8228C26.5724 40.7509 26.5715 40.7745 26.3288 41.033C25.9751 41.4098 25.8127 41.7789 25.7877 42.2628C25.763 42.7417 25.8362 42.9722 26.0001 42.9316C26.817 42.7292 26.9753 42.6989 27.0343 42.6056C27.0547 42.5734 27.0632 42.5337 27.0829 42.4768C27.443 41.4357 28.1352 40.7983 28.8644 40.8363L29.1561 40.8515L28.8661 41.0191C28.7066 41.1113 28.484 41.2914 28.3715 41.4192C28.1484 41.6726 27.8757 42.2028 27.851 42.431C27.8357 42.572 27.843 42.5763 28.2418 42.6609C28.4653 42.7084 28.7125 42.7721 28.7911 42.8026C28.8818 42.8376 28.9318 42.8574 28.9708 42.8444C29.0198 42.828 29.0515 42.7601 29.1246 42.6061C29.2803 42.2782 29.5527 41.9636 29.8371 41.7833C30.0185 41.6683 30.1223 41.6392 30.347 41.6406C30.5022 41.6416 30.6836 41.6727 30.7503 41.7096L30.8715 41.7767L30.7363 41.8107C30.5364 41.8609 30.0353 42.3888 29.7919 42.8056C29.6746 43.0063 29.5865 43.1761 29.596 43.1829C29.6055 43.1898 29.7201 43.2566 29.8508 43.3313C30.1701 43.5142 30.4006 43.7996 30.4006 44.0123C30.4006 44.1038 30.3889 44.1786 30.3745 44.1786C30.3602 44.1786 30.1945 44.0761 30.0063 43.951C29.5783 43.6665 28.8928 43.4315 28.2801 43.3592C27.0659 43.216 25.7422 43.6352 24.4322 44.5776C24.1249 44.7987 23.8334 45.024 23.7845 45.0784C23.6983 45.1741 23.7035 45.1824 23.9479 45.3408C24.0868 45.4307 24.2468 45.5696 24.3036 45.6493C24.4303 45.8273 24.4369 46.0666 24.3179 46.1711C24.0797 46.3802 23.841 46.3114 23.4229 45.9128C23.2826 45.7791 23.1659 45.7025 23.1535 45.7358C23.097 45.8874 22.8085 46.2711 22.6847 46.3593C22.4314 46.5396 22.3054 46.5401 22.1019 46.3614C21.9925 46.2654 21.9179 46.1534 21.9179 46.0852C21.9179 45.9443 22.1307 45.6204 22.3386 45.445L22.4932 45.3146L22.3189 45.2069C21.8839 44.9381 21.7499 44.5871 21.9954 44.3596C22.0771 44.2839 22.1958 44.2294 22.2791 44.2294C22.4445 44.2294 22.7228 44.4528 22.8856 44.7163L22.9938 44.8914L23.2305 44.6921C23.3035 44.6307 23.3974 44.5508 23.4852 44.4756C23.5539 44.4168 23.619 44.3608 23.6673 44.3187L23.8675 44.1445L23.7306 43.9109C23.4491 43.4305 23.3815 42.8135 23.5703 42.4484C23.6299 42.3332 24.017 41.9436 24.0719 41.9436C24.0831 41.9436 24.0487 42.0581 23.9956 42.1981C23.9424 42.3381 23.8988 42.5548 23.8988 42.6796C23.8988 42.9412 24.0656 43.4876 24.1997 43.6653L24.2912 43.7867L25.2751 43.2547L25.2346 43.0182C25.1666 42.6212 25.1963 41.9394 25.2909 41.7243Z" fill="#66747B" fill-opacity="0.6"/>
<path d="M26.2354 41.9773C26.2354 41.8129 26.499 41.3686 26.7612 41.0911C26.9321 40.9103 27.0279 40.8404 27.0378 40.8895C27.0461 40.9308 26.9293 41.0913 26.7781 41.246C26.627 41.4008 26.443 41.6485 26.3693 41.7963C26.2957 41.9442 26.2354 42.0256 26.2354 41.9773Z" fill="#66747B" fill-opacity="0.6"/>
<path d="M28.291 42.3382C28.1842 42.236 28.9613 41.383 29.3023 41.2282C29.5497 41.1158 29.791 41.1013 29.791 41.1988C29.791 41.2385 29.6632 41.3022 29.4824 41.3524C29.2225 41.4247 29.124 41.4882 28.8594 41.7544C28.6866 41.9283 28.4967 42.1391 28.4374 42.223C28.3783 42.3068 28.3123 42.3586 28.291 42.3382Z" fill="#66747B" fill-opacity="0.6"/>
<path d="M24.4356 42.1308C24.2782 42.3625 24.2604 42.2458 24.4148 41.9944C24.4749 41.8966 24.5334 41.8441 24.545 41.8777C24.5566 41.9114 24.5074 42.0252 24.4356 42.1308Z" fill="#66747B" fill-opacity="0.6"/>
<path d="M30.3293 42.7496C30.5136 42.4985 31.0053 42.0843 31.2226 41.9972C31.3963 41.9275 31.4672 41.9343 31.4672 42.0204C31.4672 42.065 31.3461 42.1508 31.1788 42.2249C30.9757 42.3146 30.7803 42.4657 30.5184 42.7353C30.1191 43.1465 30.0332 43.153 30.3293 42.7496Z" fill="#66747B" fill-opacity="0.6"/>
<path d="M23.2814 44.077C23.281 44.1639 23.1654 43.9125 23.1179 43.7214C23.1006 43.6516 23.1303 43.6859 23.1841 43.7976C23.2378 43.9094 23.2816 44.0351 23.2814 44.077Z" fill="#66747B" fill-opacity="0.6"/>
<path d="M24.6178 44.9527C25.3921 44.3778 26.3141 43.9701 27.3275 43.7548C27.5775 43.7016 28.4212 43.7293 28.7236 43.8005C29.1623 43.904 29.7156 44.1755 30.0613 44.4571C30.4092 44.7405 30.517 44.7476 30.6549 44.496C30.7267 44.3652 30.7492 44.3453 30.727 44.4325C30.6764 44.6312 30.5298 44.8625 30.444 44.879C30.4012 44.8873 30.2538 44.801 30.1166 44.6872C29.9795 44.5735 29.6958 44.3927 29.4863 44.2854C28.1784 43.616 26.5328 43.8723 24.7903 45.0168C24.3586 45.3004 24.2194 45.2485 24.6178 44.9527Z" fill="#66747B" fill-opacity="0.6"/>
<path d="M21.7389 45.3458C21.6433 45.2665 21.5114 45.0253 21.5117 44.9303C21.5118 44.894 21.5563 44.9371 21.6105 45.0261C21.6649 45.1151 21.7586 45.2144 21.819 45.2467C21.8966 45.2883 21.9129 45.3213 21.8747 45.3595C21.8364 45.3978 21.7967 45.3938 21.7389 45.3458Z" fill="#66747B" fill-opacity="0.6"/>
<path d="M22.4292 46.9213C22.6628 46.921 22.9013 46.7672 23.0957 46.4915L23.2559 46.2642L23.4762 46.4673C23.5973 46.579 23.7549 46.6926 23.8264 46.7197C24.1665 46.8491 24.5762 46.707 24.7674 46.3934C24.8203 46.3067 24.8636 46.2658 24.8637 46.3026C24.864 46.408 24.7635 46.5772 24.5944 46.7559C24.2971 47.07 23.8656 47.0267 23.4709 46.6431L23.2386 46.4174L23.1392 46.6122C22.9558 46.9716 22.5748 47.1862 22.2611 47.1068C22.0735 47.0593 21.7345 46.8163 21.6454 46.6655C21.519 46.4515 21.5462 46.3866 21.6904 46.558C21.8517 46.7496 22.2012 46.9215 22.4292 46.9213Z" fill="#66747B" fill-opacity="0.6"/>
<path d="M17.6932 18.3401V19.3541C17.7014 19.4675 17.6755 19.5806 17.6188 19.6791C17.5882 19.7205 17.5475 19.7532 17.5005 19.7742C17.4535 19.7951 17.4018 19.8035 17.3506 19.7985C17.2986 19.8028 17.2464 19.7942 17.1985 19.7734C17.1507 19.7525 17.1088 19.7201 17.0765 19.6791C17.017 19.5816 16.989 19.4681 16.9963 19.3541V18.3401C16.9986 18.3211 16.9968 18.3019 16.9911 18.2837C16.9854 18.2654 16.9759 18.2486 16.9633 18.2342C16.9506 18.22 16.935 18.2085 16.9176 18.2007C16.9002 18.1928 16.8813 18.1888 16.8622 18.1888C16.8431 18.1888 16.8242 18.1928 16.8068 18.2007C16.7893 18.2085 16.7738 18.22 16.7611 18.2342C16.7484 18.2486 16.7389 18.2654 16.7332 18.2837C16.7276 18.3019 16.7258 18.3211 16.7281 18.3401V19.2758C16.7152 19.4731 16.7622 19.6696 16.8632 19.8396C16.9196 19.9152 16.9943 19.9753 17.0802 20.0143C17.1661 20.0533 17.2605 20.07 17.3545 20.0628C17.4488 20.0721 17.5439 20.0564 17.6302 20.0172C17.7165 19.978 17.7909 19.9168 17.8459 19.8396C17.9397 19.6673 17.9819 19.4715 17.9673 19.2758V18.346C17.9696 18.327 17.9678 18.3078 17.9621 18.2895C17.9564 18.2713 17.9469 18.2544 17.9342 18.2402C17.9216 18.2258 17.906 18.2144 17.8886 18.2066C17.8712 18.1987 17.8523 18.1947 17.8332 18.1947C17.8141 18.1947 17.7952 18.1987 17.7777 18.2066C17.7644 18.2126 17.7521 18.2207 17.7414 18.2306C17.7382 18.2336 17.735 18.2368 17.7321 18.2402C17.7253 18.2478 17.7194 18.2562 17.7146 18.2651C17.7103 18.2728 17.7069 18.281 17.7042 18.2895C17.701 18.2997 17.6991 18.3101 17.6984 18.3207C17.6978 18.3291 17.6981 18.3376 17.6991 18.346L17.6932 18.3401Z" fill="#66747B" fill-opacity="0.6"/>
<path d="M19.0635 18.4517C19.0978 18.4517 19.1306 18.4381 19.1549 18.4138C19.1675 18.4012 19.1773 18.3862 19.1837 18.3699C19.1896 18.3549 19.1927 18.3388 19.1927 18.3224C19.1927 18.3047 19.1891 18.2874 19.1822 18.2714C19.1758 18.2565 19.1666 18.2428 19.1549 18.2311C19.1306 18.2069 19.0978 18.1933 19.0635 18.1933H18.302C18.2677 18.1933 18.2349 18.2069 18.2106 18.2311C18.1864 18.2553 18.1728 18.2882 18.1728 18.3224C18.1728 18.3567 18.1864 18.3896 18.2106 18.4138C18.2349 18.4381 18.2677 18.4517 18.302 18.4517H18.5506V19.9199C18.5546 19.9526 18.5704 19.9828 18.5951 20.0047C18.6198 20.0266 18.6517 20.0387 18.6847 20.0387C18.7177 20.0387 18.7496 20.0266 18.7743 20.0047C18.799 19.9828 18.8149 19.9526 18.8188 19.9199V18.4517H19.0635Z" fill="#66747B" fill-opacity="0.6"/>
<path d="M20.2674 18.4517C20.3017 18.4517 20.3346 18.4381 20.3588 18.4138C20.383 18.3896 20.3966 18.3567 20.3966 18.3224C20.3966 18.2882 20.383 18.2553 20.3588 18.2311C20.3346 18.2069 20.3017 18.1933 20.2674 18.1933H19.5059C19.4717 18.1933 19.4388 18.2069 19.4146 18.2311C19.3903 18.2553 19.3767 18.2882 19.3767 18.3224C19.3767 18.3402 19.3804 18.3575 19.3872 18.3735C19.3937 18.3884 19.4029 18.4021 19.4146 18.4138C19.4388 18.4381 19.4717 18.4517 19.5059 18.4517H19.7546V19.9199C19.7585 19.9526 19.7743 19.9828 19.799 20.0047C19.8238 20.0266 19.8556 20.0387 19.8886 20.0387C19.9217 20.0387 19.9535 20.0266 19.9782 20.0047C20.0029 19.9828 20.0188 19.9526 20.0227 19.9199V18.4517H20.2674Z" fill="#66747B" fill-opacity="0.6"/>
<path d="M21.3128 18.9685C21.2012 18.9685 21.1855 19.0252 21.1855 19.0761C21.1828 19.1086 21.193 19.1408 21.2139 19.1657C21.2348 19.1906 21.2647 19.2063 21.2971 19.2093H21.6045V19.2915C21.6145 19.4071 21.584 19.5226 21.5183 19.6183C21.4526 19.714 21.3558 19.7839 21.2443 19.8161C21.1729 19.8186 21.1026 19.7986 21.0432 19.7589C20.9838 19.7191 20.9384 19.6618 20.9135 19.5949C20.8447 19.4411 20.8112 19.2739 20.8156 19.1055C20.8171 18.9393 20.8573 18.7758 20.933 18.6279C20.9547 18.5683 20.9933 18.5163 21.044 18.4785C21.0948 18.4406 21.1556 18.4183 21.2188 18.4145C21.2789 18.4204 21.3364 18.4415 21.386 18.4757C21.4357 18.5099 21.4758 18.5562 21.5027 18.6102C21.5174 18.6354 21.5414 18.6539 21.5694 18.6619C21.5975 18.67 21.6276 18.6669 21.6534 18.6533C21.6682 18.6491 21.6816 18.6415 21.6928 18.6314C21.7009 18.6241 21.7078 18.6155 21.7132 18.6058C21.726 18.5827 21.7292 18.5554 21.7219 18.53C21.6867 18.426 21.6181 18.3365 21.5267 18.2756C21.4354 18.2147 21.3264 18.1857 21.2169 18.1933C21.1199 18.1854 21.0227 18.2067 20.9379 18.2545C20.8532 18.3023 20.7846 18.3744 20.7412 18.4614C20.6247 18.6587 20.5651 18.8843 20.5689 19.1133C20.5628 19.3452 20.6174 19.5747 20.7275 19.7789C20.7719 19.8715 20.8412 19.9498 20.9276 20.0051C21.0141 20.0605 21.1142 20.0906 21.2169 20.0921C21.3308 20.0904 21.4422 20.0586 21.5399 20.0002C21.7045 19.8753 21.8185 19.6953 21.8609 19.4931C21.88 19.3846 21.8885 19.2744 21.8864 19.1642C21.8864 19.0742 21.8648 18.9685 21.7298 18.9685H21.3128Z" fill="#66747B" fill-opacity="0.6"/>
<path d="M26.1598 18.4517C26.1941 18.4517 26.2269 18.4381 26.2512 18.4138C26.2754 18.3896 26.289 18.3567 26.289 18.3224C26.289 18.2882 26.2754 18.2553 26.2512 18.2311C26.2269 18.2069 26.1941 18.1933 26.1598 18.1933H25.4003C25.3798 18.1933 25.3598 18.1981 25.3418 18.2073C25.3298 18.2134 25.3186 18.2214 25.3089 18.2311C25.2847 18.2553 25.2711 18.2882 25.2711 18.3224C25.2711 18.348 25.2786 18.3728 25.2926 18.3938C25.2973 18.401 25.3028 18.4077 25.3089 18.4138C25.3331 18.4381 25.366 18.4517 25.4003 18.4517H25.6489V19.9199C25.6529 19.9526 25.6687 19.9828 25.6934 20.0047C25.7181 20.0266 25.75 20.0387 25.783 20.0387C25.816 20.0387 25.8479 20.0266 25.8726 20.0047C25.8973 19.9828 25.9131 19.9526 25.9171 19.9199V18.4517H26.1598Z" fill="#66747B" fill-opacity="0.6"/>
<path fill-rule="evenodd" clip-rule="evenodd" d="M24.5937 19.3698L24.6368 19.3541C24.7315 19.3205 24.8172 19.2656 24.8874 19.1936C24.9444 19.1397 24.988 19.0732 25.0149 18.9995C25.0417 18.9257 25.051 18.8468 25.042 18.7688C25.0377 18.6828 25.0148 18.5986 24.975 18.5223C24.9351 18.4459 24.8792 18.3791 24.811 18.3264C24.6778 18.2402 24.5214 18.1965 24.3627 18.2011H23.9556C23.9355 18.1998 23.9155 18.203 23.8969 18.2105C23.8782 18.2179 23.8615 18.2294 23.8479 18.2442C23.824 18.2734 23.8115 18.3102 23.8127 18.3479V19.914C23.8088 19.9477 23.8183 19.9816 23.8392 20.0083C23.86 20.035 23.8906 20.0525 23.9242 20.0569H23.9458C23.9579 20.0577 23.9701 20.0569 23.9819 20.0543C23.9883 20.0528 23.9947 20.0509 24.0009 20.0485C24.0184 20.0417 24.0342 20.0311 24.0471 20.0174C24.06 20.0037 24.0697 19.9874 24.0756 19.9695C24.0814 19.9516 24.0832 19.9326 24.0808 19.914V19.4187H24.3334L24.7366 19.9747C24.7499 19.9939 24.7678 20.0095 24.7887 20.0201C24.8095 20.0307 24.8327 20.036 24.8561 20.0354C24.8719 20.0376 24.888 20.0364 24.9034 20.032C24.9188 20.0275 24.933 20.0198 24.9452 20.0095C24.9574 19.9992 24.9673 19.9863 24.9742 19.9719C24.9811 19.9574 24.9849 19.9417 24.9853 19.9257C24.9839 19.8814 24.9665 19.8389 24.9363 19.8064L24.5937 19.3698ZM24.071 19.1584V18.4536H24.3921C24.494 18.4488 24.5937 18.4839 24.6701 18.5515C24.704 18.5807 24.7315 18.6167 24.7507 18.6572C24.7699 18.6976 24.7805 18.7416 24.7817 18.7864C24.7771 18.8872 24.7339 18.9823 24.6609 19.0519C24.588 19.1216 24.491 19.1604 24.3901 19.1603H24.0789L24.071 19.1584Z" fill="#66747B" fill-opacity="0.6"/>
<path fill-rule="evenodd" clip-rule="evenodd" d="M23.0002 18.3264C22.9854 18.2848 22.9592 18.2483 22.9246 18.2209C22.9065 18.2066 22.8865 18.1952 22.8653 18.1868C22.8459 18.1791 22.8254 18.174 22.8045 18.1717C22.7592 18.1747 22.7159 18.1917 22.6808 18.2206C22.6457 18.2493 22.6205 18.2884 22.6087 18.3323L22.1095 19.8983C22.1038 19.9173 22.1027 19.9374 22.1064 19.9568C22.1102 19.9762 22.1187 19.9945 22.1311 20.0099C22.1415 20.0261 22.1553 20.04 22.1715 20.0505C22.1877 20.0609 22.2059 20.0678 22.225 20.0706C22.2916 20.0706 22.3542 20.0706 22.3777 19.9766L22.4541 19.7026H23.1647L23.2469 19.9708C23.2565 19.9988 23.2748 20.023 23.299 20.0399C23.3076 20.0458 23.3167 20.0508 23.3263 20.0547C23.3438 20.0618 23.3628 20.0652 23.382 20.0647C23.4044 20.0659 23.4267 20.0617 23.4471 20.0525C23.4675 20.0433 23.4855 20.0294 23.4994 20.0119C23.5107 19.9887 23.5165 19.9632 23.5165 19.9375C23.5165 19.9117 23.5107 19.8863 23.4994 19.8631L23.0002 18.3264ZM22.5265 19.5009H23.1118L22.8045 18.4928L22.5265 19.5009Z" fill="#66747B" fill-opacity="0.6"/>
<path d="M15.1698 19.1212C14.9941 19.0192 14.7971 18.9596 14.5943 18.947C14.5312 18.9351 14.4753 18.8988 14.4387 18.8461C14.4021 18.7933 14.3877 18.7283 14.3986 18.6651C14.4208 18.5989 14.465 18.5424 14.5237 18.5046C14.5824 18.4669 14.6522 18.4503 14.7216 18.4576C14.785 18.4557 14.8481 18.4679 14.9063 18.4933C14.9646 18.5186 15.0164 18.5566 15.0583 18.6043C15.1307 18.6924 15.2638 18.6043 15.2638 18.5222C15.2638 18.4399 15.1346 18.2011 14.7392 18.1972C14.6001 18.1943 14.4636 18.2339 14.3477 18.3107C14.2869 18.349 14.2358 18.4006 14.1981 18.4617C14.1604 18.5227 14.1373 18.5916 14.1304 18.6631C14.1219 18.7356 14.1292 18.8091 14.1516 18.8786C14.174 18.9481 14.211 19.012 14.2601 19.066C14.3093 19.1199 14.3694 19.1627 14.4365 19.1915C14.5036 19.2203 14.5761 19.2344 14.6491 19.2327C14.7307 19.2289 14.8119 19.2463 14.8847 19.2834C14.9574 19.3205 15.0193 19.3759 15.0641 19.4442C15.0765 19.4737 15.0824 19.5053 15.0816 19.537C15.0812 19.5501 15.0797 19.5633 15.0771 19.5763C15.068 19.6207 15.0457 19.6613 15.0132 19.6928C14.9239 19.7656 14.8113 19.8038 14.6961 19.8004C14.5712 19.798 14.4514 19.7499 14.3594 19.6654C14.3491 19.6537 14.3375 19.6434 14.3247 19.6348C14.3107 19.6253 14.2954 19.6179 14.2792 19.6126C14.2481 19.6026 14.215 19.6012 14.1832 19.6086C14.0873 19.6399 14.1029 19.7574 14.1088 19.777C14.1684 19.8723 14.2521 19.9502 14.3514 20.0028C14.4508 20.0554 14.5623 20.0808 14.6746 20.0765C14.7717 20.0823 14.8691 20.068 14.9604 20.0343C15.0517 20.0006 15.135 19.9483 15.2051 19.8807C15.3007 19.7792 15.3527 19.6443 15.3499 19.5049C15.357 19.43 15.3445 19.3545 15.3136 19.2858C15.2827 19.2172 15.2345 19.1578 15.1738 19.1133L15.1698 19.1212Z" fill="#66747B" fill-opacity="0.6"/>
<path d="M16.4263 18.4495C16.4371 18.4436 16.4472 18.4361 16.456 18.4273C16.4804 18.4029 16.4942 18.3697 16.4942 18.3352C16.4942 18.3007 16.4804 18.2675 16.456 18.2431C16.4316 18.2187 16.3985 18.205 16.364 18.205H15.5986C15.564 18.205 15.5309 18.2187 15.5065 18.2431C15.4821 18.2675 15.4684 18.3007 15.4684 18.3352C15.4684 18.3697 15.4821 18.4029 15.5065 18.4273C15.5309 18.4517 15.564 18.4654 15.5986 18.4654H15.8472V19.9355C15.8449 19.9545 15.8466 19.9738 15.8523 19.992C15.858 20.0102 15.8675 20.027 15.8802 20.0413C15.8929 20.0557 15.9084 20.0671 15.9258 20.075C15.9433 20.0828 15.9622 20.0868 15.9813 20.0868C16.0004 20.0868 16.0193 20.0828 16.0367 20.075C16.0541 20.0671 16.0697 20.0557 16.0824 20.0413C16.095 20.027 16.1045 20.0102 16.1102 19.992C16.1159 19.9738 16.1177 19.9545 16.1154 19.9355V18.4654H16.364C16.386 18.4654 16.4074 18.4598 16.4263 18.4495Z" fill="#66747B" fill-opacity="0.6"/>
<path fill-rule="evenodd" clip-rule="evenodd" d="M26.1716 26.7675C26.1004 26.7808 26.0274 26.7808 25.9562 26.7675C25.8836 26.7537 25.8191 26.7123 25.7761 26.6521C25.7309 26.6004 25.6987 26.5386 25.6822 26.4719C25.6822 26.4289 25.7213 26.3917 25.7546 26.3662C25.8639 26.286 25.9569 26.1857 26.0286 26.0707C26.0881 25.9683 26.1236 25.8539 26.1324 25.7359C26.1324 25.7143 26.0893 25.7046 26.0737 25.7183C26.0559 25.7351 26.0397 25.754 26.0241 25.7737C26.013 25.7878 26.0022 25.8023 25.9913 25.8169C25.9541 25.867 25.917 25.917 25.8662 25.9493C25.7874 26.0031 25.6933 26.0299 25.598 26.0256C25.532 26.0203 25.4705 25.9902 25.4257 25.9414C25.3847 25.8869 25.3541 25.8252 25.3357 25.7594C25.3141 25.7026 25.4022 25.6615 25.461 25.6478C25.5862 25.6387 25.7079 25.6019 25.8172 25.5401C25.8881 25.4985 25.9448 25.4364 25.9797 25.362C26.0006 25.3028 26.0118 25.2407 26.013 25.178C26.013 25.1692 26.0146 25.1615 26.0159 25.1553C26.0186 25.1419 26.0199 25.1355 26.0012 25.1408C25.9689 25.1512 25.9416 25.1659 25.9154 25.18C25.8877 25.1948 25.8611 25.2091 25.8309 25.2171C25.7778 25.2356 25.7216 25.2433 25.6655 25.24C25.6094 25.2366 25.5545 25.2222 25.504 25.1976C25.4024 25.1231 25.3188 25.0267 25.2593 24.9157C25.2502 24.9013 25.2532 24.8775 25.2632 24.8625C25.2682 24.855 25.2749 24.8497 25.2828 24.8491C25.3846 24.8276 25.4786 24.714 25.551 24.5809C25.568 24.5536 25.5824 24.5247 25.5941 24.4948C25.6032 24.4721 25.6221 24.4487 25.6376 24.4296C25.6488 24.4158 25.6582 24.4043 25.6606 24.3969C25.6795 24.3174 25.6868 24.2357 25.6822 24.1541C25.6728 24.085 25.6395 24.0213 25.5882 23.974C25.5765 23.9656 25.5625 23.9611 25.5481 23.9611C25.5337 23.9611 25.5196 23.9656 25.5079 23.974C25.4861 24.0149 25.4813 24.0622 25.4765 24.1091C25.4715 24.1587 25.4666 24.2078 25.4414 24.2481C25.3854 24.3351 25.3137 24.4108 25.23 24.4713C25.1888 24.5026 25.1301 24.5457 25.0812 24.5241C25.0421 24.505 25.0077 24.4776 24.9803 24.4437C24.963 24.4225 24.9488 24.3989 24.938 24.3738C24.9317 24.3592 24.9265 24.344 24.9226 24.3284C24.911 24.2257 24.9329 24.122 24.9853 24.0328C25.0804 23.8457 25.1931 23.668 25.322 23.5023C25.4216 23.3949 25.5157 23.2825 25.6039 23.1656C25.6645 23.0775 25.7096 22.8895 25.6293 22.8602C25.5814 22.8427 25.5453 22.9019 25.5095 22.9608C25.4853 23.0006 25.4612 23.0402 25.4335 23.056C25.1574 23.1595 24.8971 23.3012 24.6603 23.4768C24.5511 23.6213 24.4725 23.7865 24.4293 23.9623C24.4199 23.9873 24.4147 24.0159 24.4114 24.0461C24.4086 24.0709 24.4071 24.0969 24.4056 24.1228C24.4021 24.1842 24.3986 24.2457 24.3784 24.2931C24.3627 24.3284 24.2903 24.3597 24.2609 24.3401C24.1698 24.2583 24.1022 24.1535 24.0652 24.0367C24.0453 23.9574 24.0508 23.8739 24.0808 23.7979C24.0926 23.7665 24.0691 23.7372 24.0456 23.7509C23.9377 23.8118 23.8556 23.9099 23.8146 24.0269C23.7674 24.1848 23.7814 24.3546 23.8538 24.5026C23.9863 24.7233 24.1321 24.9358 24.2903 25.1388C24.319 25.1874 24.3496 25.236 24.3809 25.2845C24.4014 25.3163 24.4222 25.348 24.443 25.3798C24.5187 25.4952 24.5944 25.6107 24.6544 25.7261C24.7591 25.8811 24.8017 26.0698 24.7738 26.2547C24.7314 26.4459 24.6333 26.6202 24.4919 26.7558C24.4743 26.7675 24.4332 26.7871 24.4176 26.7734C24.27 26.6347 24.1151 26.504 23.9536 26.3819C23.7573 26.2571 23.5396 26.1695 23.3115 26.1235C23.0278 26.0944 22.7417 26.0944 22.458 26.1235C22.3876 26.1235 22.3172 26.1265 22.247 26.1308C22.1805 26.1349 22.114 26.1403 22.0475 26.1457C21.8857 26.1587 21.7238 26.1719 21.5614 26.1666C21.3188 26.1772 21.0762 26.1448 20.8449 26.0707C20.6711 26.0054 20.5261 25.8805 20.4358 25.7183C20.3527 25.5469 20.3214 25.3551 20.3457 25.1662C20.3582 25.012 20.4043 24.8623 20.4808 24.7277C20.5438 24.6075 20.6403 24.5082 20.7588 24.442C20.8926 24.3688 21.0486 24.3473 21.1973 24.3812C21.2689 24.4138 21.335 24.4574 21.3931 24.5105C21.4532 24.5596 21.5089 24.6139 21.5595 24.6729C21.5595 24.6729 21.6064 24.6729 21.6084 24.6631C21.6295 24.4634 21.6006 24.2616 21.5242 24.0759C21.4501 23.9308 21.3622 23.7931 21.2619 23.6648C21.2619 23.6505 21.2793 23.6432 21.3014 23.6392C21.3213 23.6356 21.345 23.6347 21.3633 23.6341L21.3794 23.6335C21.5405 23.625 21.6997 23.6727 21.8296 23.7685C21.9189 23.8298 21.9942 23.9092 22.0508 24.0015C22.0508 24.0015 22.0821 24.0015 22.0821 23.9917C22.0896 23.8704 22.073 23.7488 22.0333 23.6339C21.9937 23.519 21.9318 23.4131 21.8511 23.3222C21.7786 23.217 21.6811 23.1316 21.5673 23.0736C21.5007 23.0501 21.6162 22.9972 21.6769 22.9952C21.8054 22.9821 21.9352 23.0009 22.0547 23.0501C22.0974 23.071 22.1358 23.0995 22.1683 23.1342C22.1925 23.1568 22.2187 23.1771 22.2466 23.195C22.2681 23.2086 22.2916 23.1675 22.2838 23.1441C22.2685 23.074 22.2399 23.0076 22.1996 22.9483C22.0103 22.7609 21.8082 22.5869 21.5947 22.4276C21.5709 22.4127 21.5486 22.3957 21.5281 22.3766C21.4693 22.2949 21.4237 22.2044 21.3931 22.1085C21.3865 22.0908 21.3712 22.0736 21.3546 22.055C21.3362 22.0343 21.3163 22.0119 21.305 21.9852C21.2906 21.9335 21.2961 21.8782 21.3206 21.8305C21.3793 21.7205 21.4328 21.6963 21.5455 21.6455L21.5556 21.6409L21.5692 21.6347C21.6685 21.6029 21.7709 21.5819 21.8746 21.5721C21.8809 21.5721 21.8873 21.5734 21.8938 21.5753C21.9012 21.5776 21.9087 21.5808 21.9162 21.584C21.9342 21.5916 21.952 21.5991 21.9686 21.5936C21.998 21.5838 21.994 21.5427 21.9451 21.5055C21.8226 21.4187 21.6763 21.3716 21.5262 21.3705C21.3298 21.3379 21.1284 21.3527 20.9389 21.4135C20.797 21.4928 20.6391 21.5389 20.4769 21.5486C20.3717 21.5537 20.2668 21.5329 20.1715 21.4879C20.1378 21.4718 20.1081 21.4483 20.0848 21.4192C20.0614 21.39 20.0449 21.356 20.0364 21.3196C20.0322 21.1979 20.0613 21.0774 20.1206 20.9711C20.1669 20.8947 20.2351 20.8339 20.3164 20.7969C20.3712 20.7675 20.4103 20.746 20.4064 20.7068C20.4025 20.6677 20.3242 20.6853 20.2948 20.697C20.1167 20.7357 19.9457 20.8017 19.7878 20.8928C19.6731 20.9984 19.5707 21.1166 19.4824 21.2452C19.4622 21.2684 19.4367 21.2865 19.408 21.298C19.3914 21.3054 19.3757 21.3058 19.3596 21.3063C19.3416 21.3067 19.323 21.3072 19.3023 21.3176C19.2076 21.354 19.1119 21.3991 19.0182 21.4432L19.0177 21.4434L18.9768 21.4627L18.9226 21.4879C18.8698 21.5122 18.8217 21.5444 18.7739 21.5763C18.7101 21.619 18.6469 21.6612 18.5741 21.6837C18.4764 21.7141 18.3749 21.7306 18.2726 21.7326C18.0769 21.713 17.8028 21.715 17.7539 21.9577C17.7475 21.9818 17.7492 22.0073 17.7588 22.0303C17.7683 22.0533 17.7852 22.0725 17.8067 22.085C17.842 22.1064 17.8794 22.1242 17.9183 22.1378L18.0436 22.1828C18.0729 22.19 18.0995 22.2057 18.1199 22.2279V22.2612C18.1204 22.2651 18.1204 22.269 18.1199 22.2729C18.113 22.2908 18.101 22.3063 18.0853 22.3175C18.0697 22.3286 18.0511 22.3349 18.0319 22.3356C17.9218 22.3598 17.8068 22.3445 17.7069 22.2925L17.6834 22.2808C17.6615 22.2671 17.6354 22.2617 17.6099 22.2657C17.597 22.2677 17.5847 22.272 17.5735 22.2783C17.5626 22.2844 17.5527 22.2925 17.5444 22.3023C17.3248 22.4815 17.0961 22.6495 16.8593 22.8054C16.8346 22.8204 16.8122 22.8388 16.7927 22.8602C16.78 22.8747 16.7712 22.8922 16.7672 22.9111C16.7651 22.9266 16.7651 22.9425 16.7672 22.958C16.7672 23.0129 16.7124 23.0383 16.6694 23.0501C16.6451 23.0563 16.6235 23.0701 16.6077 23.0894C16.5918 23.1088 16.5826 23.1328 16.5813 23.1578C16.579 23.172 16.5776 23.1864 16.577 23.2009C16.5759 23.2257 16.5774 23.2506 16.5813 23.2752C16.585 23.2962 16.5935 23.3161 16.6061 23.3333C16.6187 23.3505 16.6351 23.3646 16.654 23.3744C16.673 23.3842 16.6939 23.3896 16.7152 23.39C16.7366 23.3905 16.7577 23.386 16.777 23.377C16.8358 23.3535 16.8945 23.3339 16.9552 23.3163C16.9711 23.3103 16.9884 23.3086 17.0052 23.3114C17.022 23.3142 17.0379 23.3212 17.0511 23.332L17.0609 23.3457V23.3652C17.0627 23.3828 17.0593 23.4005 17.0511 23.4161C17.0284 23.4545 17.0029 23.4912 16.9748 23.5258C16.9473 23.5669 16.9258 23.6256 16.9748 23.6608C17.015 23.6931 17.0657 23.7095 17.1173 23.7071C17.1689 23.7045 17.2177 23.6832 17.2547 23.6471C17.2804 23.6205 17.3029 23.5911 17.3218 23.5594C17.3309 23.5442 17.3393 23.5283 17.3467 23.5121C17.3691 23.4598 17.4103 23.4179 17.4622 23.3946C17.5631 23.3515 17.6716 23.3288 17.7813 23.328C17.8584 23.325 17.9346 23.3447 18.0005 23.3848C18.0107 23.3907 18.0197 23.3982 18.0274 23.4069C18.0349 23.4154 18.041 23.4251 18.0456 23.4357V23.467C18.0459 23.4703 18.0459 23.4736 18.0456 23.4768C18.0261 23.5517 17.9951 23.623 17.9536 23.6883C17.9429 23.7127 17.9346 23.7418 17.9258 23.7727C17.9183 23.7986 17.9105 23.8259 17.9007 23.8527C17.8946 23.8693 17.8877 23.8861 17.8806 23.9028C17.8741 23.9179 17.8674 23.9328 17.8609 23.9473C17.8493 23.9731 17.8383 23.9975 17.8302 24.0191C17.8219 24.0412 17.8154 24.0538 17.8067 24.0646C17.7993 24.0737 17.7904 24.0816 17.7776 24.0929L17.7727 24.0972L17.7637 24.1052C17.7196 24.142 17.6678 24.1789 17.6157 24.2159C17.5542 24.2596 17.4924 24.3035 17.4426 24.348C17.2752 24.5055 17.1285 24.6838 17.0061 24.8785C16.969 24.9392 16.9413 25.0053 16.9239 25.0743L16.922 25.0833L16.9191 25.0974C16.8855 25.2624 16.8482 25.445 16.6557 25.3366C16.463 25.2304 16.2773 25.1121 16.0997 24.9822C16.0342 24.9316 15.9774 24.8708 15.9314 24.8021C15.7552 24.5457 15.5398 24.7728 15.4224 24.9587C15.2379 25.2463 15.0359 25.5222 14.8175 25.7848C14.7827 25.8267 14.7543 25.8736 14.7333 25.9238C14.7047 25.9957 14.6636 26.062 14.6119 26.1196C14.5503 26.2002 14.5198 26.3002 14.5258 26.4015C14.5294 26.5754 14.475 26.7455 14.3711 26.885C14.2947 26.9648 14.2507 27.0702 14.2478 27.1806V27.4684C14.2478 27.5604 14.2791 27.6035 14.3614 27.5976C14.3803 27.5949 14.3987 27.5896 14.4162 27.5819C14.5629 27.5258 14.7007 27.4487 14.8253 27.3529C14.8434 27.3385 14.8604 27.3228 14.8762 27.3059C14.8953 27.2867 14.9079 27.2621 14.9125 27.2356C14.9148 27.2218 14.915 27.2079 14.9129 27.1942C14.9111 27.1814 14.9073 27.1689 14.9017 27.1571C14.895 27.1436 14.8864 27.131 14.8762 27.1199L14.8488 27.0945C14.818 27.0736 14.7947 27.0434 14.7822 27.0083C14.7818 27.0005 14.7818 26.9927 14.7822 26.9849C14.7764 26.9525 14.7764 26.9193 14.7822 26.887C14.7925 26.845 14.8003 26.8026 14.8057 26.7597C14.81 26.709 14.8339 26.662 14.8723 26.6285L15.0681 26.4661C15.1156 26.4268 15.1493 26.3732 15.1641 26.3133C15.1789 26.2533 15.1741 26.1902 15.1503 26.1333C15.1419 26.1119 15.1359 26.0895 15.1326 26.0667C15.1318 26.055 15.1318 26.0432 15.1326 26.0315C15.1421 25.9789 15.1651 25.9297 15.1992 25.8886L15.3343 25.6928C15.3969 25.5882 15.4982 25.5123 15.6162 25.4814C15.6901 25.4724 15.7651 25.4798 15.8359 25.5031C15.9066 25.5265 15.9713 25.5652 16.0253 25.6165C16.1435 25.7662 16.224 25.9421 16.2602 26.1294C16.3056 26.2824 16.3715 26.4286 16.456 26.564C16.4642 26.5799 16.4743 26.5947 16.4862 26.608C16.4955 26.6185 16.506 26.6281 16.5173 26.6365C16.543 26.6557 16.5727 26.6688 16.6042 26.6749C16.6357 26.6809 16.6682 26.6797 16.6991 26.6714C16.7301 26.663 16.7587 26.6477 16.7829 26.6266L16.8025 26.6149L16.824 26.6051C16.8452 26.5992 16.8677 26.6007 16.8879 26.6093C16.9082 26.6178 16.925 26.6329 16.9356 26.6521C16.9914 26.7217 17.0523 26.7871 17.1177 26.8478C17.194 26.8948 17.1294 26.9535 17.0648 26.9535H16.9082C16.8622 26.9511 16.8161 26.9585 16.7731 26.9751C16.4602 27.0737 16.1342 27.1245 15.8061 27.1258H15.7434C15.7243 27.1293 15.7063 27.1371 15.6907 27.1486C15.6751 27.1602 15.6623 27.1751 15.6534 27.1923C15.6474 27.2038 15.6422 27.2155 15.6377 27.2276L15.6025 27.3216C15.5736 27.3958 15.5736 27.4783 15.6025 27.5526C15.7332 27.997 15.7666 28.4644 15.7004 28.9229C15.6835 29.0044 15.6846 29.0887 15.7036 29.1698C15.7225 29.2509 15.7588 29.327 15.81 29.3927C15.85 29.4398 15.9032 29.4738 15.9627 29.4906C15.9869 29.4979 16.0095 29.5099 16.0292 29.5258C16.0708 29.5742 16.093 29.6362 16.0919 29.7C16.0992 29.7904 16.1364 29.8758 16.1976 29.9428C16.2797 30.0463 16.3823 30.1316 16.4991 30.1933L16.5382 30.209C16.5683 30.2223 16.6025 30.2232 16.6333 30.2114C16.664 30.1997 16.689 30.1763 16.7026 30.1464C16.773 29.9979 16.8072 29.8349 16.8025 29.6707C16.8011 29.6327 16.7871 29.5963 16.7626 29.5671C16.7495 29.5516 16.7339 29.5387 16.7165 29.5288C16.7013 29.5201 16.6848 29.5138 16.6674 29.5101H16.6439C16.6159 29.509 16.5885 29.5188 16.5676 29.5376C16.5547 29.5447 16.5408 29.5499 16.5265 29.5532H16.4599L16.4403 29.5434C16.3997 29.5154 16.3684 29.4758 16.3503 29.4299C16.3123 29.338 16.3061 29.236 16.3327 29.1402C16.3327 29.1232 16.3379 29.1062 16.3433 29.0888C16.3466 29.0781 16.35 29.0672 16.3522 29.056C16.3578 29.0286 16.3599 29.0007 16.3586 28.9728C16.3578 28.9554 16.3557 28.9381 16.3522 28.9209C16.3481 28.8742 16.3362 28.8286 16.317 28.7858L16.31 28.7709C16.2801 28.7074 16.2676 28.6807 16.2093 28.6625H16.1878C16.1596 28.6522 16.1332 28.6377 16.1095 28.6195L16.0977 28.6057C16.0931 28.5953 16.0907 28.5839 16.0907 28.5725C16.0907 28.561 16.0931 28.5497 16.0977 28.5392C16.1318 28.3223 16.1391 28.102 16.1193 27.8834C16.1193 27.8712 16.1188 27.8589 16.1184 27.8467L16.1184 27.8461C16.1162 27.7862 16.114 27.7282 16.1643 27.6876C16.3097 27.5649 16.5499 27.6553 16.7073 27.7146L16.7242 27.7209C16.9299 27.7931 17.1414 27.8475 17.3565 27.8834C17.7045 27.9153 18.0522 27.82 18.3353 27.6152L18.3418 27.6096C18.3632 27.5909 18.3673 27.5873 18.396 27.6035C18.4581 27.6392 18.5072 27.6791 18.557 27.7194L18.5576 27.7199C18.6002 27.7544 18.6433 27.7894 18.6955 27.8227C18.9533 27.9949 19.2358 28.1269 19.5333 28.2142C19.9332 28.2529 20.3361 28.2496 20.7353 28.2044C20.8363 28.2109 20.9359 28.2321 21.0309 28.2671C21.0381 28.2694 21.0447 28.2733 21.0502 28.2784C21.053 28.2811 21.0556 28.284 21.0578 28.2873C21.0642 28.2969 21.0671 28.3084 21.0661 28.3199C21.0617 28.3866 21.0475 28.4517 21.0334 28.5167C21.0165 28.5947 20.9996 28.6724 20.9996 28.7525C21.0098 28.8325 21.0386 28.9089 21.0838 28.9757C21.0991 29.0047 21.1122 29.0389 21.1255 29.0735C21.1364 29.1019 21.1474 29.1306 21.1599 29.1571C21.1672 29.1726 21.175 29.1874 21.1836 29.2009L21.2247 29.2772C21.3356 29.4156 21.3971 29.587 21.3996 29.7643C21.4021 29.9416 21.3454 30.1146 21.2384 30.256C21.0878 30.3998 20.9254 30.5309 20.7529 30.6475C20.5895 30.7707 20.3949 30.8459 20.1911 30.8648C20.0552 30.8714 19.9261 30.9262 19.827 31.0195C19.7119 31.1385 19.58 31.24 19.4355 31.3209C19.4063 31.3316 19.38 31.349 19.3589 31.3718C19.3378 31.3947 19.3225 31.4222 19.3141 31.4521C19.2448 31.6162 19.1942 31.7876 19.1633 31.963C19.1418 32.0629 19.2162 32.0981 19.3043 32.0844C19.454 32.0628 19.6005 32.0234 19.7408 31.9669C19.7613 31.9606 19.7802 31.9498 19.7959 31.9353C19.8117 31.9208 19.8239 31.9029 19.8318 31.883C19.8397 31.863 19.843 31.8416 19.8415 31.8202C19.8408 31.8098 19.8389 31.7995 19.8359 31.7896C19.8328 31.7791 19.8285 31.769 19.8231 31.7594L19.7761 31.6322C19.7711 31.6197 19.7678 31.6065 19.7663 31.593C19.766 31.5878 19.766 31.5826 19.7663 31.5774V31.5617C19.7716 31.5467 19.7795 31.5328 19.7898 31.5206C19.8147 31.4904 19.8444 31.4646 19.8779 31.4443C19.9181 31.4153 19.9677 31.4027 20.0169 31.409L20.1108 31.4325C20.1986 31.4632 20.2943 31.4627 20.3817 31.4309C20.4691 31.3992 20.5428 31.3382 20.5904 31.2583L20.6276 31.1976C20.6622 31.1389 20.7082 31.0877 20.7627 31.0469C21.1565 30.7934 21.579 30.5876 22.0214 30.4341C22.04 30.4297 22.0572 30.4207 22.0715 30.4081C22.0778 30.4026 22.0835 30.3964 22.0884 30.3897C22.0947 30.3811 22.0999 30.3717 22.1037 30.3617C22.1142 30.3101 22.1142 30.2568 22.1037 30.2051C22.09 30.054 22.09 29.902 22.1037 29.7509C22.1037 29.6452 22.1448 29.4573 22.2818 29.4553C22.3091 29.4594 22.3353 29.4691 22.3586 29.484C22.3818 29.4988 22.4017 29.5184 22.4169 29.5415C22.5531 29.7157 22.7366 29.8468 22.9454 29.9193C23.0081 29.9408 23.0688 29.9643 23.1294 29.9898C23.2082 30.0253 23.277 30.0795 23.3299 30.1478C23.3828 30.216 23.4181 30.2962 23.4329 30.3813C23.4422 30.4287 23.4416 30.4775 23.4312 30.5247C23.4207 30.5718 23.4007 30.6163 23.3722 30.6554C23.2254 30.8441 23.0881 31.0401 22.9611 31.2426C22.8961 31.349 22.8094 31.4403 22.7066 31.5108C22.548 31.6174 22.3957 31.7331 22.2505 31.8573C22.1331 31.9342 22.0352 32.0374 21.9647 32.1588C21.8843 32.3659 21.8144 32.5769 21.7552 32.7911C21.72 32.9144 21.7963 32.9438 21.9059 32.9183C22.0694 32.8745 22.2262 32.8087 22.3719 32.7226C22.3945 32.7104 22.415 32.6945 22.4325 32.6756C22.4529 32.6501 22.4633 32.6181 22.4619 32.5856C22.4548 32.5293 22.4317 32.4763 22.3953 32.4329C22.3697 32.4048 22.3541 32.369 22.3509 32.3311C22.3494 32.3134 22.3507 32.2956 22.3546 32.2785C22.359 32.259 22.3668 32.2404 22.3777 32.2234C22.3904 32.205 22.4064 32.1895 22.4249 32.1776C22.4392 32.1684 22.455 32.1613 22.4717 32.1568C22.5708 32.1254 22.6699 32.0996 22.7702 32.0735L22.7708 32.0733L22.826 32.059C22.9812 32.0369 23.1249 31.9647 23.2352 31.8534C23.2569 31.8265 23.2723 31.7951 23.2802 31.7614V31.734C23.4206 31.2524 23.7438 30.8449 24.1807 30.5986C24.2069 30.5828 24.229 30.5612 24.2453 30.5354C24.2616 30.5095 24.2717 30.4802 24.2746 30.4498C24.2852 30.3898 24.2784 30.328 24.2551 30.2717L23.9262 29.7607C23.8289 29.6289 23.7663 29.4747 23.7441 29.3124C23.747 29.1405 23.7899 28.9716 23.8694 28.8191C23.8987 28.7757 23.9255 28.7306 23.9497 28.684C23.9841 28.6095 24.0366 28.5632 24.0919 28.5144C24.131 28.4799 24.1716 28.4442 24.2081 28.3963C24.2992 28.2846 24.3817 28.1662 24.4547 28.042C24.5281 27.8797 24.587 27.7114 24.6309 27.5388C24.6558 27.4633 24.6442 27.3831 24.6325 27.3025C24.6239 27.2433 24.6153 27.1839 24.6211 27.1258C24.6294 27.0753 24.651 27.028 24.6838 26.9888C24.7403 26.9075 24.8202 26.8454 24.9128 26.8106C25.009 26.7873 25.1099 26.7934 25.2025 26.8283C25.2804 26.8504 25.3463 26.8761 25.4112 26.9014C25.4899 26.9322 25.5671 26.9623 25.6626 26.9849C25.7539 27.0028 25.8483 26.9967 25.9366 26.9672C26.0317 26.9424 26.1183 26.8924 26.1872 26.8224C26.2127 26.8047 26.2166 26.7538 26.1872 26.7558L26.1716 26.7675ZM20.1676 23.974C20.167 24.0389 20.1498 24.1024 20.1176 24.1587C20.0854 24.2149 20.0392 24.2619 19.9836 24.2951C19.9279 24.3213 19.8669 24.3341 19.8054 24.3323C19.7389 24.3323 19.7134 24.2286 19.7095 24.0778V23.3692C19.7094 23.243 19.7029 23.1169 19.6899 22.9913C19.6672 22.839 19.6312 22.689 19.5823 22.5431C19.5541 22.4534 19.5215 22.3652 19.4844 22.2788C19.4788 22.2657 19.4716 22.2521 19.4638 22.2383C19.4575 22.2272 19.4508 22.2159 19.4441 22.2048C19.4331 22.1863 19.4223 22.1682 19.4139 22.1515C19.4072 22.1379 19.3996 22.1247 19.3912 22.1122C19.3764 22.0901 19.3591 22.0698 19.3395 22.0517C19.3197 22.0336 19.2962 22.0193 19.2724 22.0049L19.2721 22.0048C19.242 21.9866 19.2117 21.9683 19.1888 21.9421C19.1751 21.9244 19.1888 21.9029 19.2084 21.8912C19.294 21.8452 19.3917 21.827 19.4881 21.8389C19.5845 21.8508 19.6749 21.8924 19.7467 21.9577C19.8643 22.0534 19.9609 22.1723 20.0303 22.307C20.0997 22.4418 20.1404 22.5895 20.15 22.7408C20.2088 23.1511 20.2088 23.5677 20.15 23.978L20.1676 23.974Z" fill="#66747B" fill-opacity="0.6"/>
<path fill-rule="evenodd" clip-rule="evenodd" d="M27.2659 17.1871H12.9284C12.901 17.1871 12.8971 17.1988 12.8971 17.2282L12.9147 27.8619C12.9307 28.8129 13.1514 29.7492 13.5619 30.6073C13.9723 31.4653 14.5628 32.2248 15.2932 32.8342C16.6424 34.0058 18.3632 34.6613 20.15 34.6841C21.4692 34.669 22.7607 34.3042 23.8929 33.627C25.3249 32.7873 26.4204 31.4759 26.9918 29.9173C27.1847 29.39 27.2886 28.8343 27.2991 28.273V17.2223C27.2987 17.2179 27.2973 17.2137 27.2952 17.2098C27.293 17.206 27.2901 17.2026 27.2867 17.1999C27.2845 17.1981 27.2821 17.1967 27.2796 17.1955C27.2781 17.1949 27.2766 17.1944 27.275 17.1939C27.2708 17.1927 27.2663 17.1924 27.2619 17.1929L27.2659 17.1871ZM26.6707 29.7607C26.855 29.2532 26.9542 28.7188 26.9644 28.179L26.9663 17.5512C26.9661 17.5469 26.965 17.5427 26.9631 17.5389C26.9619 17.5366 26.9606 17.5345 26.959 17.5326C26.9578 17.5313 26.9565 17.53 26.9551 17.5288C26.9518 17.5261 26.948 17.524 26.9438 17.5228C26.9397 17.5216 26.9354 17.5213 26.9311 17.5218H13.2612C13.2299 17.5218 13.2299 17.5335 13.2299 17.561L13.2455 27.7855C13.2595 28.6987 13.4691 29.5982 13.8601 30.4235C14.2512 31.2488 14.8146 31.9807 15.5124 32.5699C16.7956 33.6947 18.4379 34.325 20.1441 34.3474C21.4038 34.3325 22.6366 33.981 23.7148 33.3294C25.0838 32.5183 26.1287 31.2569 26.6707 29.7607Z" fill="#66747B" fill-opacity="0.6"/>
<path fill-rule="evenodd" clip-rule="evenodd" d="M10.5145 0.851792C12.3915 0.48001 14.9835 0.18174 17.5495 0.0422536C19.2125 -0.048125 22.7448 0.0124415 24.8385 0.167206C29.8932 0.540874 34.3802 1.36629 38.0959 2.60609C38.9954 2.90619 39.8027 3.22311 39.8914 3.31091C39.9487 3.36756 39.9507 4.19297 39.904 8.34975C39.7368 23.2129 39.658 28.525 39.5923 29.3466C39.4734 30.8334 39.0467 32.6 38.3345 34.553C38.2602 34.7567 38.2163 34.878 38.1694 34.9981C38.0909 35.1995 38.0041 35.3977 37.7527 35.9752C37.5581 36.4222 37.3729 36.8565 37.3411 36.9403C37.3092 37.0241 37.2692 37.1041 37.2522 37.1181C37.2002 37.1607 37.0546 37.4646 37.0546 37.5307C37.0546 37.5648 37.0238 37.6287 36.9861 37.6728C36.9284 37.7403 36.7583 38.0479 36.3097 38.8959C36.2902 38.9328 36.2725 38.9716 36.2602 39.0036C36.2491 39.0321 36.2423 39.0551 36.2422 39.0664C36.2421 39.0903 36.1856 39.1768 36.1167 39.2586C35.9955 39.4026 35.7167 39.9118 35.7591 39.9118C35.7706 39.9118 35.7233 39.9729 35.6541 40.0475C35.5849 40.1222 35.515 40.2365 35.4986 40.3015C35.4823 40.3665 35.4511 40.4198 35.4292 40.4198C35.4073 40.4198 35.3751 40.4769 35.3575 40.5468C35.3467 40.5901 35.3284 40.6285 35.3096 40.6514C35.298 40.6655 35.2863 40.6737 35.2759 40.6737C35.2484 40.6737 35.226 40.708 35.226 40.7499C35.226 40.7919 35.2032 40.8261 35.1752 40.8261C35.1473 40.8261 35.1244 40.8677 35.1244 40.9185C35.1244 40.9693 35.0665 41.0614 34.9958 41.1229C34.925 41.1844 34.845 41.2857 34.8181 41.3479C34.7642 41.4722 34.3072 42.137 34.1845 42.2695C34.1565 42.2998 34.0307 42.4503 33.9052 42.6039C33.7796 42.7576 33.6597 42.8909 33.6387 42.9002C33.6177 42.9095 33.6006 42.9397 33.6006 42.9673C33.6006 42.995 33.5721 43.0469 33.5371 43.0827C33.5022 43.1185 33.3479 43.2929 33.1943 43.4701C32.6572 44.0898 31.0542 45.6357 30.367 46.1969C30.2771 46.2704 30.1458 46.3792 30.0195 46.4845C29.9083 46.5772 29.8012 46.6673 29.7298 46.7281C29.4398 46.9753 29.0867 47.2459 28.5973 47.5961C28.318 47.796 28.0636 47.9831 28.0322 48.0119C27.9585 48.0793 27.9325 48.0968 26.9973 48.7088C25.7006 49.5573 24.5988 50.1961 23.3909 50.7997C21.9018 51.5437 20.7303 52.0023 20.3252 52C20.1355 51.9989 19.369 51.8673 19.1507 51.7983C18.5784 51.6175 17.7477 51.3149 17.4733 51.1872C17.4557 51.179 17.4176 51.1615 17.3653 51.1377C17.2516 51.086 17.071 51.0043 16.8892 50.9223C15.4193 50.2595 13.5858 49.1463 11.9875 47.9463C7.73134 44.7506 4.08114 40.2161 2.17787 35.76C1.09351 33.2214 0.615934 31.3718 0.357745 28.7116C0.341487 28.544 0.305834 26.2583 0.278502 23.6322C0.226901 18.67 0.176355 15.2243 0.0654278 9.10492C0.0294152 7.1214 0 5.19061 0 4.81431V4.13013L0.584138 3.8644C2.07165 3.18755 4.21818 2.41725 6.06995 1.89571C7.22965 1.56912 8.96982 1.14773 9.85415 0.979473C10.0776 0.936913 10.3748 0.879471 10.5145 0.851792ZM24.9147 1.43583C24.37 1.39382 23.6385 1.33538 23.2893 1.30597C22.4843 1.23821 19.0057 1.20353 18.1337 1.25468C17.3089 1.30294 15.4424 1.45165 15.2384 1.48529C15.1546 1.49908 14.686 1.55597 14.1971 1.61168C12.1594 1.84397 10.0842 2.17964 7.92395 2.62648C7.04552 2.80818 5.22428 3.25258 4.6985 3.4135C2.93065 3.95463 2.09893 4.25796 1.34067 4.63792L0.801949 4.90787L0.769644 6.16826C0.689236 9.30611 0.674405 10.5395 0.716767 10.5652C0.741606 10.5802 0.864773 10.5432 0.990494 10.483C2.61074 9.70696 5.15138 8.84807 7.4668 8.29354L8.53349 8.03818C9.08598 7.90594 9.7423 7.76819 10.4637 7.63312C10.8548 7.5599 11.2777 7.4782 11.4034 7.45166C11.8894 7.34883 13.6817 7.08568 14.8574 6.94436C16.5471 6.74133 19.2716 6.57814 19.5991 6.66033L19.7337 6.69411V11.5948C19.7337 16.4575 19.7329 16.4955 19.6324 16.4955C19.5319 16.4955 19.5309 16.4533 19.5181 11.7081L19.5051 6.92075L19.2003 6.90344C19.0327 6.89392 18.5184 6.91113 18.0575 6.94173C17.5965 6.97229 16.8651 7.02001 16.432 7.04769C15.999 7.07537 15.4619 7.1214 15.2384 7.14992C15.0149 7.17849 14.5349 7.23549 14.1717 7.27666C9.60226 7.79458 5.19598 8.91756 1.57463 10.4873C1.15558 10.6689 0.796158 10.8328 0.775882 10.8514C0.755619 10.87 0.760096 12.199 0.785741 13.8047C0.851628 17.9235 0.898206 21.3811 0.934107 24.8258L0.965097 27.7973L12.3057 27.8232L12.3414 28.2674C12.361 28.5117 12.4305 28.9402 12.496 29.2196C12.7628 30.3593 13.1246 31.1058 13.9339 32.1862L14.0516 32.3434H7.87662C4.48039 32.3434 1.70193 32.3605 1.70233 32.3815C1.70268 32.4025 1.74403 32.5568 1.79422 32.7244L1.88544 33.0292L14.5676 33.055L14.8268 33.276C15.2641 33.649 16.1346 34.2068 16.6906 34.4704C17.6365 34.9188 18.4351 35.1438 19.34 35.2168L19.7845 35.2527V37.7785H11.8859C7.54173 37.7785 3.98737 37.7909 3.98737 37.8061C3.98737 37.8213 4.0722 37.9812 4.17587 38.1615L4.36438 38.4893L19.7591 38.515L19.7855 43.3151H7.94305L8.53349 43.9753L19.7838 43.9754L19.8099 51.2136L20.378 51.2436L20.4146 43.2548C20.4348 38.861 20.4586 35.2588 20.4676 35.2497C20.4767 35.2408 20.7095 35.2104 20.9851 35.1823C22.3063 35.0477 23.6345 34.5961 24.5838 33.9586C25.2653 33.501 25.291 33.4895 26.3624 33.1628C29.1195 32.3223 30.514 32.0708 31.7894 32.1844C33.3546 32.3238 34.4778 32.7856 35.6324 33.7641C36.1388 34.1934 36.228 34.2468 36.316 34.1738C36.3808 34.12 36.3943 34.1223 36.3943 34.1871C36.3943 34.3166 36.3366 34.426 36.2682 34.426C36.2328 34.426 36.0083 34.2683 35.7693 34.0756C34.6637 33.1839 33.8674 32.7643 32.8656 32.5455C32.4365 32.4518 31.5166 32.3434 31.1503 32.3434C30.2472 32.3434 27.9533 32.8635 25.9052 33.5326C25.5141 33.6604 25.1773 33.7651 25.1568 33.7653C25.1363 33.7655 24.9603 33.8887 24.7657 34.0391C24.4134 34.3112 23.5817 34.7667 23.2334 34.8782L23.0506 34.9368L23.1699 35.1726C23.2998 35.429 23.3247 35.691 23.2284 35.7873C23.1948 35.8208 23.0806 35.8483 22.9745 35.8483C22.8231 35.8483 22.7362 35.8073 22.5702 35.6578C22.4422 35.5425 22.3506 35.4914 22.3381 35.5283C22.3268 35.5617 22.2716 35.6475 22.2156 35.7187C22.0194 35.968 21.6731 35.8255 21.5807 35.4575C21.5604 35.3766 21.5233 35.3452 21.4675 35.3616C21.4218 35.375 21.2188 35.4015 21.0163 35.4205L20.648 35.455V43.2962C20.648 47.6089 20.6623 51.1374 20.6798 51.1374C20.8933 51.1374 23.1249 50.0904 24.2693 49.4533C25.0298 49.03 25.2569 48.8946 26.0322 48.4027C26.6446 48.0141 27.5471 47.4018 27.8354 47.1794C28.0031 47.0501 28.3002 46.832 28.4958 46.6948C29.6309 45.8984 31.6522 44.0477 32.6032 42.9341C33.3607 42.047 33.9608 41.2496 34.337 40.6301C34.3649 40.5843 34.4351 40.4782 34.4931 40.3944C34.5511 40.3105 34.6149 40.2077 34.6349 40.1658C34.6767 40.0782 34.6895 40.0566 35.0991 39.3816C35.5467 38.6438 36.5714 36.6847 36.8675 36.0006C36.9098 35.9029 37.0062 35.6857 37.0816 35.5181C37.2864 35.0632 37.7457 33.8314 38 33.0546C38.5244 31.4527 38.8506 29.7658 38.8933 28.435L38.9086 27.9552L33.5244 27.9697C30.5631 27.9777 28.1366 27.9879 28.1322 27.9924C28.1302 27.9944 28.1226 28.0445 28.1118 28.1253C28.0991 28.2202 28.0819 28.3574 28.064 28.5084C27.991 29.1242 27.7948 30.0328 27.6527 30.4132C27.5546 30.6758 27.3149 31.0525 27.2727 31.0103C27.2622 30.9998 27.3348 30.764 27.4341 30.4863C27.6568 29.8637 27.8458 29.0782 27.8859 28.6086C27.8969 28.4793 27.9119 28.3227 27.9249 28.1974C27.9315 28.1339 27.9376 28.0785 27.9424 28.0386L27.9687 27.8227H38.934V27.1116H27.81V21.9813H38.9721L39.0039 21.8226C39.0214 21.7353 39.0356 21.5867 39.0356 21.4924V21.321H27.81V17.2067H39.0911L39.061 16.5209L20.4448 16.4953V11.8224H39.1372V11.1621H20.4448V6.57878L21.8036 6.60497C23.0355 6.62868 25.1215 6.7452 25.6627 6.8205C25.7351 6.83057 25.9476 6.85602 26.2124 6.88657C26.3797 6.90587 26.5679 6.92725 26.7548 6.94803C28.4739 7.13921 29.8346 7.34953 31.3403 7.65688C32.0775 7.80732 33.6753 8.18 34.0832 8.29657C34.2228 8.33655 34.6229 8.45004 34.9721 8.54886C35.9026 8.81215 37.4279 9.33364 38.2979 9.68583C38.7163 9.85523 39.0766 9.99382 39.0985 9.99382C39.1205 9.99382 39.126 9.90811 39.1109 9.80334C39.0958 9.69858 39.0487 8.95 39.0064 8.13982C38.8205 4.58579 38.7924 4.14292 38.7502 4.1015C38.7041 4.05636 38.126 3.85343 37.588 3.69356C37.4204 3.64371 37.0775 3.54187 36.8261 3.46732C36.3587 3.32857 34.73 2.91314 34.3467 2.83486C32.3287 2.42255 31.4954 2.26496 30.5783 2.12195C30.2152 2.06536 29.7009 1.985 29.4355 1.94343C28.3254 1.76972 26.3112 1.54352 24.9147 1.43583ZM22.9057 35.0549C22.9491 35.0383 22.9845 35.0157 22.9845 35.0047C22.9845 34.9636 22.8877 34.9867 22.8579 35.035C22.8401 35.0637 22.8605 35.0723 22.9057 35.0549Z" fill="#66747B" fill-opacity="0.6"/>
</svg>
