<svg width="50" height="50" xmlns="http://www.w3.org/2000/svg">
 <!-- Created with Method Draw - http://github.com/duopixel/Method-Draw/ -->

 <g>
  <title>background</title>
  <rect fill="none" id="canvas_background" height="52" width="52" y="-1" x="-1"/>
 </g>
 <g>
  <title>Layer 1</title>
  <!-- Created with Method Draw - http://github.com/duopixel/Method-Draw/ -->
  <g stroke="null" id="svg_47">
   <g stroke="null" transform="matrix(0.6410125956147298,0,0,0.6410125956147298,64.04734575208087,64.04734575208087) " id="svg_44">
    <title stroke="null" transform="translate(0.5200104117393494,-1.4210854715202004e-14) translate(0.5200104117393494,-1.4210854715202004e-14) translate(-1.4210854715202004e-14,0.5200104117393494) translate(-1.4210854715202004e-14,0.5200104117393494) translate(-1.4210854715202004e-14,0.5200104117393494) translate(0.5200104117393494,-1.4210854715202004e-14) translate(-1.4210854715202004e-14,0.5200104117393494) translate(-0.5200104117393494,-0.5200104117393494) translate(8.32016658782959,8.840177536010742) translate(0.38806551694869995,0) translate(0.38806551694869995,0) translate(0.38806551694869995,0) translate(0.38806551694869995,0) translate(3.4925894737243652,5.044851779937744) translate(-1.4210854715202004e-14,-10.196266174316406) translate(-1.4210854715202004e-14,-10.196266174316406) translate(-1.4210854715202004e-14,-10.196266174316406) translate(-1.4210854715202004e-14,-10.196266174316406) translate(-1.4210854715202004e-14,-10.196266174316406) translate(-1.4210854715202004e-14,-10.196266174316406) translate(-1.4210854715202004e-14,-10.196266174316406) translate(-1.4210854715202004e-14,-10.196266174316406) translate(-10.196266174316406,-1.4210854715202004e-14) translate(-10.196266174316406,-1.4210854715202004e-14) translate(-10.196266174316406,-1.4210854715202004e-14) translate(-10.196266174316406,-1.4210854715202004e-14) translate(-10.196266174316406,-1.4210854715202004e-14) translate(-10.196266174316406,-1.4210854715202004e-14) translate(-10.196266174316406,-1.4210854715202004e-14) translate(-10.196266174316406,-1.4210854715202004e-14) translate(-18.750001907348633,0) translate(0,-18.750001907348633) ">background</title>
    <rect stroke="null" x="-86.91509" y="-85.87507" width="52" height="52" id="svg_42" fill-opacity="0" fill="#000"/>
    <g stroke="null" id="svg_41" display="none">
     <rect stroke="null" id="svg_45" width="50" height="50" x="-85.91509" y="-84.87507" stroke-width="0" fill="url(#gridpattern)"/>
    </g>
   </g>
   <g stroke="null" transform="matrix(0.6410125956147298,0,0,0.6410125956147298,64.04734575208087,64.04734575208087) " id="svg_46">
    <title stroke="null" transform="translate(0.5200104117393494,-1.4210854715202004e-14) translate(0.5200104117393494,-1.4210854715202004e-14) translate(-1.4210854715202004e-14,0.5200104117393494) translate(-1.4210854715202004e-14,0.5200104117393494) translate(-1.4210854715202004e-14,0.5200104117393494) translate(0.5200104117393494,-1.4210854715202004e-14) translate(-1.4210854715202004e-14,0.5200104117393494) translate(-0.5200104117393494,-0.5200104117393494) translate(8.32016658782959,8.840177536010742) translate(0.38806551694869995,0) translate(0.38806551694869995,0) translate(0.38806551694869995,0) translate(0.38806551694869995,0) translate(3.4925894737243652,5.044851779937744) translate(-1.4210854715202004e-14,-10.196266174316406) translate(-1.4210854715202004e-14,-10.196266174316406) translate(-1.4210854715202004e-14,-10.196266174316406) translate(-1.4210854715202004e-14,-10.196266174316406) translate(-1.4210854715202004e-14,-10.196266174316406) translate(-1.4210854715202004e-14,-10.196266174316406) translate(-1.4210854715202004e-14,-10.196266174316406) translate(-1.4210854715202004e-14,-10.196266174316406) translate(-10.196266174316406,-1.4210854715202004e-14) translate(-10.196266174316406,-1.4210854715202004e-14) translate(-10.196266174316406,-1.4210854715202004e-14) translate(-10.196266174316406,-1.4210854715202004e-14) translate(-10.196266174316406,-1.4210854715202004e-14) translate(-10.196266174316406,-1.4210854715202004e-14) translate(-10.196266174316406,-1.4210854715202004e-14) translate(-10.196266174316406,-1.4210854715202004e-14) translate(-18.750001907348633,0) translate(0,-18.750001907348633) ">Layer 1</title>
    <style stroke="null" transform="translate(0.5200104117393494,-1.4210854715202004e-14) translate(0.5200104117393494,-1.4210854715202004e-14) translate(-1.4210854715202004e-14,0.5200104117393494) translate(-1.4210854715202004e-14,0.5200104117393494) translate(-1.4210854715202004e-14,0.5200104117393494) translate(0.5200104117393494,-1.4210854715202004e-14) translate(-1.4210854715202004e-14,0.5200104117393494) translate(-0.5200104117393494,-0.5200104117393494) translate(8.32016658782959,8.840177536010742) translate(0.38806551694869995,0) translate(0.38806551694869995,0) translate(0.38806551694869995,0) translate(0.38806551694869995,0) translate(3.4925894737243652,5.044851779937744) translate(-1.4210854715202004e-14,-10.196266174316406) translate(-1.4210854715202004e-14,-10.196266174316406) translate(-1.4210854715202004e-14,-10.196266174316406) translate(-1.4210854715202004e-14,-10.196266174316406) translate(-1.4210854715202004e-14,-10.196266174316406) translate(-1.4210854715202004e-14,-10.196266174316406) translate(-1.4210854715202004e-14,-10.196266174316406) translate(-1.4210854715202004e-14,-10.196266174316406) translate(-10.196266174316406,-1.4210854715202004e-14) translate(-10.196266174316406,-1.4210854715202004e-14) translate(-10.196266174316406,-1.4210854715202004e-14) translate(-10.196266174316406,-1.4210854715202004e-14) translate(-10.196266174316406,-1.4210854715202004e-14) translate(-10.196266174316406,-1.4210854715202004e-14) translate(-10.196266174316406,-1.4210854715202004e-14) translate(-10.196266174316406,-1.4210854715202004e-14) translate(-18.750001907348633,0) translate(0,-18.750001907348633) ">.st1{fill:#eab22a}.st2{fill:#65c19f}.st3{fill:#df1c5a}</style>
    <g stroke="null" id="svg_32">
     <g stroke="null" id="svg_33" transform="matrix(0.7141511769378626,0,0,0.7141511769378626,0.2758145810754016,0.18660484274706235) ">
      <path stroke="null" class="st1" d="m-51.4738,-100.47922l-2.7,9.8l-23.5,0l2.7,-9.8l23.5,0z" id="svg_40"/>
      <path stroke="null" class="st2" d="m-92.7738,-78.97922l-2.6,9.7l-23.5,0l2.6,-9.7l23.5,0z" id="svg_39"/>
      <path stroke="null" class="st1" d="m-87.0738,-100.47922l-2.6,9.8l-23.5,0l2.6,-9.8l23.5,0z" id="svg_38"/>
      <path stroke="null" class="st3" d="m-89.6738,-90.67922l-10.2,0l6.2,-23l10.1,0l-6.1,23z" id="svg_37"/>
      <path stroke="null" class="st2" d="m-57.2738,-78.97922l-2.7,9.7l-23.4,0l2.6,-9.7l23.5,0z" id="svg_36"/>
      <path stroke="null" d="m-76.7738,-56.07922l-10.1,0l6.1,-22.9l10.2,0l-6.2,22.9zm9.3,-34.6l-10.2,0l6.2,-23l10.1,0l-6.1,23z" fill="#88d2de" id="svg_35"/>
      <path stroke="null" class="st3" d="m-98.8738,-56.07922l-10.3,0l6.2,-22.9l10.2,0l-6.1,22.9z" id="svg_34"/>
     </g>
    </g>
   </g>
  </g>
 </g>
</svg>