<svg width="164" height="164" viewBox="0 0 164 164" fill="none" xmlns="http://www.w3.org/2000/svg">
<circle cx="82" cy="82" r="78.5" fill="#F1F9FB" stroke="white" stroke-width="7"/>
<path d="M119.5 46.882L116.36 57.5586H90.6105L93.5414 46.882H119.5Z" fill="#FDA509"/>
<path d="M74.0719 70.3279L71.1409 81.214H45.3912L48.1127 70.3279H74.0719Z" fill="#63C1A0"/>
<path d="M80.3524 46.882L77.4215 57.5586H51.6718L54.6026 46.882H80.3524Z" fill="#FDA509"/>
<path d="M77.4216 57.5562H66.3262L73.0253 32.4345H84.1207L77.4216 57.5562Z" fill="#E01A59"/>
<path d="M113.011 70.3279L110.08 81.214H84.33L87.2609 70.3279H113.011Z" fill="#63C1A0"/>
<path d="M91.6572 95.659H80.5617L87.2608 70.3279H98.3562L91.6572 95.659Z" fill="#89D3DF"/>
<path d="M101.915 57.5562H90.6105L97.519 32.4345H108.614L101.915 57.5562Z" fill="#89D3DF"/>
<path d="M67.3724 95.659H56.0677L62.7668 70.3279H74.0716L67.3724 95.659Z" fill="#E01A59"/>
<path d="M49.1063 108.602H44.4999V129.518H49.1063V108.602Z" fill="#181818"/>
<path d="M72.387 129.519L67.2826 122.049C69.8971 121.053 71.7645 118.937 71.7645 115.576C71.7645 111.218 68.7766 108.728 63.7967 108.728H54.2104V129.644H58.8168V122.796H62.4272L66.9091 129.519H72.387ZM67.1581 115.824C67.1581 117.567 65.9131 118.812 63.6722 118.812H58.9413V112.837H63.4232C65.7887 112.837 67.1581 113.708 67.1581 115.824Z" fill="#181818"/>
<path d="M97.2866 119.061C97.2866 113.086 92.6803 108.23 86.2064 108.23C79.7325 108.23 75.0016 113.086 75.0016 119.061C75.0016 125.037 79.608 129.893 86.0818 129.893C92.5557 129.893 97.2866 125.037 97.2866 119.061ZM92.4313 119.061C92.4313 122.672 89.8168 125.535 86.2064 125.535C82.4714 125.535 79.8569 122.547 79.8569 118.937C79.8569 115.326 82.4714 112.463 86.0818 112.463C89.8168 112.463 92.4313 115.451 92.4313 119.061Z" fill="#181818"/>
<path d="M119.945 129.518V108.602H115.339V121.426L105.628 108.602H101.395V129.518H105.877V116.197L115.962 129.518H119.945Z" fill="#181818"/>
</svg>
