<svg width="54" height="54" viewBox="0 0 54 54" fill="none" xmlns="http://www.w3.org/2000/svg">
<path d="M25.046 0.075366C30.3734 -0.330831 35.8103 0.914076 40.4343 3.5883C44.1335 5.72092 47.3315 8.72983 49.6467 12.3212C52.5219 16.712 54.0427 21.9675 53.9986 27.2152C53.9644 32.6993 52.2184 38.1639 49.0285 42.6298C45.7929 47.2098 41.0888 50.7374 35.7792 52.5421C31.064 54.1738 25.8962 54.4301 21.0305 53.34C15.9282 52.2029 11.1882 49.5187 7.56252 45.7544C3.71998 41.7746 1.11909 36.5939 0.324479 31.1131C-0.457242 26.2311 0.188898 21.1386 2.09646 16.583C3.86681 12.3455 6.75012 8.58935 10.3592 5.75522C14.543 2.45592 19.7285 0.444174 25.046 0.075366ZM25.0397 1.37091C21.8742 1.59761 18.7609 2.44448 15.8988 3.81354C11.2942 6.03274 7.35688 9.6386 4.80335 14.0703C1.00002 20.4633 0.265854 28.5531 2.75912 35.5515C4.35813 40.1025 7.27883 44.1621 11.0546 47.1575C15.442 50.638 20.9915 52.6434 26.5962 52.6906C30.6885 52.7806 34.8006 51.8502 38.4536 50.0082C43.1087 47.7046 47.0199 43.9368 49.5195 39.3875C52.0178 34.8711 53.1139 29.5795 52.558 24.4446C51.8187 16.1116 46.6135 8.3906 39.2678 4.43209C34.9601 2.05789 29.9442 0.971068 25.0397 1.37091Z" fill="#66747B" fill-opacity="0.6"/>
<path d="M20.4944 3.81324C24.9818 2.56016 29.8377 2.61407 34.2757 4.04647C34.4683 4.10691 34.6166 4.24884 34.7685 4.37607C34.0358 4.32235 33.3637 3.99093 32.6438 3.86696C30.8294 3.50469 28.9496 3.32519 27.1108 3.59943C25.9588 3.80671 24.7499 4.25211 24.019 5.21478C23.469 5.92953 23.4102 7.05211 24.0482 7.73074C24.7564 8.4796 26.0127 8.43877 26.7975 7.83346C27.7243 7.1532 28.6232 6.34208 29.7801 6.08943C32.1315 5.50682 34.5971 5.97509 36.8746 6.65226C39.6093 7.39786 42.1955 8.74732 44.2941 10.6612C47.7909 13.7504 49.8925 18.1851 50.6904 22.7328C51.3855 26.6127 51.1766 30.6674 49.9724 34.4272C49.9299 34.6033 49.8175 34.706 49.6348 34.7338C50.3332 32.1739 50.8521 29.4568 50.3301 26.8136C50.0557 25.5375 49.4275 24.0986 48.0846 23.6628C47.0567 23.2991 45.8051 24.0055 45.722 25.1231C45.5262 26.3192 46.5034 27.1806 47.1123 28.0765C48.4193 29.9527 48.2579 32.3857 47.9381 34.5381C47.3373 37.4523 46.365 40.3535 44.5996 42.7813C41.8747 46.6924 37.5344 49.2737 32.9477 50.3769C28.9616 51.3299 24.7372 51.3234 20.7576 50.3428C20.2338 50.1861 19.6383 50.1161 19.2319 49.7144C19.9907 49.7126 20.6939 50.0425 21.4364 50.16C23.4645 50.5286 25.584 50.7569 27.6107 50.2496C28.5292 49.9964 29.4594 49.5594 30.037 48.773C30.5722 48.0384 30.5609 46.9142 29.9032 46.2585C29.3338 45.6579 28.3858 45.5343 27.6579 45.9127C26.7932 46.3808 26.1323 47.1511 25.2495 47.5934C23.4694 48.4582 21.4037 48.3308 19.5045 48.0112C16.3553 47.3926 13.2438 46.2508 10.7048 44.2416C7.33367 41.6507 4.99867 37.8717 3.85467 33.8021C2.64407 29.5419 2.63572 24.9634 3.74051 20.6802C3.93127 20.2363 3.85794 19.5364 4.36378 19.3259C3.71764 21.7734 3.2069 24.3383 3.60003 26.8741C3.79914 27.9999 4.1939 29.1926 5.12554 29.9235C5.77186 30.4571 6.78172 30.6531 7.49647 30.1404C8.25859 29.695 8.50978 28.6377 8.15586 27.856C7.78378 26.975 7.0282 26.3338 6.59587 25.4854C5.66096 23.777 5.76387 21.7374 6.0118 19.8676C6.53379 16.8718 7.55056 13.9121 9.31764 11.4121C11.9412 7.61022 16.0711 5.00787 20.4944 3.81324ZM21.1015 12.91C19.6395 13.6981 18.6344 15.1063 17.8986 16.5585C17.1169 18.0515 16.794 19.7192 16.6406 21.3801C15.9193 21.2839 15.3384 20.724 15.1721 20.0225C14.836 18.9961 15.1917 17.9437 15.3745 16.9304C15.456 16.6368 15.2324 16.397 15.1133 16.1554C14.4998 16.1178 13.8731 16.4199 13.5941 16.9827C12.7587 18.5441 12.8322 20.6506 13.9875 22.036C14.6501 22.8747 15.6957 23.2891 16.7352 23.4002C17.086 24.4805 17.7712 25.5344 18.8727 25.9586C20.2203 26.502 21.7003 25.9325 22.8721 25.2242C22.8296 25.6584 22.8069 26.1038 22.655 26.5183C22.2437 26.8496 21.7429 27.0438 21.2827 27.2999C19.0228 28.4909 16.7205 29.6899 14.8211 31.4246C13.4375 32.7235 12.3492 34.4513 12.1403 36.3654C12.0391 37.8697 12.638 39.521 13.9562 40.3481C15.3333 41.2601 17.1494 41.21 18.6506 40.6436C20.5432 39.9225 21.9548 38.3169 22.888 36.5645C24.2683 34.0842 24.505 31.1912 24.7058 28.4159C24.7611 28.091 24.6927 27.6311 25.0746 27.4908C27.3295 26.2229 29.5208 24.8426 31.6158 23.3234C31.8639 23.6285 32.1086 23.9354 32.3422 24.2501C31.2635 24.893 30.1881 25.5865 29.3739 26.5606C26.3293 29.891 26.2786 35.6066 29.4701 38.8569C31.1018 40.5782 33.6098 41.3142 35.9319 40.9699C38.0661 40.6666 40.0077 39.3237 41.0849 37.4635C42.5205 35.0942 42.2855 31.7804 40.4191 29.7131C38.6731 27.7847 35.2743 27.8221 33.5677 29.7801C32.2248 31.1931 32.1808 33.691 33.5824 35.0746C34.1503 35.6411 35.1391 35.9837 35.852 35.4955C36.3123 35.1646 36.2682 34.4564 35.8976 34.0727C35.4181 33.4936 34.8502 32.8227 34.9939 32.0136C35.1373 30.9613 36.3138 30.3166 37.3044 30.5404C38.1525 30.6727 38.8299 31.3348 39.1448 32.1116C39.8873 33.8787 39.4662 36.0683 38.1331 37.4441C36.7201 38.9171 34.2628 39.1491 32.5576 38.0576C31.0434 37.1257 30.182 35.3979 29.9159 33.6829C29.6369 31.6154 30.0335 29.3851 31.316 27.6994C32.1416 26.6321 33.2936 25.756 34.6186 25.4395C35.7313 25.5244 36.8851 25.725 37.9749 25.3693C38.4874 25.1947 38.9862 24.6204 38.7254 24.0592C38.4431 23.4831 37.7498 23.3101 37.1719 23.1894C36.3087 23.0181 35.4504 23.2483 34.6068 23.4098C34.0178 23.2074 33.7062 22.589 33.4874 22.044C35.1257 20.8201 36.7443 19.4905 37.8569 17.7494C38.5032 16.7034 38.9241 15.4193 38.6206 14.1907C38.3809 13.3767 37.7133 12.6848 36.8617 12.5296C35.4424 12.1722 33.99 12.8886 33.0255 13.9052C31.4755 15.5873 30.6891 17.9192 30.7608 20.1936C30.7397 20.6635 30.9223 21.1563 30.7885 21.6082C29.6268 22.5448 28.3279 23.2985 27.0763 24.1078C26.3569 24.5257 25.6715 25.0068 24.9078 25.3446C24.9208 24.62 24.9584 23.8857 25.1657 23.1875C25.7154 22.4351 26.4073 21.781 26.8445 20.9456C27.1644 20.3697 27.4662 19.6402 27.1335 19.0037C26.8284 18.5322 26.1529 18.5779 25.7105 18.8128C24.7676 19.2859 24.2502 20.2845 23.8701 21.2213C23.6091 21.82 23.5795 22.5625 23.0216 22.9867C22.245 23.6655 21.3084 24.3476 20.2282 24.3084C19.6114 24.3117 19.2001 23.7309 19.0696 23.1858C20.777 22.5235 22.2014 21.2868 23.3565 19.8903C24.4253 18.5164 25.2753 16.8947 25.4189 15.1356C25.4989 14.2495 25.1822 13.246 24.3731 12.7828C23.3614 12.2312 22.0936 12.3878 21.1015 12.91Z" fill="#66747B" fill-opacity="0.6"/>
<path d="M22.0792 14.5353C22.4758 14.2351 23.1301 14.3623 23.3178 14.8471C23.463 15.4443 23.2425 16.0496 22.9882 16.583C22.2655 18.0581 21.1868 19.3373 19.9533 20.411C19.648 20.69 19.2925 20.9069 18.9155 21.0735C18.9661 19.7614 19.4164 18.4969 19.9744 17.3204C20.4933 16.2779 21.0937 15.206 22.0792 14.5353ZM34.8341 15.0475C35.185 14.6429 35.7887 14.2384 36.3239 14.5143C36.9116 14.8617 36.6045 15.6401 36.3729 16.1165C35.5654 17.6063 34.3677 18.8625 33.0687 19.9346C33.0493 18.1673 33.682 16.389 34.8341 15.0475ZM17.3671 32.1884C18.8894 30.9073 20.578 29.8078 22.3861 28.9724C22.1952 30.9712 21.7269 32.9521 20.9715 34.8123C20.3238 36.3101 19.3627 37.8521 17.7701 38.4657C16.9446 38.7754 15.8676 38.9696 15.1528 38.3173C14.4757 37.7167 14.5214 36.6986 14.7189 35.8924C15.13 34.3898 16.2346 33.205 17.3671 32.1884Z" fill="#66747B" fill-opacity="0.6"/>
</svg>
