<svg width="64" height="52" viewBox="0 0 64 52" fill="none" xmlns="http://www.w3.org/2000/svg">
<g opacity="0.6" clip-path="url(#clip0_153_1590)">
<path d="M53.4908 15.8773C52.9881 14.6813 52.3988 13.546 51.7228 12.454C47.1641 4.98333 38.9308 0 29.5361 0C15.1755 0 3.53613 11.648 3.53613 26C3.53613 27.9933 3.76147 29.9347 4.1948 31.798C4.2468 32.058 4.30747 32.318 4.38547 32.578C5.64213 37.44 8.2768 41.7387 11.8475 45.0493C12.0295 45.214 12.2115 45.3873 12.4021 45.5433C16.9781 49.5647 22.9755 52 29.5361 52C43.8968 52 55.5361 40.3607 55.5361 26C55.5361 22.412 54.8081 18.9887 53.4908 15.8773ZM44.7201 21.2247C44.5641 21.346 44.3995 21.4673 44.2435 21.58C44.0961 21.4327 43.9575 21.3027 43.8795 21.2247H44.7201ZM34.5108 4.87933C34.5281 4.74067 34.6235 4.63667 34.7621 4.602L34.8055 3.874L34.8748 4.59333C35.0135 4.61067 35.1261 4.72333 35.1521 4.862L35.8715 4.90533L35.1435 4.97467C35.1175 5.10467 35.0135 5.20867 34.8748 5.23467L34.8315 5.98L34.7621 5.23467C34.6321 5.20867 34.5368 5.11333 34.5108 4.992L33.7655 4.94867L34.5021 4.87933H34.5108ZM35.2128 10.8333C35.2128 10.998 35.0828 11.128 34.9181 11.128C34.7535 11.128 34.6235 10.998 34.6235 10.8333C34.6235 10.6687 34.7535 10.5387 34.9181 10.5387C35.0828 10.5387 35.2128 10.6687 35.2128 10.8333ZM30.9921 5.252C31.1568 5.252 31.2868 5.382 31.2868 5.54667C31.2868 5.71133 31.1568 5.84133 30.9921 5.84133C30.8275 5.84133 30.6975 5.71133 30.6975 5.54667C30.6975 5.382 30.8275 5.252 30.9921 5.252ZM31.2435 8.59733C31.2435 8.71867 31.1481 8.814 31.0268 8.814C30.9055 8.814 30.8101 8.71867 30.8101 8.59733C30.8101 8.476 30.9055 8.38067 31.0268 8.38067C31.1481 8.38067 31.2435 8.476 31.2435 8.59733ZM29.5881 2.08C29.7095 2.08 29.8048 2.17533 29.8048 2.29667C29.8048 2.418 29.7095 2.51333 29.5881 2.51333C29.4668 2.51333 29.3715 2.418 29.3715 2.29667C29.3715 2.17533 29.4668 2.08 29.5881 2.08ZM28.7561 7.15C28.8775 7.15 28.9728 7.24533 28.9728 7.36667C28.9728 7.488 28.8775 7.58333 28.7561 7.58333C28.6348 7.58333 28.5395 7.488 28.5395 7.36667C28.5395 7.24533 28.6348 7.15 28.7561 7.15ZM28.0021 4.87067C28.1668 4.87067 28.2968 5.00067 28.2968 5.16533C28.2968 5.33 28.1668 5.46 28.0021 5.46C27.8375 5.46 27.7075 5.33 27.7075 5.16533C27.7075 5.00067 27.8375 4.87067 28.0021 4.87067ZM25.8441 7.956C25.9655 7.956 26.0608 8.05133 26.0608 8.17267C26.0608 8.294 25.9655 8.38933 25.8441 8.38933C25.7228 8.38933 25.6275 8.294 25.6275 8.17267C25.6275 8.05133 25.7228 7.956 25.8441 7.956ZM25.1941 7.52267C25.3155 7.52267 25.4108 7.618 25.4108 7.73933C25.4108 7.86067 25.3155 7.956 25.1941 7.956C25.0728 7.956 24.9775 7.86067 24.9775 7.73933C24.9775 7.618 25.0728 7.52267 25.1941 7.52267ZM25.0901 9.03933C25.0901 9.16067 24.9948 9.256 24.8735 9.256C24.7521 9.256 24.6568 9.16067 24.6568 9.03933C24.6568 8.918 24.7521 8.82267 24.8735 8.82267C24.9948 8.82267 25.0901 8.918 25.0901 9.03933ZM24.6135 7.098C24.7348 7.098 24.8301 7.19333 24.8301 7.31467C24.8301 7.436 24.7348 7.53133 24.6135 7.53133C24.4921 7.53133 24.3968 7.436 24.3968 7.31467C24.3968 7.19333 24.4921 7.098 24.6135 7.098ZM10.5301 38.6013C10.4088 38.6013 10.3135 38.506 10.3135 38.3847C10.3135 38.2633 10.4088 38.168 10.5301 38.168C10.6515 38.168 10.7468 38.2633 10.7468 38.3847C10.7468 38.506 10.6515 38.6013 10.5301 38.6013ZM11.9081 28.2967L9.79347 24.7433V29.64C9.79347 29.8913 9.92347 30.1427 10.1228 30.3853C10.2961 30.602 10.5301 30.8013 10.7641 30.992H7.55747C7.99947 30.81 8.42413 30.2293 8.4848 29.7527C8.49347 29.7353 8.49347 29.718 8.49347 29.7007C8.52813 29.2153 8.49347 22.9493 8.49347 22.6807C8.49347 22.0827 7.9128 21.5973 7.46213 21.2247H11.8128L15.2188 27.0053L15.4701 27.43V22.5853C15.4701 22.048 14.7768 21.3373 14.5341 21.2247H17.5415C17.3595 21.2767 16.7701 21.996 16.7701 22.5853V29.7007C16.7701 30.1427 17.4028 30.7407 17.6975 30.9747H13.5028L12.6708 29.5793L11.9081 28.2967ZM13.0175 39.7367C12.8961 39.7367 12.8008 39.6413 12.8008 39.52C12.8008 39.3987 12.8961 39.3033 13.0175 39.3033C13.1388 39.3033 13.2341 39.3987 13.2341 39.52C13.2341 39.6413 13.1388 39.7367 13.0175 39.7367ZM13.3901 38.3327C13.2255 38.3327 13.0955 38.2027 13.0955 38.038C13.0955 37.8733 13.2255 37.7433 13.3901 37.7433C13.5548 37.7433 13.6848 37.8733 13.6848 38.038C13.6848 38.2027 13.5548 38.3327 13.3901 38.3327ZM14.1441 40.664C13.9795 40.664 13.8495 40.534 13.8495 40.3693C13.8495 40.2047 13.9795 40.0747 14.1441 40.0747C14.3088 40.0747 14.4388 40.2047 14.4388 40.3693C14.4388 40.534 14.3088 40.664 14.1441 40.664ZM17.5415 39.5547C17.4201 39.5547 17.3248 39.4593 17.3248 39.338C17.3248 39.2167 17.4201 39.1213 17.5415 39.1213C17.6628 39.1213 17.7581 39.2167 17.7581 39.338C17.7581 39.4593 17.6628 39.5547 17.5415 39.5547ZM20.4621 45.5347C20.4361 45.6647 20.3321 45.7687 20.1935 45.7947L20.1501 46.54L20.0808 45.7947C19.9508 45.7687 19.8555 45.6733 19.8295 45.552L19.0841 45.5087L19.8208 45.4393C19.8381 45.3007 19.9335 45.1967 20.0721 45.162L20.1155 44.434L20.1848 45.1533C20.3235 45.1707 20.4361 45.2833 20.4621 45.422L21.1815 45.4653L20.4535 45.5347H20.4621ZM19.2141 42.4233C19.2141 42.302 19.3095 42.2067 19.4308 42.2067C19.5521 42.2067 19.6475 42.302 19.6475 42.4233C19.6475 42.5447 19.5521 42.64 19.4308 42.64C19.3095 42.64 19.2141 42.5447 19.2141 42.4233ZM20.2195 31.9367C20.0981 31.9367 20.0028 31.8413 20.0028 31.72C20.0028 31.5987 20.0981 31.5033 20.2195 31.5033C20.3408 31.5033 20.4361 31.5987 20.4361 31.72C20.4361 31.8413 20.3408 31.9367 20.2195 31.9367ZM20.5921 36.738C20.5921 36.9027 20.4621 37.0327 20.2975 37.0327C20.1328 37.0327 20.0028 36.9027 20.0028 36.738C20.0028 36.5733 20.1328 36.4433 20.2975 36.4433C20.4621 36.4433 20.5921 36.5733 20.5921 36.738ZM21.7621 40.43C21.7621 40.2653 21.8921 40.1353 22.0568 40.1353C22.2215 40.1353 22.3515 40.2653 22.3515 40.43C22.3515 40.5947 22.2215 40.7247 22.0568 40.7247C21.8921 40.7247 21.7621 40.5947 21.7621 40.43ZM22.3861 43.186C22.2648 43.186 22.1695 43.0907 22.1695 42.9693C22.1695 42.848 22.2648 42.7527 22.3861 42.7527C22.5075 42.7527 22.6028 42.848 22.6028 42.9693C22.6028 43.0907 22.5075 43.186 22.3861 43.186ZM25.7748 33.176C25.4455 32.7253 24.7868 31.9973 24.0675 31.0873C23.4521 30.316 22.8715 29.536 22.3341 28.7473H22.3255C22.3255 28.7473 22.1521 29.5273 22.0915 29.9173C22.0308 30.3073 22.2908 30.6453 22.5941 30.992H19.4828C19.7775 30.7407 20.5315 30.264 20.6701 29.8393C20.7221 29.7093 21.0255 28.626 21.3808 27.326C21.3808 27.326 21.375 27.3202 21.3635 27.3087C21.3635 27.3087 21.3808 27.3087 21.3895 27.2913C21.6321 26.3987 21.9008 25.4107 22.1175 24.5787C22.3775 23.634 22.5681 22.8887 22.5941 22.7067C22.7068 22.0567 22.0048 21.45 21.7621 21.2247H26.8148C26.8148 21.2247 27.0661 21.9007 27.4301 22.88C27.7075 23.634 28.0541 24.5787 28.4095 25.5233C29.1895 27.6293 29.9868 29.7613 30.0821 30.0127C30.1948 30.3247 30.3768 30.5847 30.5761 30.758C30.4721 30.8273 30.3681 30.9053 30.2641 30.9747H25.1595C25.5235 30.6627 25.9308 30.212 25.8615 29.822C25.8095 29.484 25.6968 29.1373 25.5495 28.7473H23.1488C23.4955 29.224 23.8595 29.7007 24.2321 30.1687C24.8215 30.914 25.6188 31.8847 26.1908 32.604C26.3901 32.8467 26.5895 33.0893 26.7975 33.3147C26.5808 33.4533 26.3728 33.6007 26.1648 33.7393C25.9828 33.4707 25.8441 33.2713 25.7748 33.176ZM20.8261 13.884C20.7048 13.884 20.6095 13.7887 20.6095 13.6673C20.6095 13.546 20.7048 13.4507 20.8261 13.4507C20.9475 13.4507 21.0428 13.546 21.0428 13.6673C21.0428 13.7887 20.9475 13.884 20.8261 13.884ZM21.5368 13.0173L22.2735 12.948C22.2908 12.8093 22.3861 12.7053 22.5248 12.6707L22.5681 11.9427L22.6375 12.662C22.7761 12.6793 22.8888 12.792 22.9148 12.9307L23.6341 12.974L22.9061 13.0433C22.8801 13.1733 22.7761 13.2773 22.6375 13.3033L22.5941 14.0487L22.5248 13.3033C22.3948 13.2773 22.2995 13.182 22.2735 13.0607L21.5281 13.0173H21.5368ZM28.2101 42.5533C28.0888 42.5533 27.9935 42.458 27.9935 42.3367C27.9935 42.2153 28.0888 42.12 28.2101 42.12C28.3315 42.12 28.4268 42.2153 28.4268 42.3367C28.4268 42.458 28.3315 42.5533 28.2101 42.5533ZM29.4148 37.44C28.5915 37.05 27.5428 35.724 26.7801 34.6407C27.0488 34.4587 27.3088 34.2767 27.5688 34.0947C28.7648 35.2127 29.9001 35.958 30.3768 36.4C30.9748 36.972 30.6455 38.0207 29.4148 37.44ZM33.3408 40.6987C33.2195 40.6987 33.1241 40.6033 33.1241 40.482C33.1241 40.3607 33.2195 40.2653 33.3408 40.2653C33.4621 40.2653 33.5575 40.3607 33.5575 40.482C33.5575 40.6033 33.4621 40.6987 33.3408 40.6987ZM32.4308 31.8153V30.81C32.8121 30.5587 33.1501 30.342 33.4188 30.1687C33.6961 29.9953 33.9561 29.822 34.2248 29.6487C34.4588 29.744 34.7101 29.8047 34.9701 29.8393C36.2355 29.9867 37.6481 29.64 37.5788 28.9467C37.5441 28.574 37.1628 28.2793 36.6948 28.054C37.7521 27.3607 38.7488 26.702 39.7021 26.0693C40.3435 26.624 40.8288 27.352 40.8548 28.2793C40.8895 29.8567 38.4195 31.226 37.1368 31.2953C34.4935 31.4427 33.8521 30.8447 33.6615 30.8533C33.2368 30.8793 32.6821 31.3213 32.4308 31.8153ZM41.0108 36.374C40.8895 36.374 40.7941 36.2787 40.7941 36.1573C40.7941 36.036 40.8895 35.9407 41.0108 35.9407C41.1321 35.9407 41.2275 36.036 41.2275 36.1573C41.2275 36.2787 41.1321 36.374 41.0108 36.374ZM41.1928 39.104C41.1928 39.2253 41.0975 39.3207 40.9761 39.3207C40.8548 39.3207 40.7595 39.2253 40.7595 39.104C40.7595 38.9827 40.8548 38.8873 40.9761 38.8873C41.0975 38.8873 41.1928 38.9827 41.1928 39.104ZM42.0075 45.0927C41.8861 45.0927 41.7908 44.9973 41.7908 44.876C41.7908 44.7547 41.8861 44.6593 42.0075 44.6593C42.1288 44.6593 42.2241 44.7547 42.2241 44.876C42.2241 44.9973 42.1288 45.0927 42.0075 45.0927ZM46.1588 33.2367C46.1588 33.1153 46.2541 33.02 46.3755 33.02C46.4968 33.02 46.5921 33.1153 46.5921 33.2367C46.5921 33.358 46.4968 33.4533 46.3755 33.4533C46.2541 33.4533 46.1588 33.358 46.1588 33.2367ZM46.8088 34.8487C46.6441 34.8487 46.5141 34.7187 46.5141 34.554C46.5141 34.3893 46.6441 34.2593 46.8088 34.2593C46.9735 34.2593 47.1035 34.3893 47.1035 34.554C47.1035 34.7187 46.9735 34.8487 46.8088 34.8487ZM47.0515 38.8093C47.0515 38.9307 46.9561 39.026 46.8348 39.026C46.7135 39.026 46.6181 38.9307 46.6181 38.8093C46.6181 38.688 46.7135 38.5927 46.8348 38.5927C46.9561 38.5927 47.0515 38.688 47.0515 38.8093ZM47.7101 40.092C47.6841 40.222 47.5801 40.326 47.4501 40.352L47.4068 41.0973L47.3375 40.352C47.2075 40.326 47.1121 40.2307 47.0861 40.1093L46.3408 40.066L47.0775 39.9967C47.0948 39.858 47.1901 39.754 47.3288 39.7193L47.3721 38.9913L47.4415 39.7107C47.5801 39.728 47.6928 39.8407 47.7188 39.9793L48.4381 40.0227L47.7101 40.092ZM48.8108 40.3C48.6895 40.3 48.5941 40.2047 48.5941 40.0833C48.5941 39.962 48.6895 39.8667 48.8108 39.8667C48.9321 39.8667 49.0275 39.962 49.0275 40.0833C49.0275 40.2047 48.9321 40.3 48.8108 40.3ZM49.1401 36.8333C49.0188 36.8333 48.9235 36.738 48.9235 36.6167C48.9235 36.4953 49.0188 36.4 49.1401 36.4C49.2615 36.4 49.3568 36.4953 49.3568 36.6167C49.3568 36.738 49.2615 36.8333 49.1401 36.8333ZM49.7468 34.6407L49.7035 35.386L49.6341 34.6407C49.5041 34.6147 49.4088 34.5193 49.3828 34.398L48.6375 34.3547L49.3741 34.2853C49.3915 34.1467 49.4868 34.0427 49.6255 34.008L49.6688 33.28L49.7381 33.9993C49.8768 34.0167 49.9895 34.1293 50.0155 34.268L50.7348 34.3113L50.0068 34.3807C49.9808 34.5107 49.8768 34.6147 49.7468 34.6407ZM50.5441 36.4433C50.3795 36.4433 50.2495 36.3133 50.2495 36.1487C50.2495 35.984 50.3795 35.854 50.5441 35.854C50.7088 35.854 50.8388 35.984 50.8388 36.1487C50.8388 36.3133 50.7088 36.4433 50.5441 36.4433ZM47.2768 30.9747C47.6321 30.6627 48.0481 30.212 47.9788 29.822C47.9181 29.484 47.8141 29.1373 47.6668 28.7473H44.4428C44.4428 28.7473 44.2608 29.5273 44.2088 29.9173C44.1481 30.3073 44.3995 30.6453 44.7115 30.992H42.8568C44.5035 35.4813 44.5295 39.1647 42.6401 40.6727C41.2621 41.7647 38.5321 41.3313 35.6895 40.1873C35.6375 40.144 35.5595 39.988 35.6028 39.936C38.9048 41.418 41.4181 41.132 42.2415 40.404C44.1741 38.6967 44.0961 35.2127 42.4668 30.992H41.5915C41.7388 30.8707 42.0075 30.68 42.2501 30.4807C41.6608 29.0247 40.8808 27.4907 39.9361 25.9133C39.9101 25.8613 39.8755 25.8007 39.8408 25.7487C39.6935 25.506 39.5461 25.272 39.3901 25.0293C38.9048 24.258 38.3848 23.4693 37.8215 22.6893C37.8041 22.6633 37.7868 22.646 37.7695 22.62C37.4921 22.5507 37.2061 22.5073 36.9201 22.5073C35.5941 22.49 35.0568 23.0013 35.2475 23.556C35.2475 23.556 35.2504 23.5618 35.2561 23.5733C35.5335 24.3447 36.8335 24.466 38.0641 25.038C38.3068 25.1507 38.5495 25.2807 38.8008 25.4193C38.3241 25.7313 37.9255 25.9913 37.6221 26.1647C37.5095 26.2253 37.3708 26.312 37.2235 26.3987C36.7641 26.6847 36.1401 27.0833 35.3948 27.5687C35.2648 27.5253 35.1435 27.482 35.0308 27.4473C34.0515 27.1007 32.3528 26.5287 32.2575 24.492C32.2488 24.3967 32.2488 24.2927 32.2488 24.18C32.2921 22.5507 33.7308 21.2593 35.4035 21.2507C35.8888 21.2507 36.3481 21.268 36.7815 21.3027H36.7901C36.7035 21.19 36.6168 21.0773 36.5215 20.9647C36.4868 20.904 36.4348 20.852 36.3915 20.8C36.3481 20.7393 36.3048 20.6787 36.2615 20.6267C36.0968 20.4187 35.9235 20.2107 35.7588 20.0027C35.7328 19.9767 35.7155 19.9507 35.6981 19.9333C29.2155 12.0553 21.6061 7.67867 18.4081 10.218C15.7821 12.298 16.8481 18.4427 20.7135 25.0467C20.5141 25.116 20.3235 25.1853 20.1241 25.246C16.2935 18.4687 15.1495 12.012 17.9315 9.802C21.4415 7.01133 29.5015 11.4833 36.2181 19.734C36.3481 19.89 36.4781 20.046 36.6081 20.2107C36.9115 20.6007 37.2148 20.982 37.5008 21.372C38.0555 21.4413 38.5235 21.5193 38.8788 21.5973C39.2688 21.6753 39.6935 21.19 39.7975 21.0947V23.5993C39.6155 23.4433 39.1648 23.14 38.5841 22.8973C39.0175 23.5213 39.4161 24.1453 39.7975 24.7607C39.8581 24.8647 39.9188 24.9687 39.9795 25.0727C40.0401 25.1767 40.1095 25.272 40.1615 25.376C40.2221 25.4713 40.2741 25.558 40.3261 25.6533C41.2275 27.2133 41.9728 28.7387 42.5535 30.1947C42.6575 30.082 42.7441 29.9607 42.7875 29.8393C42.8915 29.5273 44.6161 23.2873 44.7115 22.7067C44.7115 22.6893 44.7201 22.672 44.7201 22.6547C44.7721 22.62 44.8241 22.5853 44.8675 22.5507C45.4048 22.1693 45.9161 21.8053 46.4101 21.4587C46.5141 21.372 46.6268 21.3027 46.7308 21.2247H48.9321C48.9321 21.2247 52.0001 29.51 52.1908 30.0127C52.3901 30.5153 52.7455 30.8967 53.0661 30.9747H47.2768ZM43.0041 36.2873C43.1688 36.2873 43.2988 36.4173 43.2988 36.582C43.2988 36.7467 43.1688 36.8767 43.0041 36.8767C42.8395 36.8767 42.7095 36.7467 42.7095 36.582C42.7095 36.4173 42.8395 36.2873 43.0041 36.2873ZM42.7095 34.7187C42.7095 34.554 42.8395 34.424 43.0041 34.424C43.1688 34.424 43.2988 34.554 43.2988 34.7187C43.2988 34.8833 43.1688 35.0133 43.0041 35.0133C42.8395 35.0133 42.7095 34.8833 42.7095 34.7187ZM20.1155 12.5407C20.1155 12.662 20.0201 12.7573 19.8988 12.7573C19.7775 12.7573 19.6821 12.662 19.6821 12.5407C19.6821 12.4193 19.7775 12.324 19.8988 12.324C20.0201 12.324 20.1155 12.4193 20.1155 12.5407Z" fill="#66747B"/>
<path d="M24.7175 26.4683L23.7468 24.0416L23.7035 23.9463L23.6688 24.0676L22.7934 26.9536L22.6201 27.5083H25.1421L24.7175 26.4683Z" fill="#66747B"/>
<path d="M44.7285 27.5083H47.2592L45.8205 23.9463L44.7285 27.5083Z" fill="#66747B"/>
<path d="M51.7227 12.4538C51.3847 12.6532 51.0553 12.8525 50.752 13.0258C47.216 15.1058 41.6347 17.6105 36.218 19.7338C36.348 19.8898 36.478 20.0458 36.608 20.2105C36.9113 20.6005 37.2147 20.9818 37.5007 21.3718C38.0553 21.4412 38.5233 21.5192 38.8787 21.5972C39.2687 21.6752 39.6933 21.1898 39.7973 21.0945V21.9438C43.6367 20.4532 47.6667 18.5465 50.9513 16.2932C49.8853 17.2985 47.346 19.2832 44.72 21.2245C44.564 21.3458 44.3993 21.4672 44.2433 21.5798C42.666 22.7412 41.08 23.8765 39.7973 24.7605H39.7887C39.8493 24.8645 39.91 24.9685 39.9793 25.0725C40.04 25.1765 40.1093 25.2718 40.1613 25.3758C40.222 25.4712 40.274 25.5578 40.326 25.6532C41.9467 24.5698 43.4113 23.5645 44.72 22.6545C44.772 22.6198 44.824 22.5852 44.8673 22.5505C45.4047 22.1692 45.916 21.8052 46.41 21.4585C46.514 21.3718 46.6267 21.3025 46.7307 21.2245H46.7393C48.7673 19.7598 50.3273 18.5552 51.454 17.6105C52.0087 17.1425 52.7107 16.5618 53.4907 15.8772C56.7667 12.9998 61.4987 8.27651 63.544 2.33984C59.54 7.42718 54.886 10.5472 51.7227 12.4538ZM37.7693 22.6198C37.492 22.5505 37.206 22.5072 36.92 22.5072C35.594 22.4898 35.0567 23.0012 35.2473 23.5558C35.2473 23.5558 35.2502 23.5616 35.256 23.5732C36.0793 23.3045 36.946 23.0098 37.8213 22.6892C37.804 22.6632 37.7867 22.6458 37.7693 22.6198ZM37.7693 22.6198C37.492 22.5505 37.206 22.5072 36.92 22.5072C35.594 22.4898 35.0567 23.0012 35.2473 23.5558C35.2473 23.5558 35.2502 23.5616 35.256 23.5732C36.0793 23.3045 36.946 23.0098 37.8213 22.6892C37.804 22.6632 37.7867 22.6458 37.7693 22.6198ZM37.7693 22.6198C37.492 22.5505 37.206 22.5072 36.92 22.5072C35.594 22.4898 35.0567 23.0012 35.2473 23.5558C35.2473 23.5558 35.2502 23.5616 35.256 23.5732C36.0793 23.3045 36.946 23.0098 37.8213 22.6892C37.804 22.6632 37.7867 22.6458 37.7693 22.6198ZM37.7693 22.6198C37.492 22.5505 37.206 22.5072 36.92 22.5072C35.594 22.4898 35.0567 23.0012 35.2473 23.5558C35.2473 23.5558 35.2502 23.5616 35.256 23.5732C36.0793 23.3045 36.946 23.0098 37.8213 22.6892C37.804 22.6632 37.7867 22.6458 37.7693 22.6198ZM39.8407 25.7485C39.6933 25.5058 39.546 25.2718 39.39 25.0292C39.182 25.1678 38.9827 25.2978 38.8007 25.4192C38.324 25.7312 37.9253 25.9912 37.622 26.1645C37.5093 26.2338 37.3793 26.3118 37.2233 26.3985C36.764 26.6845 36.14 27.0832 35.3947 27.5685C34.7187 28.0018 33.956 28.5132 33.124 29.0592C32.8987 29.2152 32.6647 29.3625 32.4307 29.5185C31.8327 29.9172 31.2087 30.3332 30.576 30.7578C30.472 30.8272 30.368 30.9052 30.264 30.9745H30.2553C29.1113 31.7458 27.9327 32.5432 26.7973 33.3145C26.5807 33.4532 26.3727 33.6005 26.1647 33.7392C23.556 35.5158 21.268 37.0845 20.2453 37.7865C18.5207 38.9825 14.8807 42.2498 11.8473 45.0492C10.0273 46.7218 8.424 48.2298 7.57467 49.0185L7.49667 49.8678C9.45533 48.1085 11.0587 46.7045 12.402 45.5432C16.042 42.4318 17.8273 41.1405 19.9333 39.5372C21.6493 38.2285 24.2667 36.3825 26.78 34.6405C27.0487 34.4585 27.3087 34.2765 27.5687 34.0945C29.432 32.8205 31.1827 31.6332 32.4307 30.8098C32.812 30.5585 33.15 30.3418 33.4187 30.1685C33.696 29.9952 33.956 29.8218 34.2247 29.6485C35.0827 29.1025 35.906 28.5652 36.6947 28.0538C37.752 27.3605 38.7487 26.7018 39.702 26.0692C39.78 26.0172 39.858 25.9652 39.936 25.9132C39.91 25.8612 39.8753 25.8005 39.8407 25.7485ZM37.7693 22.6198C37.492 22.5505 37.206 22.5072 36.92 22.5072C35.594 22.4898 35.0567 23.0012 35.2473 23.5558C35.2473 23.5558 35.2502 23.5616 35.256 23.5732C36.0793 23.3045 36.946 23.0098 37.8213 22.6892C37.804 22.6632 37.7867 22.6458 37.7693 22.6198ZM37.7693 22.6198C37.492 22.5505 37.206 22.5072 36.92 22.5072C35.594 22.4898 35.0567 23.0012 35.2473 23.5558C35.2473 23.5558 35.2502 23.5616 35.256 23.5732C36.0793 23.3045 36.946 23.0098 37.8213 22.6892C37.804 22.6632 37.7867 22.6458 37.7693 22.6198ZM37.7693 22.6198C37.492 22.5505 37.206 22.5072 36.92 22.5072C35.594 22.4898 35.0567 23.0012 35.2473 23.5558C35.2473 23.5558 35.2502 23.5616 35.256 23.5732C36.0793 23.3045 36.946 23.0098 37.8213 22.6892C37.804 22.6632 37.7867 22.6458 37.7693 22.6198ZM23.7467 24.0412C23.7467 24.0412 23.6947 24.0585 23.6687 24.0672L22.7933 26.9532C23.4347 26.7885 24.076 26.6238 24.7173 26.4678L23.7467 24.0412ZM11.908 28.2965C11.206 28.5825 10.4953 28.8772 9.79333 29.1805V29.6398C9.79333 29.8912 9.92333 30.1425 10.1227 30.3852C10.8593 30.1425 11.5787 29.9258 12.2807 29.7005C12.402 29.6658 12.532 29.6225 12.6707 29.5792L11.908 28.2965ZM8.48467 29.7525C7.01133 30.4025 5.57267 31.0872 4.19467 31.7978C2.704 32.5778 1.28267 33.3752 0 34.2072L0.693333 34.4845C2.03667 33.7218 3.25867 33.1065 4.38533 32.5778C5.81533 31.9192 7.098 31.4165 8.28533 30.9918H7.55733C7.99933 30.8098 8.424 30.2292 8.48467 29.7525ZM15.2187 27.0052L15.47 27.4298V26.9098C15.3833 26.9445 15.3053 26.9792 15.2187 27.0052ZM20.7133 25.0465C20.514 25.1158 20.3233 25.1852 20.124 25.2458C19.058 25.6098 17.9313 26.0085 16.77 26.4332V28.4698C18.1827 28.1058 19.7513 27.7158 21.3633 27.3085C21.372 27.3085 21.3807 27.3085 21.3893 27.3085C21.632 26.4072 21.9007 25.4192 22.1173 24.5872C21.6667 24.7345 21.1987 24.8905 20.7133 25.0552V25.0465ZM36.5213 20.9645C36.4867 20.9038 36.4347 20.8518 36.3913 20.7998C36.348 20.7392 36.3047 20.6872 36.2527 20.6265C36.088 20.4185 35.9233 20.2018 35.7587 20.0025C35.7327 19.9765 35.7153 19.9505 35.698 19.9332C32.76 21.0858 29.874 22.1085 27.43 22.8798C27.7073 23.6338 28.054 24.5785 28.4093 25.5232C29.7613 25.1765 30.992 24.8472 31.98 24.5698C32.0667 24.5438 32.162 24.5178 32.2573 24.4918C32.2487 24.3965 32.2487 24.2925 32.2487 24.1798C32.292 22.5505 33.7307 21.2592 35.4033 21.2505C35.8887 21.2505 36.348 21.2678 36.7813 21.3025C36.6947 21.1898 36.608 21.0772 36.5213 20.9645ZM37.7693 22.6198C37.492 22.5505 37.206 22.5072 36.92 22.5072C35.594 22.4898 35.0567 23.0012 35.2473 23.5558C35.2473 23.5558 35.2502 23.5616 35.256 23.5732C36.0793 23.3045 36.946 23.0098 37.8213 22.6892C37.804 22.6632 37.7867 22.6458 37.7693 22.6198Z" fill="#A3ABAF"/>
</g>
<defs>
<clipPath id="clip0_153_1590">
<rect width="63.544" height="52" fill="white"/>
</clipPath>
</defs>
</svg>
