<svg width="80" height="20" viewBox="0 0 80 20" fill="none" xmlns="http://www.w3.org/2000/svg">
<path d="M42.4096 19.6221L42.2001 16.17C41.7759 16.4055 41.2991 16.5288 40.8142 16.5295C39.1989 16.5295 38.7287 15.8886 38.7287 13.5483V7.50646H41.906V4.1517H38.774C38.774 2.96188 38.8654 1.20985 38.9701 0H36.0216C35.6228 2.92923 34.7791 4.44584 32.098 4.89067V7.50646H33.8834L33.8757 7.99013C33.8483 9.72122 33.8047 12.4705 33.8047 14.9929C33.8047 18.5303 35.6421 19.9823 39.0882 19.9823C40.206 20.0003 41.3218 19.8795 42.4096 19.6221Z" fill="#66747B" fill-opacity="0.6"/>
<path d="M58.6516 9.36319V12.4165C58.6389 14.8295 58.743 18.4063 58.8083 19.6488H53.5775C53.6695 18.4063 53.7409 14.5613 53.7409 12.4165V10.0628C53.7409 7.69585 53.1527 6.8395 51.3219 6.8395C50.675 6.8395 50.0321 6.94552 49.4191 7.15295C49.3471 9.38254 49.3471 11.0439 49.3471 12.4165C49.3278 14.8295 49.4385 18.4063 49.5565 19.6488H44.3257C44.417 18.4063 44.4757 14.522 44.4891 12.4165C44.5018 10.3116 44.4958 6.90488 44.3257 4.14505C45.8946 4.14505 47.1719 4.01914 48.4138 3.89671C49.5888 3.78088 50.7321 3.66816 52.0609 3.66816C56.9322 3.66816 58.6516 5.44026 58.6516 9.36319Z" fill="#66747B" fill-opacity="0.6"/>
<path fill-rule="evenodd" clip-rule="evenodd" d="M21.6563 13.0707C22.1398 13.1101 23.0942 13.1101 23.6571 13.1101C28.4758 13.1101 30.9542 11.5995 30.9275 8.33676C30.9275 5.53163 28.888 3.66816 24.4548 3.66816C19.0732 3.66816 16.9417 6.06784 16.4575 10.3569C15.6732 10.2849 14.8168 10.2849 13.6463 10.2849V9.5793C13.6463 5.23084 11.8416 3.65483 7.04892 3.65483C5.13212 3.60283 3.222 3.89097 1.40591 4.5052L1.58865 7.97064C2.91321 7.26232 4.38381 6.87083 5.88444 6.82617C8.09468 6.82617 8.74895 7.73518 8.74895 9.90609V10.2329H7.99664C2.53038 10.2329 0 11.7956 0 14.9602C0 18.1248 1.57598 19.9823 6.0545 19.9823C7.16724 19.9823 8.27143 19.9086 9.44163 19.8304C10.7606 19.7424 12.1635 19.6488 13.757 19.6488C13.5729 18.2089 13.4963 16.7576 13.5283 15.307C13.5283 14.7266 13.5535 14.0447 13.5818 13.2798L13.5936 12.9594C14.3224 12.9631 14.9317 12.9857 15.4419 13.0045C15.8338 13.0191 16.1672 13.0314 16.4515 13.0314C16.909 18.1182 19.5441 19.995 25.0297 19.995C26.7851 20.0423 28.5338 19.7555 30.1825 19.1513L29.9931 15.6798C28.7212 16.4101 27.2813 16.7976 25.8147 16.8043C23.1142 16.8043 21.6563 15.3984 21.6563 13.1754V13.0707ZM8.66407 13.4501C8.65008 14.6151 8.63495 15.8753 8.70293 16.7843C8.21539 16.9097 7.7152 16.9757 7.21231 16.9811C5.54496 16.9811 4.832 16.3661 4.832 15.0189C4.832 13.6723 5.74104 12.9073 8.01666 12.9073H8.67026C8.66845 13.0847 8.66628 13.2662 8.66407 13.4501ZM26.2002 8.24544C26.2002 9.76205 25.1931 10.4683 23.0882 10.4683H23.0682C22.5647 10.4683 22.0284 10.4616 21.6496 10.429V10.3503C21.6496 8.17337 22.3426 6.57805 24.3367 6.57805C25.4679 6.57805 26.2002 7.16629 26.2002 8.24544Z" fill="#66747B" fill-opacity="0.6"/>
<path d="M74.3936 19.6221C74.4078 19.6221 74.422 19.6221 74.4361 19.6221L74.3968 19.6488C74.3957 19.6399 74.3947 19.631 74.3936 19.6221Z" fill="#66747B" fill-opacity="0.6"/>
<path fill-rule="evenodd" clip-rule="evenodd" d="M74.3936 19.6221C74.2226 18.177 74.1603 16.722 74.2074 15.2676C74.2074 14.6528 74.2361 13.9255 74.2684 13.107C74.3099 12.0538 74.3575 10.8497 74.3575 9.53997C74.3575 5.19147 72.5594 3.61549 67.76 3.61549C65.8319 3.56346 63.9098 3.85624 62.0844 4.47853L62.2678 7.9446C63.5923 7.23632 65.0623 6.84484 66.5635 6.80017C68.7738 6.80017 69.4274 7.70919 69.4274 9.88009V10.2069H68.6758C63.2028 10.2069 60.6784 11.7696 60.6784 14.9342C60.6784 18.0988 62.2544 19.9556 66.7336 19.9556C67.8463 19.9556 68.9503 19.8819 70.1203 19.8038C71.4275 19.7165 72.8172 19.6237 74.3936 19.6221ZM69.3491 13.4471C69.3356 14.6057 69.3211 15.8553 69.388 16.7583L69.3687 16.7843C68.8865 16.8997 68.393 16.9564 67.8974 16.9543C66.2301 16.9543 65.5171 16.3401 65.5171 14.9929C65.5171 13.6463 66.4262 12.8813 68.7018 12.8813H69.3554C69.3536 13.0661 69.3514 13.2554 69.3491 13.4471Z" fill="#66747B" fill-opacity="0.6"/>
<path fill-rule="evenodd" clip-rule="evenodd" d="M76.8424 4.18466L76.8551 6.79375H77.2413V5.77401H77.5614L78.0843 6.64369C78.117 6.70437 78.167 6.75505 78.2284 6.78706C78.2837 6.8131 78.3437 6.82644 78.4051 6.82644H78.5098C78.5485 6.81708 78.5865 6.80175 78.6205 6.78041L77.9669 5.72799C78.0131 5.71777 78.0582 5.70276 78.1013 5.6835C78.1316 5.66994 78.1609 5.65425 78.189 5.63661C78.261 5.59326 78.3257 5.53787 78.3791 5.47318C78.4351 5.40518 78.4798 5.32714 78.5098 5.24445C78.5418 5.14974 78.5572 5.04968 78.5552 4.94963C78.5605 4.74157 78.4745 4.54083 78.3197 4.40077C78.0956 4.23534 77.8188 4.15866 77.5421 4.18466H76.8424ZM78.1497 4.92363C78.1497 5.23112 77.9736 5.38117 77.6201 5.38117L77.2213 5.36182V4.51212H77.5614C77.7188 4.49878 77.8769 4.5355 78.0129 4.6162C78.1063 4.68953 78.1577 4.80491 78.1497 4.92363Z" fill="#66747B" fill-opacity="0.6"/>
<path fill-rule="evenodd" clip-rule="evenodd" d="M75.6913 6.32957C75.7787 6.58433 75.9141 6.81907 76.0902 7.02252C76.2769 7.22326 76.5043 7.38199 76.7571 7.4867C77.3073 7.71678 77.9269 7.71678 78.4771 7.4867C78.7246 7.37865 78.9473 7.22059 79.1307 7.02252C79.3095 6.81975 79.4469 6.58501 79.5362 6.32957C79.6323 6.06079 79.681 5.77799 79.6803 5.49253C79.6816 5.20711 79.6329 4.92363 79.5362 4.65553C79.4429 4.4141 79.3055 4.19266 79.1307 4.00191C78.948 3.80249 78.7252 3.64443 78.4771 3.53773C77.9269 3.30765 77.3073 3.30765 76.7571 3.53773C76.5096 3.64578 76.2869 3.80384 76.1035 4.00191C75.9281 4.19198 75.7907 4.4141 75.698 4.65553C75.6013 4.92431 75.5526 5.20711 75.5539 5.49253C75.5519 5.77731 75.5986 6.06011 75.6913 6.32957ZM77.6008 7.31662C77.3547 7.31996 77.1112 7.2686 76.8878 7.16656C76.587 7.02048 76.3383 6.78507 76.1755 6.49296C76.0108 6.18815 75.9274 5.84603 75.9334 5.49922C75.9361 5.27646 75.9734 5.05637 76.0448 4.8456C76.1155 4.63419 76.2269 4.43879 76.3716 4.27002C76.5157 4.10129 76.6937 3.96525 76.8945 3.87121C77.3467 3.67445 77.8609 3.67445 78.3137 3.87121C78.5145 3.96525 78.6926 4.10129 78.8366 4.27002C78.9813 4.43879 79.092 4.63419 79.1634 4.8456C79.2341 5.05637 79.2721 5.27646 79.2748 5.49922C79.2748 5.73264 79.2374 5.96408 79.1634 6.18548C79.0927 6.39892 78.982 6.59631 78.8366 6.76775C78.6919 6.9358 78.5138 7.07184 78.3137 7.16656C78.0903 7.27059 77.8469 7.32195 77.6008 7.31662Z" fill="#66747B" fill-opacity="0.6"/>
</svg>
