<svg width="909" height="1184" viewBox="0 0 909 1184" fill="none" xmlns="http://www.w3.org/2000/svg">
<g opacity="0.2">
<path d="M654.624 -40.3762L524.264 -51.2395L687.431 216.432L750.873 90.418L654.624 -40.3762Z" fill="#B4D7EC"/>
<path d="M1307.29 847.809L1201.27 703.327L1157.6 643.796L1075.03 531.469L1074.6 531.686L1075.03 531.469L833.434 202.963L768.906 350.052L899.7 564.059H899.265L979.22 695.071L1083.94 866.928L1142.6 785.236L1083.94 866.928L1307.29 847.809Z" fill="#B4D7EC"/>
<path d="M217.266 914.29L0 976.863L200.971 1183.05L286.357 1013.36L217.266 914.29Z" fill="#B4D7EC"/>
<path d="M654.623 609.467L472.771 643.143L78.6503 716.362L0 976.864L217.266 914.291L356.317 874.314L564.24 814.566L979.219 695.07L899.265 564.058L654.623 609.467Z" fill="#D4E8F4"/>
<path d="M930.553 -17.342L810.188 -27.3363L750.874 90.422L687.432 216.436L472.773 643.147L654.625 609.471L768.907 350.055L833.435 202.966L930.553 -17.342Z" fill="#BFDDEF"/>
<path d="M356.318 874.319L286.358 1013.37L320.686 1062.47L286.358 1013.37L200.973 1183.05L403.248 1180.23L564.242 814.571L356.318 874.319Z" fill="#BFDDEF"/>
</g>
</svg>
